<?xml version="1.0" encoding="utf-8"?>
<!-- Generator: Adobe Illustrator 22.0.1, SVG Export Plug-In . SVG Version: 6.00 Build 0)  -->
<svg version="1.1" id="Layer_1" xmlns="http://www.w3.org/2000/svg" xmlns:xlink="http://www.w3.org/1999/xlink" x="0px" y="0px"
	 viewBox="0 0 34.2 40" style="enable-background:new 0 0 34.2 40;" xml:space="preserve">
<style type="text/css">
	.st0{fill:#4B1BCE;}
	.st1{fill:#FFFFFF;}
</style>
<g>
	<path class="st0" d="M27.3,30.8L15,40v-5.9l-1.4-0.3C9.6,33,5.9,30.7,3.4,27.3C-2.2,19.8-0.7,9.1,6.8,3.4s18.3-4.1,23.9,3.4
		S34.9,25.1,27.3,30.8z"/>
	<path class="st1" d="M23.1,25.1l-7.2,5.4V27l-0.8-0.2c-2.4-0.5-4.5-1.8-6-3.8c-3.3-4.4-2.4-10.6,2-13.9s10.7-2.4,14,2
		C28.4,15.5,27.5,21.8,23.1,25.1z"/>
	<g id="XMLID_27_">
		<circle id="XMLID_30_" class="st0" cx="12.6" cy="17.3" r="1.1"/>
		<circle id="XMLID_29_" class="st0" cx="17.1" cy="17.3" r="1.1"/>
		<circle id="XMLID_28_" class="st0" cx="21.6" cy="17.3" r="1.1"/>
	</g>
</g>
</svg>
