<svg xmlns="http://www.w3.org/2000/svg" width="648" height="134.706" xmlns:xlink="http://www.w3.org/1999/xlink"><path fill="#252525" d="M70.46 24.55l-27.3 75.78L15.9 24.55H0v85.6h9.5v-77.2l28.8 77.2h9.76l28.92-77.67v77.67h9.5v-85.6z"/><defs><path id="a" d="M0 0h648v134.7H0z"/></defs><clipPath id="b"><use xlink:href="#a" overflow="visible"/></clipPath><path fill="#252525" d="M157.08 105.77c-3.8 3.55-11.23 5.32-22.27 5.32h-5.42c-10.4 0-17.55-1.82-21.45-5.45-3.9-3.62-5.84-10.25-5.84-19.86V24.54h9.22v61.83c0 7.02 1.23 11.5 3.67 13.48 2.52 1.97 7.95 2.96 16.3 2.96h4.6c7.42 0 12.2-1.1 14.4-3.3 2.16-2.2 3.25-6.9 3.25-14.08v-60.9h9.23v61.37c0 9.86-1.9 16.48-5.7 19.87" clip-path="url(#b)"/><path fill="#252525" d="M178.53 110.15v-85.6h9.5v76.6h38.7v9zM244.65 32.83v77.32h-9.24V32.82h-25.24v-8.27h60.15v8.28zM281.98 24.55h9.23v85.6H282zM366.3 102c-4 5.43-10.7 8.15-20.1 8.15H308.3v-85.6h38.15c9.5 0 16.16 2.4 19.96 7.2 3.8 4.9 5.7 12.47 5.7 22.7V77.3c0 11.12-1.94 19.34-5.84 24.7m-3.67-45.5c0-7.8-1.04-13.72-3.13-17.74-2.17-3.94-6.1-5.9-11.8-5.9H317.8v69.03h28.65c6.06 0 10.27-2 12.62-6.03 2.34-4.1 3.53-10.17 3.53-18.2V56.46zM557.72 32.83v77.32h-9.24V32.82h-25.25v-8.27h60.14v8.28zM642.7 105.77c-3.52 3.55-10.04 5.32-19.54 5.32h-4.9c-10.04 0-17.24-1.35-21.58-4.03s-6.52-8.54-6.52-17.6V83.3h8.7v5.57c0 6.14 1.08 9.97 3.24 11.46 2.18 1.66 6.98 2.5 14.4 2.5h5.16c7.4 0 12.08-.92 13.98-2.73 1.9-1.9 2.85-6.2 2.85-12.9v-2.6c0-5.97-1.36-9.8-4.08-11.46-2.7-1.65-8.33-2.67-16.84-3.08-10.77-.3-17.87-1.93-21.3-4.84-3.36-2.9-5.03-7.76-5.03-14.54v-3.3c0-9.3 1.5-15.58 4.48-18.8 3.07-3.32 9.5-4.97 19.27-4.97h6.25c11.22 0 18.32 1.78 21.3 5.32 3.18 3.7 4.77 9.78 4.77 18.2v.6h-8.7v-2.6c0-5.2-1.3-8.7-3.93-10.52-2.63-1.8-7.16-2.72-13.58-2.72h-4.62c-6.15 0-10.32.88-12.5 2.6-2.17 1.82-3.25 5.36-3.25 10.64v3.78c0 4.42.77 7.65 2.3 9.7 1.55 2.05 7.38 3.3 17.53 3.8 13.12.62 20.94 2.63 23.48 6 2.62 3.48 3.94 8.76 3.94 15.85v3.1c0 8.88-1.77 15.03-5.3 18.42" clip-path="url(#b)"/><defs><path id="c" d="M450.03 0c-36.18.04-65.64 30.76-65.64 67.36 0 37.17 30.15 67.35 67.33 67.35s-20.1-16.02-20.1-53.2c0-37.18 57.05-80.57 20.1-81.48-.52 0-1.03-.02-1.55-.02h-.15z"/></defs><clipPath id="d"><use xlink:href="#c" overflow="visible"/></clipPath><linearGradient id="e" x2="1" y1="134.706" y2="134.706" gradientUnits="userSpaceOnUse" gradientTransform="matrix(-65.257 -113.029 -113.029 65.257 15697.643 -8662.292)"><stop offset="0" stop-color="#D05092"/><stop offset=".301" stop-color="#D05092"/><stop offset=".397" stop-color="#C4609B"/><stop offset=".595" stop-color="#A17EB2"/><stop offset=".874" stop-color="#4AA2D8"/><stop offset=".914" stop-color="#2BA7DF"/><stop offset="1" stop-color="#2BA7DF"/></linearGradient><path fill="url(#e)" d="M410.52 179.97l-84.46-146.3 136.72-78.93 84.46 146.3z" clip-path="url(#d)"/><defs><path id="f" d="M0 0h648v134.7H0z"/></defs><clipPath id="g"><use xlink:href="#f" overflow="visible"/></clipPath><path fill="#EDE81D" fill-rule="evenodd" d="M452.54 128.96c34.44 0 62.54-28.1 62.54-62.52 0-34.45-28.1-62.54-62.54-62.54C418.1 3.9 390 32 390 66.44c0 34.42 28.1 62.52 62.54 62.52" clip-path="url(#g)" clip-rule="evenodd"/><path fill="#EBE116" fill-rule="evenodd" d="M438.5 103.28c-4.02-6.26-6.88-13.5-6.88-21.78 0-5.9 1.7-13.7 4.37-19.63 10.94 8.68 23.9 15.84 38.77 16.52-2.77 11.95-11.43 25.25-36.27 24.88" clip-path="url(#g)" clip-rule="evenodd"/><path fill="#C7C830" fill-rule="evenodd" d="M474.56 36.97c-.16-.07-.35-.18-.6-.32-7.42-4.5-14.54-6-21-5.38 1.06-1.74 2.18-3.46 3.28-5.22 1.9-3.1 3.65-6.17 4.87-8.68 1.58.8 7.96 4.1 13.46 8.06v11.54z" clip-path="url(#g)" clip-rule="evenodd"/><path fill="#F4F19C" fill-rule="evenodd" d="M470.3 97.11l9.28 3.4c4.8 1.63 8.5-2.83 8.5-2.83 6.54-8.17 5.58-21.02 5.58-21.02 3.96-.92 7.8-2.2 11.46-3.8v.02c-.08.83-.17 1.5-.27 2.32 0 .04-.02.07-.02.13-2.08 14.84-10.4 27.7-22.17 35.87-8.2 5.67-18.06 9.08-28.73 9.33-4.05-3.7-7.78-7.32-11.3-11.6 12.9-1.37 21.72-5.8 27.67-11.82m-28.4 10.92c-.12-.16-.24-.3-.36-.47.07.1.2.28.37.47" clip-path="url(#g)" clip-rule="evenodd"/><path fill="#ED6E27" fill-rule="evenodd" d="M432.12 87.4c1.27.03 2.45-.4 11.02-3.9 0 0 7.44-3.6 14.4 2.57 2.3 2.13 5.18 5.23 8.24 8.6-5.62 5.2-14.2 8.8-27.28 8.6-3.05-4.7-5.4-10-6.38-15.88" clip-path="url(#g)" clip-rule="evenodd"/><path fill="#F48420" fill-rule="evenodd" d="M458.38 124.52s47.5-3.7 50.54-56.02c0 0 6.83-.23 10.16.7 0 0-2.1 51.67-54.96 61.75-.58-1.6-2.76-3.74-5.75-6.43" clip-path="url(#g)" clip-rule="evenodd"/><path fill="#ED6E27" fill-rule="evenodd" d="M424.73 53.38c-4.52 9.34-7.06 30.54 7.4 34.02-.33-1.9-.5-3.9-.5-5.9 0-5.9 1.42-11.9 3.67-17.9.23-.57.46-1.15.7-1.73 0 0-6.5-4.76-11.27-8.5" clip-path="url(#g)" clip-rule="evenodd"/><path fill="#77C045" fill-rule="evenodd" d="M438.16 56.88s-3.82-3.18-13.43-3.5c5.04-11.2 15.3-20.83 28.1-22.1.03 0 .08 0 .12 0-10.4 16.36-11 18.18-14.8 25.6" clip-path="url(#g)" clip-rule="evenodd"/><path fill="#923723" fill-rule="evenodd" d="M436 61.87s-6.5-4.76-11.27-8.5c1.02 0 9.13.37 13.43 3.5l-2.17 5z" clip-path="url(#g)" clip-rule="evenodd"/><path fill="#EE5E3F" fill-rule="evenodd" d="M439.1 104.22s-18.26 1.9-26.87.95c1.2 1.52 16.95 22.73 46.14 19.35-3.53-3.2-5.58-4.93-8.1-7.4-.9-.86-1.75-1.7-2.57-2.55-1.44-1.46-2.75-2.9-3.9-4.24-2.37-2.77-4.03-5.06-4.7-6.1" clip-path="url(#g)" clip-rule="evenodd"/><path fill="#F79674" fill-rule="evenodd" d="M453.93 120.53c-.04-.02-.16-.12-.18-.16-1.24-1.07-2.3-2.08-3.5-3.26-.87-.84-1.73-1.7-2.55-2.53-1.44-1.46-2.75-2.9-3.9-4.24-.57-.65-.96-1.1-1.23-1.4-6.33.67-13.65.6-22.1-.4 8.9 7.5 20.36 12 32.85 12h.6z" clip-path="url(#g)" clip-rule="evenodd"/><path fill="#FFFFFA" fill-rule="evenodd" d="M415.15 116.56c-.02-.02-.05-.05-.1-.07-.32-.26-.66-.52-1-.8-.05-.02-.12-.08-.17-.13-.34-.28-.67-.54-1-.8-.08-.08-.15-.13-.22-.2-.34-.26-.67-.54-1-.83-.04-.03-.08-.07-.13-.1-.3-.3-.62-.55-.92-.83-.04-.05-.1-.08-.14-.14-.32-.28-.64-.58-.94-.88-.07-.07-.14-.12-.22-.2-.3-.3-.6-.6-.93-.9-.04-.04-.1-.1-.15-.13-.27-.3-.56-.58-.85-.9-.05-.02-.08-.07-.12-.13-.3-.3-.6-.6-.9-.93-.05-.1-.12-.15-.18-.22-.3-.32-.58-.66-.86-.97-.04-.05-.08-.1-.13-.15-.27-.32-.55-.64-.82-.97 0-.03-.05-.06-.08-.1-.3-.35-.55-.7-.83-1.04-.06-.07-.1-.15-.16-.2-.27-.35-.53-.7-.8-1.04-.03-.05-.08-.12-.14-.18-.25-.35-.5-.68-.74-1.04l-.05-.07c-.27-.36-.52-.73-.76-1.08-.06-.07-.12-.16-.17-.23-.23-.37-.48-.74-.7-1.1-.06-.06-.1-.13-.13-.2-.25-.37-.5-.74-.73-1.13v-.02c-.25-.4-.48-.77-.7-1.18-.04-.05-.08-.12-.1-.2-.24-.38-.46-.75-.67-1.14-.03-.07-.07-.14-.1-.2-.23-.42-.44-.83-.64-1.24l-.02-.03c-.2-.4-.4-.8-.6-1.22-.03-.05-.07-.12-.1-.2-.2-.4-.37-.8-.55-1.2-.05-.06-.08-.15-.12-.22-.2-.4-.36-.83-.54-1.24-.02-.04-.04-.08-.06-.1-.16-.42-.32-.8-.48-1.2-.03-.08-.05-.15-.08-.2-.16-.43-.32-.84-.48-1.26-.02-.07-.05-.16-.1-.25-.13-.43-.3-.86-.43-1.28 0-.03-.02-.08-.04-.14-.13-.42-.27-.82-.4-1.24 0-.06-.04-.13-.06-.18-.13-.43-.25-.85-.37-1.3-.04-.08-.05-.17-.1-.26-.1-.42-.22-.86-.34-1.3 0-.05-.03-.1-.05-.16-.1-.42-.2-.85-.32-1.3 0-.04-.02-.1-.03-.15-.1-.43-.2-.87-.3-1.33 0-.1-.03-.18-.04-.3-.1-.43-.18-.87-.27-1.3 0-.08-.03-.15-.04-.22-.07-.43-.14-.88-.22-1.3 0-.05-.02-.1-.02-.14-.06-.45-.14-.9-.2-1.37 0-.1-.02-.17-.02-.26-.05-.46-.1-.9-.16-1.36 0-.08-.02-.17-.02-.24-.05-.45-.1-.9-.12-1.36l-.02-.1c-.04-.46-.05-.92-.1-1.4v-.26c-.03-.48-.04-.94-.04-1.4-.02-.1-.02-.17-.02-.24 0-.5-.02-.97-.02-1.46 0-.27 0-.53.02-.8V64.85c.02-.1.02-.16.02-.25 0-.26 0-.53 0-.77v-.03c.03-.24.05-.5.05-.74 0-.1 0-.18 0-.26.03-.2.04-.37.04-.57.02-.07.02-.16.02-.23.02-.24.04-.5.06-.78v-.07c.04-.23.05-.48.08-.7 0-.08 0-.17.03-.26.02-.17.02-.35.05-.55.02-.07.02-.15.04-.25 0-.25.04-.5.1-.75 0-.05 0-.1 0-.13.02-.23.05-.44.07-.65l.03-.25c.03-.2.04-.4.08-.58.03-.05.03-.12.05-.2.04-.24.07-.5.13-.75 0-.04 0-.1 0-.14.04-.2.1-.4.12-.62.02-.06.03-.15.05-.22.04-.2.07-.4.1-.58l.04-.2c.04-.25.08-.5.14-.74 0-.05.03-.1.03-.14.05-.2.1-.4.12-.6 0-.1.05-.18.06-.26.04-.18.07-.36.13-.54 0-.07.02-.13.04-.2.05-.25.1-.48.18-.73 0-.06 0-.12.03-.17.05-.2.1-.4.16-.58l.06-.23c.06-.18.1-.38.16-.58.02-.05.04-.12.06-.17.07-.25.14-.5.2-.72 0-.06.03-.1.04-.16.07-.2.13-.4.18-.58l.07-.23c.07-.2.12-.4.2-.6 0-.04 0-.1.03-.13.1-.25.16-.48.25-.73 0-.05.03-.1.05-.17.07-.18.12-.36.2-.55l.07-.2c.06-.2.13-.38.2-.58.03-.05.04-.1.06-.14.1-.24.17-.48.26-.7.03-.06.05-.13.07-.2.07-.16.13-.33.2-.5.02-.08.06-.15.1-.24.07-.18.15-.35.22-.53 0-.05.03-.1.05-.16.1-.23.2-.44.3-.67.02-.07.05-.14.1-.2.06-.17.13-.33.2-.5.03-.08.07-.16.1-.22.08-.18.15-.34.24-.52.02-.07.05-.16.1-.23.08-.2.18-.4.27-.6.04-.07.07-.14.1-.2.08-.17.15-.3.24-.47.04-.07.08-.16.1-.23.12-.2.22-.4.33-.6l.02-.05c.12-.23.23-.44.35-.67.04-.05.07-.12.1-.17.08-.17.17-.34.26-.5.03-.05.07-.12.1-.2.13-.18.23-.4.35-.6l.07-.08c.1-.2.2-.4.33-.6.04-.07.07-.12.13-.2.07-.13.16-.27.24-.4.06-.1.1-.17.14-.26.14-.2.26-.42.4-.6l.04-.1c.12-.2.23-.37.35-.55.03-.07.06-.12.12-.2.08-.15.2-.3.3-.45l.1-.16c.13-.2.27-.42.4-.63.03-.02.07-.05.08-.1.13-.17.25-.35.36-.5l.12-.18c.1-.16.2-.32.32-.46l.12-.18c.14-.2.3-.38.44-.6l.06-.05c.1-.14.2-.26.28-.4-.23.3-.46.63-.7.93-2.17 3.12-8.45 13.15-9.13 26.12.04-.1.08-.16.1-.25-.02.1-.04.18-.04.27h-.02c-.84 4-1.3 8.18-1.3 12.42 0 23.57 13.54 44 33.22 53.96-3.33-1.66-6.5-3.62-9.47-5.82" clip-path="url(#g)" clip-rule="evenodd"/><path fill="#EE5E3F" fill-rule="evenodd" d="M461.04 128.4c-.56-.4-1.13-.82-1.57-1.34 0 0-27.5 2.62-47.85-20.22-18.14-20.95-16.22-46.97-16.37-49.45v-.03s-2.27-1.2-2.57-1.4c-.83 4.03-1.26 8.2-1.26 12.45 0 24.1 14.1 44.88 34.5 54.6 7.86 3.75 16.67 6 25.95 6 3.03 0 6.26-.2 9.17-.63" clip-path="url(#g)" clip-rule="evenodd"/><path fill="#F58722" fill-rule="evenodd" d="M444.05 85.05s6.23-3 12.05 2.14c1.95 1.8 4.4 4.4 7.03 7.27 0 0-11.14 8.3-23.75 7.05-3.6-5.42-4.83-10.55-5.25-12.7 1.95-.4 8.23-3.08 9.92-3.77" clip-path="url(#g)" clip-rule="evenodd"/><path fill="#DBDB25" fill-rule="evenodd" d="M463.65 4.9c25.3 4.53 45.3 24.27 50.24 49.42h-10.34 4.13c-5.75-21.14-22.78-37.62-44.23-42.6.68-2.56.97-5 .18-6.82" clip-path="url(#g)" clip-rule="evenodd"/><path fill="#EBE116" fill-rule="evenodd" d="M463.47 11.7c21.45 4.98 38.48 21.47 44.22 42.6h-4.14c-3.77-14.1-13.22-25.84-25.75-32.64-3-1.62-7.16-3.64-15.73-6.28.58-1.3 1.05-2.52 1.4-3.67" clip-path="url(#g)" clip-rule="evenodd"/><path fill="#128242" fill-rule="evenodd" d="M452.95 31.27c.36-.55 3.55-5.5 5.85-9.54 1.04-1.87 1.85-3.43 2.3-4.34-3.43-1.74-6.36-2.96-8.68-3.9-3.66-1.43-5.88-2.07-6.87-2.42 1.36-.53 5.86-1.82 17.94.63 0 0 1.34-4.16.18-6.8-24.25-4.44-47.8 5.5-61.87 24.96-2.16 3.1-8.45 13.15-9.13 26.12 6.65-19.77 16.97-13.55 32.06-2.6l.02-.03c.5-1.1 1.06-2.2 1.64-3.28.38-.74.8-1.46 1.26-2.1 5.6-8.78 14.56-15.66 25.3-16.7" clip-path="url(#g)" clip-rule="evenodd"/><path fill="#9A3822" fill-rule="evenodd" d="M395.25 57.4v-.04s.02 0 .04 0c4.8 2.18 15.8 4.95 29.43-3.98-4.52 9.34-7.06 30.54 7.4 34.02 1.03 6.27 4.44 13 7.76 17.97 0 0-12.6 1.5-27.66-.2 1.2 1.53 16.94 22.73 46.14 19.36 0 0 0 0 .02.02.38.3 3 2.73 3.8 3.67l-1.16.17s-1-.64-1.57-1.33c0 0-27.53 2.6-47.85-20.2-18.17-20.98-16.28-47.02-16.37-49.48" clip-path="url(#g)" clip-rule="evenodd"/><path fill="#FFFFFA" fill-rule="evenodd" d="M478.77 28.27c4.77 3.9 38.78 34.4 3.9 82.93.14-.1.22-.15.4-.28 13.47-9.53 22.27-25.24 22.27-43 0-19.58-10.7-36.65-26.57-45.7v6.05z" clip-path="url(#g)" clip-rule="evenodd"/><path fill="#77C045" fill-rule="evenodd" d="M461.1 17.4c-3.43-1.74-6.36-2.96-8.68-3.88-3.66-1.45-5.88-2.1-6.87-2.44 1.36-.53 5.8-1.9 17.93.63-.15.6-1.3 3.6-2.37 5.7" clip-path="url(#g)" clip-rule="evenodd"/><path fill="#F9F9E0" fill-rule="evenodd" d="M478.46 41.1c4.78.35 16.06 21.2 15.22 39.7-.23 4.28-1.3 11.47-5.6 16.87 0 0-3.7 4.46-8.5 2.84l-1.15-.4-8.13-3c19.5-19.64 8.16-56 8.16-56" clip-path="url(#g)" clip-rule="evenodd"/><path fill="#FFFFFA" fill-rule="evenodd" d="M474.77 78.39v-.02l3.18.08c4.95 0 11.07-.82 15.73-1.8-4.2-9.14-17.48-16.3-18.24-16.75 0 .02 1.6 8.82-.67 18.5" clip-path="url(#g)" clip-rule="evenodd"/><path fill="#4F2E19" fill-rule="evenodd" d="M392.68 55.98s13.7 9.72 32.05-2.6c-15.1-10.95-25.4-17.17-32.06 2.6" clip-path="url(#g)" clip-rule="evenodd"/></svg>