<svg xmlns="http://www.w3.org/2000/svg" width="13.74" height="14" viewBox="0 0 13.74 14">
  <g id="Group_429" data-name="Group 429" transform="translate(-6.706 -3.859)">
    <g id="Group_423" data-name="Group 423" transform="translate(6.706 3.859)">
      <path id="Path_9937" data-name="Path 9937" d="M17.4,16.507a.751.751,0,0,1-.578-.277.728.728,0,0,1-.177-.541.758.758,0,0,1,.272-.523,4.8,4.8,0,0,0,.39-.363A5.52,5.52,0,0,0,9.726,6.786l.535.535a.51.51,0,0,1,.131.5.5.5,0,0,1-.374.348L7.33,8.805a.521.521,0,0,1-.119.014.506.506,0,0,1-.491-.624l.662-2.678a.5.5,0,0,1,.49-.39.508.508,0,0,1,.361.151l.416.427a7.048,7.048,0,0,1,4.772-1.846,6.978,6.978,0,0,1,4.969,2.052,7.071,7.071,0,0,1,0,9.969c-.159.159-.322.308-.5.456l-.007.006A.793.793,0,0,1,17.4,16.507Z" transform="translate(-6.706 -3.859)" fill="#8d8f99"/>
    </g>
    <g id="Group_424" data-name="Group 424" transform="translate(11.395 16.291)">
      <path id="Path_9938" data-name="Path 9938" d="M105.483,264.678l-.044-.006a2.976,2.976,0,0,1-.341-.056.761.761,0,0,1,.143-1.506.731.731,0,0,1,.162.018l.009,0a2.083,2.083,0,0,0,.279.053.736.736,0,0,1,.49.29.749.749,0,0,1,.146.553.764.764,0,0,1-.746.652Z" transform="translate(-104.491 -263.11)" fill="#8d8f99"/>
    </g>
    <g id="Group_425" data-name="Group 425" transform="translate(8.761 15.082)">
      <path id="Path_9939" data-name="Path 9939" d="M50.594,239.595a.755.755,0,0,1-.446-.147c-.053-.038-.1-.075-.149-.112s-.09-.069-.139-.1l-.006,0a.75.75,0,0,1-.131-1.062l0,0a.768.768,0,0,1,.6-.28.779.779,0,0,1,.459.149l.011.008.01.01a1.43,1.43,0,0,0,.218.165.749.749,0,0,1,.319.494.757.757,0,0,1-.745.887Z" transform="translate(-49.561 -237.882)" fill="#8d8f99"/>
    </g>
    <g id="Group_426" data-name="Group 426" transform="translate(14.29 16.104)">
      <path id="Path_9940" data-name="Path 9940" d="M165.615,260.813a.76.76,0,0,1-.727-.558.749.749,0,0,1,.075-.579.765.765,0,0,1,.463-.353l.138-.041.144-.043a.734.734,0,0,1,.228-.036.747.747,0,0,1,.721.54.74.74,0,0,1-.048.571.759.759,0,0,1-.437.376l-.006,0-.006,0c-.053.013-.106.03-.163.048s-.12.037-.182.053A.752.752,0,0,1,165.615,260.813Z" transform="translate(-164.86 -259.202)" fill="#8d8f99"/>
    </g>
    <g id="Group_427" data-name="Group 427" transform="translate(6.954 12.802)">
      <path id="Path_9941" data-name="Path 9941" d="M12.771,192.171a.746.746,0,0,1-.672-.412c-.029-.059-.055-.114-.081-.169s-.049-.105-.077-.162l0-.006a.778.778,0,0,1,.368-1l.006,0a.745.745,0,0,1,.308-.066.761.761,0,0,1,.7.44c.043.1.085.185.126.267a.768.768,0,0,1-.316,1.02l-.006,0A.776.776,0,0,1,12.771,192.171Z" transform="translate(-11.873 -190.351)" fill="#8d8f99"/>
    </g>
    <g id="Group_428" data-name="Group 428" transform="translate(11.952 6.724)">
      <path id="Path_9942" data-name="Path 9942" d="M119.97,70.06a.792.792,0,0,1-.4-.109l-.007,0-1.365-.865a1.326,1.326,0,0,1-.629.172,1.469,1.469,0,0,1-1.467-1.467,1.429,1.429,0,0,1,.7-1.238V64.362a.762.762,0,1,1,1.525,0v2.172a1.449,1.449,0,0,1,.7,1.237.278.278,0,0,1,0,.037l1.347.853a.758.758,0,0,1,.337.484.73.73,0,0,1-.111.56A.748.748,0,0,1,119.97,70.06Zm-2.4-2.575a.288.288,0,0,0,0,.575.281.281,0,0,0,.2-.088.254.254,0,0,0,.07-.19v-.01A.278.278,0,0,0,117.567,67.484Z" transform="translate(-116.1 -63.6)" fill="#8d8f99"/>
    </g>
  </g>
</svg>
