<?xml version="1.0" encoding="UTF-8" standalone="no"?><!DOCTYPE svg PUBLIC "-//W3C//DTD SVG 1.1//EN" "http://www.w3.org/Graphics/SVG/1.1/DTD/svg11.dtd"><svg width="100%" height="100%" viewBox="0 0 13 13" version="1.1" xmlns="http://www.w3.org/2000/svg" xmlns:xlink="http://www.w3.org/1999/xlink" xml:space="preserve" xmlns:serif="http://www.serif.com/" style="fill-rule:evenodd;clip-rule:evenodd;stroke-linejoin:round;stroke-miterlimit:2;"><path d="M0.46,2.167l3.081,-0c0.254,-0 0.46,0.205 0.46,0.459c-0,0.254 -0.206,0.46 -0.46,0.46l-2.622,-0l0,8.562l8.562,-0l-0,-3.332c-0,-0.254 0.206,-0.46 0.459,-0.46c0.254,0 0.46,0.206 0.46,0.46l0,3.791c0,0.254 -0.206,0.46 -0.46,0.46l-9.48,-0c-0.254,-0 -0.46,-0.206 -0.46,-0.46l0,-9.481c0,-0.254 0.206,-0.459 0.46,-0.459Z" style="fill:#fff;fill-rule:nonzero;"/><path d="M10.291,4.535l1.309,-1.74c-3.743,0.039 -6.775,2.449 -6.775,5.409c0.001,0.256 -0.207,0.463 -0.462,0.463c-0.256,-0 -0.463,-0.207 -0.463,-0.463c0,-3.35 3.214,-6.098 7.268,-6.32l-1.393,-1.051c-0.205,-0.154 -0.246,-0.444 -0.092,-0.649c0.154,-0.204 0.445,-0.245 0.649,-0.091l2.483,1.87c0.204,0.153 0.246,0.443 0.092,0.647l-1.871,2.475c-0.152,0.205 -0.442,0.249 -0.648,0.097c-0.206,-0.152 -0.249,-0.442 -0.097,-0.647Z" style="fill:#fff;fill-rule:nonzero;"/></svg>