<svg xmlns="http://www.w3.org/2000/svg" width="12" height="13.146" viewBox="0 0 12 13.146">
  <g id="Group_445" data-name="Group 445" transform="translate(-39.385)">
    <path id="Path_9948" data-name="Path 9948" d="M282.8,335.505a.513.513,0,0,0-.726,0l-3.146,3.146-1-1a.514.514,0,1,0-.726.726l1,1,.374.374h0a.512.512,0,0,0,.722-.021l.353-.353,3.146-3.146A.513.513,0,0,0,282.8,335.505Z" transform="translate(-231.564 -326.744)" fill="#00c259"/>
    <path id="Path_9949" data-name="Path 9949" d="M45.124,12.4a.511.511,0,0,1-.142-.27H41.239a.844.844,0,0,1-.843-.843,4.549,4.549,0,0,1,8.52-2.222l.716-.716.022-.02A5.593,5.593,0,0,0,46.929,6.1a3.371,3.371,0,1,0-3.964,0,5.571,5.571,0,0,0-3.58,5.2,1.856,1.856,0,0,0,1.854,1.854h4.626ZM42.587,3.371a2.36,2.36,0,1,1,2.36,2.36A2.362,2.362,0,0,1,42.587,3.371Z" fill="#00c259"/>
  </g>
</svg>
