<svg xmlns="http://www.w3.org/2000/svg" width="6" height="11.44" viewBox="0 0 6 11.44">
  <g id="Group_1161" data-name="Group 1161" transform="translate(-816 -736)">
    <path id="Path_10433" data-name="Path 10433" d="M275.406,174.916a3,3,0,0,1-3-3v-6.3a2.143,2.143,0,1,1,4.286,0V171.2a1.286,1.286,0,0,1-2.571,0v-4.154a.429.429,0,0,1,.857,0V171.2a.429.429,0,1,0,.857,0v-5.583a1.286,1.286,0,1,0-2.571,0v6.3a2.143,2.143,0,1,0,4.286,0v-6.583a.429.429,0,0,1,.857,0v6.583a3,3,0,0,1-3,3Z" transform="translate(543.594 572.524)" fill="#949494"/>
  </g>
</svg>
