<svg xmlns="http://www.w3.org/2000/svg" width="402.723" height="101.707" viewBox="0 0 402.723 101.707">
  <g id="Group_2892" data-name="Group 2892" transform="translate(-134.494 -114.5)">
    <g id="Group_259" data-name="Group 259" transform="translate(134.999 115)">
      <path id="Subtraction_87" data-name="Subtraction 87" d="M37.572,100v0l.008-14.7-3.42-.7A42.734,42.734,0,0,1,42.707,0,43.2,43.2,0,0,1,61.563,4.348,42.165,42.165,0,0,1,76.951,17.082a42.808,42.808,0,0,1-8.586,59.844L37.576,100Zm5.148-82.168a24.9,24.9,0,0,0-4.988,49.3l2,.41-.01,8.563L57.672,62.66a24.956,24.956,0,0,0,5-34.879,24.673,24.673,0,0,0-8.967-7.418A25.262,25.262,0,0,0,42.721,17.832Z" fill="#4b1bce" stroke="rgba(0,0,0,0)" stroke-miterlimit="10" stroke-width="1"/>
      <g id="Group_257" data-name="Group 257" transform="translate(28.733 40.399)">
        <circle id="Ellipse_10" data-name="Ellipse 10" cx="2.775" cy="2.775" r="2.775" fill="#4b1bce"/>
        <circle id="Ellipse_11" data-name="Ellipse 11" cx="2.775" cy="2.775" r="2.775" transform="translate(11.228)" fill="#4b1bce"/>
        <circle id="Ellipse_12" data-name="Ellipse 12" cx="2.775" cy="2.775" r="2.775" transform="translate(22.455)" fill="#4b1bce"/>
      </g>
    </g>
    <path id="Path_9906" data-name="Path 9906" d="M42.7,43.177V3.043A2.34,2.34,0,0,0,40.367.71H35.584a2.454,2.454,0,0,0-2.158,1.4L24.617,19.96c-.292.525-.408.817-.642.817s-.35-.292-.642-.817L14.525,2.11A2.454,2.454,0,0,0,12.367.71H7.583A2.34,2.34,0,0,0,5.25,3.043V43.177a.89.89,0,0,0,.992.875h5.892a1.1,1.1,0,0,0,.933-1.167V15.76c0-.408.058-.583.175-.583.058,0,.175.175.292.35l5.658,11.142a2.106,2.106,0,0,0,1.867.992H26.95a2.106,2.106,0,0,0,1.867-.992l5.6-11.142c.117-.175.233-.35.292-.35.117,0,.175.175.175.583V42.886a1.1,1.1,0,0,0,.933,1.167h5.892A.89.89,0,0,0,42.7,43.177Zm35.117-.292V12.377a1.222,1.222,0,0,0-1.167-1.225H71.284a1.222,1.222,0,0,0-1.167,1.225V35.711c-1.633.875-4.433,2.333-6.592,2.333a5.056,5.056,0,0,1-3.617-1.05c-1.108-.992-1.342-2.683-1.342-5.6V12.377A1.222,1.222,0,0,0,57.4,11.152H52.034a1.222,1.222,0,0,0-1.167,1.225V31.394c0,4.842.758,8.458,2.917,10.617,1.692,1.692,4.258,2.45,7.175,2.45a15.042,15.042,0,0,0,9.158-2.917v1.342a1.17,1.17,0,0,0,1.167,1.167h5.367A1.17,1.17,0,0,0,77.818,42.886Zm15.575-.058v-42A1.122,1.122,0,0,0,92.285-.34H86.86A1.17,1.17,0,0,0,85.693.827v42a1.222,1.222,0,0,0,1.167,1.225h5.425A1.173,1.173,0,0,0,93.393,42.827Zm26.25.233V39.386c0-.583-.467-.875-1.225-.875h-3.092c-2.1,0-2.275-.35-2.275-3.267V16.927h5.25a1.17,1.17,0,0,0,1.167-1.167V12.319a1.17,1.17,0,0,0-1.167-1.167h-5.25V5.143a.842.842,0,0,0-.933-.875h-.233L106.46,5.2a1.253,1.253,0,0,0-1.167,1.167v4.783H99.81a1.17,1.17,0,0,0-1.167,1.167v2.625A1.253,1.253,0,0,0,99.81,16.11l5.483.817V35.244c0,7.817,2.683,9.275,9.275,9.275a24.1,24.1,0,0,0,3.967-.408C119.294,43.994,119.644,43.644,119.644,43.061Zm13.3-37.451V.477A1.17,1.17,0,0,0,131.777-.69h-5.658A1.222,1.222,0,0,0,124.894.477V5.61a1.222,1.222,0,0,0,1.225,1.167h5.658A1.17,1.17,0,0,0,132.944,5.61Zm-.175,37.217V12.319a1.17,1.17,0,0,0-1.167-1.167h-5.367a1.17,1.17,0,0,0-1.167,1.167V42.827a1.222,1.222,0,0,0,1.167,1.225H131.6A1.222,1.222,0,0,0,132.769,42.827Zm28.642-.583V38.452c0-.583-.467-.875-1.05-.875h-.175a50.152,50.152,0,0,1-7.525.408c-2.742,0-5.6-1.575-5.6-7.642V24.919c0-6.067,2.858-7.642,5.6-7.642a50.152,50.152,0,0,1,7.525.408h.175c.583,0,1.05-.292,1.05-.875V13.019c0-.933-.233-1.283-1.225-1.517a31.991,31.991,0,0,0-7.525-.758c-7.583,0-13.3,4.667-13.3,14.175v5.425c0,9.509,5.717,14.175,13.3,14.175a31.992,31.992,0,0,0,7.525-.758C161.178,43.527,161.411,43.177,161.411,42.244Zm33.309-12.25V25.269c0-8.342-4.783-14.525-13.942-14.525s-13.942,6.183-13.942,14.525v4.725c0,8.342,4.783,14.525,13.942,14.525S194.72,38.336,194.72,29.994Zm-7.7,0c0,4.783-2.158,7.875-6.242,7.875s-6.242-3.092-6.242-7.875V25.269c0-4.783,2.158-7.875,6.242-7.875s6.242,3.092,6.242,7.875ZM209.3,42.827v-42A1.122,1.122,0,0,0,208.2-.34H202.77A1.17,1.17,0,0,0,201.6.827v42a1.222,1.222,0,0,0,1.167,1.225H208.2A1.173,1.173,0,0,0,209.3,42.827Zm15.867,0v-42A1.122,1.122,0,0,0,224.062-.34h-5.425A1.17,1.17,0,0,0,217.47.827v42a1.222,1.222,0,0,0,1.167,1.225h5.425A1.173,1.173,0,0,0,225.171,42.827Zm32.259.058v-21c0-7.467-4.55-11.142-12.833-11.142a50.324,50.324,0,0,0-9.742.933c-.758.175-1.108.583-1.108,1.225v3.733c0,.817.467.992,1.05.992h.292a92.091,92.091,0,0,1,9.509-.467c3.442,0,5.133.933,5.133,4.725v2.567h-3.675c-10.15,0-14.234,3.442-14.234,10.092v.233c0,7.875,5.25,9.742,10.092,9.742a15.808,15.808,0,0,0,8.225-2.567v.933a1.17,1.17,0,0,0,1.167,1.167h4.958A1.17,1.17,0,0,0,257.429,42.886Zm-7.7-6.125a12.773,12.773,0,0,1-5.95,1.633c-2.917,0-4.2-.758-4.2-3.617v-.233c0-3.267,1.167-4.958,6.475-4.958h3.675Zm42.526-6.883V25.385c0-9.1-4.55-14.642-13.942-14.642a44.141,44.141,0,0,0-5.6.408V.827A1.17,1.17,0,0,0,271.546-.34H266.18A1.17,1.17,0,0,0,265.013.827v40.6c0,.875.233,1.225,1.575,1.575a49.712,49.712,0,0,0,11.725,1.517C287.7,44.519,292.255,38.977,292.255,29.877Zm-7.7,0c0,4.783-1.225,8.342-6.242,8.342a33.952,33.952,0,0,1-5.6-.408V17.452a48.7,48.7,0,0,1,5.6-.408c5.017,0,6.242,3.558,6.242,8.342Z" transform="translate(244.961 135.949)"/>
  </g>
</svg>
