<svg version="1.2" xmlns="http://www.w3.org/2000/svg" viewBox="0 0 30 29" width="30" height="29">
	<title>Group 1271</title>
	<style>
		.s0 { fill: #fff } 
	</style>
	<g id="Group 1271">
		<path id="Path 10444" fill-rule="evenodd" class="s0" d="m30 3.6v17.3c0 2-1.6 3.6-3.6 3.6h-17.9l-5.4 2.7-3.1 1.5v-25.1c0-2 1.6-3.6 3.6-3.6h22.8c2 0 3.6 1.6 3.6 3.6zm-26.4-1.4c-0.8 0-1.4 0.6-1.4 1.4v21.6l5.8-2.9h18.4c0.8 0 1.4-0.6 1.4-1.4v-17.3c0-0.8-0.6-1.4-1.4-1.4z"/>
		<g id="Group 1270">
			<path id="Rectangle 18423" class="s0" d="m13.9 7.2c0-0.6 0.5-1.1 1.1-1.1 0.6 0 1.1 0.5 1.1 1.1v10.1c0 0.6-0.5 1.1-1.1 1.1-0.6 0-1.1-0.5-1.1-1.1z"/>
			<path id="Rectangle 18424" class="s0" d="m8.9 12.3c0-0.6 0.4-1.1 1-1.1h10.2c0.6 0 1 0.5 1 1.1 0 0.6-0.4 1-1 1h-10.2c-0.6 0-1-0.4-1-1z"/>
		</g>
	</g>
</svg>