<?xml version="1.0" encoding="utf-8"?>
<svg xmlns="http://www.w3.org/2000/svg" width="16.313" height="18.422" viewBox="0 0 16.313 18.422"><defs><style>.a,.b{fill:#4b1cce;}.a{stroke:#4b1bce;stroke-width:0.3px;}</style></defs><g transform="translate(-181.841 -841.848)"><path class="a" d="M2026.732,19562.936l.144.012a7.953,7.953,0,0,1-4.278-2.957,8.207,8.207,0,0,1,1.6-11.367,7.859,7.859,0,0,1,4.792-1.625,7.952,7.952,0,0,1,6.408,3.25,8.211,8.211,0,0,1-1.6,11.367,24.39,24.39,0,0,1-6.005,3.055v-1.537l-.044-.006v1.563l-1.016.367Zm-1.758-13.336a6.877,6.877,0,0,0-1.345,9.521,6.671,6.671,0,0,0,4.017,2.578l.54.113v1.34a22.414,22.414,0,0,0,4.827-2.676,6.877,6.877,0,0,0,1.345-9.521,6.643,6.643,0,0,0-9.383-1.355Z" transform="translate(-1839 -18705)"/><circle class="b" cx="1" cy="1" r="1" transform="translate(186 849)"/><circle class="b" cx="1" cy="1" r="1" transform="translate(189 849)"/><circle class="b" cx="1" cy="1" r="1" transform="translate(192 849)"/></g></svg>