<?xml version="1.0" encoding="utf-8"?>
<svg xmlns="http://www.w3.org/2000/svg" width="16.313" height="18.271" viewBox="0 0 16.313 18.271">
  <path id="Union_120" data-name="Union 120" d="M2027.221,19563.039a7.993,7.993,0,0,1-4.625-3.047,8.215,8.215,0,0,1,1.6-11.371,7.845,7.845,0,0,1,4.8-1.621,7.946,7.946,0,0,1,6.4,3.246,8.212,8.212,0,0,1-1.6,11.371,24.014,24.014,0,0,1-5.951,3.027v0l-.624.252Zm-2.244-13.441a6.868,6.868,0,0,0-1.345,9.521,6.645,6.645,0,0,0,4.016,2.582l.535.113v1.34a22.7,22.7,0,0,0,4.827-2.676,6.872,6.872,0,0,0,1.345-9.525,6.66,6.66,0,0,0-5.362-2.711h-.022A6.58,6.58,0,0,0,2024.977,19549.6Z" transform="translate(-2020.841 -19546.85)" fill="#4b1cce" stroke="#4b1bce" stroke-width="0.3"/>
</svg>
