<svg xmlns="http://www.w3.org/2000/svg" viewBox="0 0 437.55 512.09"><defs><style>.cls-1{fill:#fff;}</style></defs><title>Asset 2</title><g id="Layer_2" data-name="Layer 2"><g id="Layer_1-2" data-name="Layer 1"><path class="cls-1" d="M394,87.49c-72.4-96.6-209.8-116.2-306.4-43.8s-116.3,209.8-44,306.4a218.29,218.29,0,0,0,131.3,83.1l17.5,3.6v75.3L350,393.79C446.58,321.39,466.28,184,394,87.49Zm-98.7,233.3-91.9,68.8v-43.9l-10.2-2.1a126.94,126.94,0,0,1-76.5-48.4c-42.1-56.2-30.7-136.3,25.6-178.5s136.4-30.7,178.6,25.6S351.48,278.59,295.28,320.79Z"/><g id="_Group_" data-name="&lt;Group&gt;"><circle id="_Path_" data-name="&lt;Path&gt;" class="cls-1" cx="161.28" cy="220.99" r="14.2"/><circle id="_Path_2" data-name="&lt;Path&gt;" class="cls-1" cx="218.78" cy="220.99" r="14.2"/><circle id="_Path_3" data-name="&lt;Path&gt;" class="cls-1" cx="276.28" cy="220.99" r="14.2"/></g></g></g></svg>