<svg xmlns="http://www.w3.org/2000/svg" width="13.012" height="15.514" viewBox="0 0 13.012 15.514">
  <path id="Subtraction_22" data-name="Subtraction 22" d="M5.275,14h0V11.942l-.481-.1A5.988,5.988,0,0,1,1.2,9.572,5.986,5.986,0,0,1,6,0,6.084,6.084,0,0,1,8.643.609a5.97,5.97,0,0,1,3.294,6.219A5.944,5.944,0,0,1,9.6,10.769L5.276,14ZM6,1.628A4.227,4.227,0,0,0,5.149,10l.34.069v1.454L8.543,9.238a4.222,4.222,0,0,0-.675-7.18A4.3,4.3,0,0,0,6,1.628Z" transform="translate(0.506 0.5)" fill="#fff" stroke="rgba(0,0,0,0)" stroke-miterlimit="10" stroke-width="1"/>
</svg>
