<svg xmlns="http://www.w3.org/2000/svg" width="264.338" height="309.924" viewBox="0 0 264.338 309.924">
  <path id="Union_113" data-name="Union 113" d="M115.341,45.12l-10.506,2.142A130.9,130.9,0,0,0,26.143,97.079C-17.229,154.951-5.406,237.341,52.5,280.74a130.612,130.612,0,0,0,78.572,26.184,132.054,132.054,0,0,0,57.879-13.345,130.276,130.276,0,0,0,47.224-39.087A131.146,131.146,0,0,0,209.821,70.831L115.313,0Zm-7.963,203.309A76.429,76.429,0,0,1,115.819,100.9l6.124-1.249-.019-26.29L177,114.63a76.606,76.606,0,0,1,11.381,10.477,75.754,75.754,0,0,1,8.805,12.169A76.409,76.409,0,0,1,131.114,252.2h-.005A76.251,76.251,0,0,1,107.377,248.428Zm49.72-74.013a8.519,8.519,0,1,0,8.523-8.518A8.52,8.52,0,0,0,157.1,174.415Zm-34.456,0a8.518,8.518,0,1,0,8.518-8.518A8.518,8.518,0,0,0,122.642,174.415Zm-34.458,0A8.518,8.518,0,1,0,96.7,165.9,8.519,8.519,0,0,0,88.184,174.415Z" transform="translate(263.317 307.924) rotate(180)" fill="none" stroke="#fff" stroke-miterlimit="10" stroke-width="2" opacity="0.201"/>
</svg>
