<svg xmlns="http://www.w3.org/2000/svg" width="65.578" height="19.675" viewBox="0 0 65.578 19.675">
  <g id="Group_1979" data-name="Group 1979" transform="translate(0 19.675) rotate(-90)" opacity="0.4">
    <path id="Path_9975" data-name="Path 9975" d="M2.186,0A2.184,2.184,0,0,1,4.372,2.186,2.263,2.263,0,0,1,2.186,4.372,2.184,2.184,0,0,1,0,2.186,2.115,2.115,0,0,1,2.186,0Z" transform="translate(15.303 61.206)" fill="#fff"/>
    <path id="Path_9976" data-name="Path 9976" d="M2.186,0A2.186,2.186,0,1,1,0,2.186,2.184,2.184,0,0,1,2.186,0Z" transform="translate(15.303 45.904)" fill="#fff"/>
    <path id="Path_9977" data-name="Path 9977" d="M2.186,0A2.186,2.186,0,1,1,0,2.186,2.184,2.184,0,0,1,2.186,0Z" transform="translate(15.303 30.603)" fill="#fff"/>
    <path id="Path_9978" data-name="Path 9978" d="M2.186,0A2.186,2.186,0,1,1,0,2.186,2.115,2.115,0,0,1,2.186,0Z" transform="translate(15.303 15.3)" fill="#fff"/>
    <path id="Path_9979" data-name="Path 9979" d="M2.186,0A2.186,2.186,0,1,1,0,2.186,2.115,2.115,0,0,1,2.186,0Z" transform="translate(15.303 0)" fill="#fff"/>
    <path id="Path_9983" data-name="Path 9983" d="M2.186,0a2.186,2.186,0,0,1,0,4.372A2.263,2.263,0,0,1,0,2.186,2.184,2.184,0,0,1,2.186,0Z" transform="translate(0 61.206)" fill="#fff"/>
    <path id="Path_9984" data-name="Path 9984" d="M2.186,0A2.186,2.186,0,1,1,0,2.186,2.263,2.263,0,0,1,2.186,0Z" transform="translate(0 45.904)" fill="#fff"/>
    <path id="Path_9985" data-name="Path 9985" d="M2.186,0A2.186,2.186,0,1,1,0,2.186,2.263,2.263,0,0,1,2.186,0Z" transform="translate(0 30.603)" fill="#fff"/>
    <path id="Path_9986" data-name="Path 9986" d="M2.186,0A2.186,2.186,0,1,1,0,2.186,2.184,2.184,0,0,1,2.186,0Z" transform="translate(0 15.3)" fill="#fff"/>
    <path id="Path_9987" data-name="Path 9987" d="M2.186,0A2.186,2.186,0,1,1,0,2.186,2.184,2.184,0,0,1,2.186,0Z" transform="translate(0 0)" fill="#fff"/>
  </g>
</svg>
