<svg xmlns="http://www.w3.org/2000/svg" width="10" height="10" viewBox="0 0 10 10">
  <path id="gallery" d="M12.2,5.674v5.882a.65.65,0,0,1-.642.642H4.6V13h6.952A1.451,1.451,0,0,0,13,11.5V5.674Zm-1.176,4.492V3.856A.845.845,0,0,0,10.166,3H3.856A.845.845,0,0,0,3,3.856v6.31a.845.845,0,0,0,.856.856h6.31A.845.845,0,0,0,11.021,10.166ZM3.8,3.856A.052.052,0,0,1,3.856,3.8h6.31a.052.052,0,0,1,.053.053V7.813L8.989,6.9a.4.4,0,0,0-.481,0L6.957,8.027,5.674,7.439a.457.457,0,0,0-.374,0l-1.551.8V3.856Zm0,6.31V9.2l1.711-.909L6.8,8.936a.429.429,0,0,0,.428-.053l1.5-1.07,1.5,1.07v1.337a.052.052,0,0,1-.053.053H3.856A.187.187,0,0,0,3.8,10.166Z" transform="translate(-3 -3)" fill="#191e23"/>
</svg>
