<svg xmlns="http://www.w3.org/2000/svg" width="17.888" height="17.888" viewBox="0 0 17.888 17.888">
  <path id="noun-link-3118666" d="M81.532,1.114a3.8,3.8,0,0,0-5.378,0L74.529,2.739l.9.9L77.05,2.011A2.536,2.536,0,0,1,80.636,5.6L79.012,7.221l.9.9,1.625-1.625a3.8,3.8,0,0,0,0-5.378Zm-5.939,9.524a2.535,2.535,0,0,1-3.585-3.585l1.625-1.625-.9-.9L71.111,6.156a3.8,3.8,0,0,0,5.379,5.379l1.625-1.625-.9-.9ZM77.753,4l.9.9L74.881,8.662l-.9-.9Z" transform="translate(-40.551 -49.496) rotate(45)" fill="#989898" fill-rule="evenodd"/>
</svg>
