<svg xmlns="http://www.w3.org/2000/svg" width="10" height="10" viewBox="0 0 10 10">
  <path id="image" d="M11.889,3H4.111A1.114,1.114,0,0,0,3,4.111v7.778A1.114,1.114,0,0,0,4.111,13h7.778A1.114,1.114,0,0,0,13,11.889V4.111A1.114,1.114,0,0,0,11.889,3Zm-7.778.833h7.778a.262.262,0,0,1,.278.278V8.778L10.5,7.167a.37.37,0,0,0-.556,0l-2,1.944L6.333,8a.336.336,0,0,0-.444,0l-2,1.444V4.111C3.833,3.944,3.944,3.833,4.111,3.833Zm7.778,8.333H4.111a.262.262,0,0,1-.278-.278V10.556L6.111,8.889,7.778,9.944a.352.352,0,0,0,.5-.056L10.222,8l1.944,1.889v2A.262.262,0,0,1,11.889,12.167Z" transform="translate(-3 -3)" fill="#191e23"/>
</svg>
