<svg xmlns="http://www.w3.org/2000/svg" width="16" height="16.989" viewBox="0 0 16 16.989"><defs><style>.a{fill:#4b1bce;}</style></defs><g transform="translate(0 0)"><path class="a" d="M15.063,13.844h1.649V12.195a.166.166,0,0,1,.166-.166h.989a.166.166,0,0,1,.166.166v1.649h1.649a.166.166,0,0,1,.166.166V15a.166.166,0,0,1-.166.166H18.032V16.81a.166.166,0,0,1-.166.166h-.989a.166.166,0,0,1-.166-.166V15.161H15.063A.166.166,0,0,1,14.9,15v-.989A.166.166,0,0,1,15.063,13.844ZM25.754,8.2a4.939,4.939,0,0,0,.03-.544,5.079,5.079,0,0,0-.09-.959.169.169,0,0,1,.093-.182A2.573,2.573,0,0,0,26.547,6,2.64,2.64,0,0,0,22.9,2.181a2.765,2.765,0,0,0-.421.5.168.168,0,0,1-.192.066A5,5,0,0,0,21.145,2.5a.164.164,0,0,1-.129-.239A4.128,4.128,0,1,1,27.3,7.317,6.2,6.2,0,0,1,30.9,12.769a.166.166,0,0,1-.159.169H29.576a.165.165,0,0,1-.166-.159,4.7,4.7,0,0,0-3.534-4.4A.168.168,0,0,1,25.754,8.2Zm-9.287-.544a4.123,4.123,0,1,1,6.716,3.205,6.289,6.289,0,0,1,1.782,1.244,6.146,6.146,0,0,1,1.812,4.2.166.166,0,0,1-.159.169H25.458a.165.165,0,0,1-.166-.159,4.7,4.7,0,0,0-4.7-4.542A4.122,4.122,0,0,1,16.466,7.659Zm2.256,1.865a2.628,2.628,0,1,0-.78-1.865A2.663,2.663,0,0,0,18.722,9.524Z" transform="translate(-14.897 0.013)"/></g></svg>