<?xml version="1.0" encoding="utf-8"?><svg xmlns="http://www.w3.org/2000/svg" width="12" height="13.146" viewBox="0 0 17.923 21"><defs><style>.a{fill:#00c259;stroke:rgba(0,0,0,0);stroke-miterlimit:10;}</style></defs><g transform="translate(-38.885 0.5)"><path class="a" d="M1772.448,2831h-4.243a2.822,2.822,0,0,1-2.821-2.82,8.452,8.452,0,0,1,3.287-6.691l.005,0,.06-.046.008-.006.055-.042.014-.01.051-.037.018-.013.046-.033.023-.016.038-.027.155-.107,0,0,.06-.04.006,0,.06-.039.007,0,.06-.039.006,0,.063-.039h0l.066-.04h0a8.448,8.448,0,0,1,.837-.444h0l.069-.031.006,0,.066-.029.011,0,.063-.027.012-.005.061-.026.017-.007.057-.023.023-.009.052-.021.076-.029a5.128,5.128,0,1,1,6.03,0l.075.029.053.021.022.009.058.024.017.007.061.026.013.006.063.027.011,0,.065.029.007,0,.068.031h0a8.446,8.446,0,0,1,.767.4l0,0,.061.036.01.006.056.034.014.009.052.033.019.012.047.03.024.015.043.028.031.02.036.024.046.031.02.013a8.458,8.458,0,0,1,3.7,6.992,2.823,2.823,0,0,1-2.821,2.82Zm7.039-1.538a1.283,1.283,0,0,0,1.282-1.281,6.884,6.884,0,0,0-.884-3.383h0a6.941,6.941,0,0,0-4.967-3.458h0l-.172-.025h0l-.112-.014h-.008l-.05-.005h-.007l-.112-.01h-.009l-.048,0h-.009l-.056,0h0l-.052,0h-.012l-.047,0h-.009l-.055,0h-.011l-.045,0h-.555l-.053,0h-.011l-.044,0h-.015l-.047,0h-.007l-.053,0h-.015l-.042,0h-.014l-.047,0h-.007l-.053.005h-.015l-.039,0-.017,0-.1.012-.016,0-.041.005-.012,0-.053.008h-.007l-.045.007-.016,0-.039.006-.014,0-.051.009-.012,0-.04.007-.018,0-.038.007-.014,0-.049.01-.017,0-.035.007-.018,0-.042.009-.009,0-.05.011-.017,0-.035.008-.017,0-.048.011h0l-.047.012-.019,0-.034.009-.016,0-.049.013-.007,0-.045.012-.013,0-.04.011-.012,0-.049.014-.011,0-.039.012-.016,0-.04.012-.009,0-.05.016-.011,0-.039.013-.015.005-.041.014-.008,0-.05.017-.009,0-.04.014-.014,0-.1.037-.01,0-.043.017-.007,0-.1.04-.008,0-.043.018-.007,0-.1.043-.007,0-.151.069h0a6.97,6.97,0,0,0-3.094,2.883h0a6.882,6.882,0,0,0-.884,3.382,1.283,1.283,0,0,0,1.282,1.281h11.281Zm-9.23-13.333a3.589,3.589,0,1,0,3.589-3.589c-.046,0-.093,0-.139,0A3.594,3.594,0,0,0,1770.257,2816.128Z" transform="translate(-1726 -2811)"/></g></svg>