<svg xmlns="http://www.w3.org/2000/svg" width="12" height="12" viewBox="0 0 12 12">
  <g id="Group_433" data-name="Group 433" transform="translate(-1236 -646)">
    <g id="Path_9943" data-name="Path 9943" transform="translate(1236 646)" fill="#fff">
      <path d="M 6 11.5 C 2.967289924621582 11.5 0.5 9.032710075378418 0.5 6 C 0.5 2.967289924621582 2.967289924621582 0.5 6 0.5 C 9.032710075378418 0.5 11.5 2.967289924621582 11.5 6 C 11.5 9.032710075378418 9.032710075378418 11.5 6 11.5 Z" stroke="none"/>
      <path d="M 6 1 C 3.242989540100098 1 1 3.242989540100098 1 6 C 1 8.757009506225586 3.242989540100098 11 6 11 C 8.757009506225586 11 11 8.757009506225586 11 6 C 11 3.242989540100098 8.757009506225586 1 6 1 M 6 0 C 9.31371021270752 0 12 2.68628978729248 12 6 C 12 9.31371021270752 9.31371021270752 12 6 12 C 2.68628978729248 12 0 9.31371021270752 0 6 C 0 2.68628978729248 2.68628978729248 0 6 0 Z" stroke="none" fill="#00c259"/>
    </g>
    <g id="Group_413" data-name="Group 413" transform="translate(1239.001 582.003)">
      <g id="Group_412" data-name="Group 412" transform="translate(0 67.997)">
        <path id="Path_9927" data-name="Path 9927" d="M5.912,68.085a.3.3,0,0,0-.424,0L1.893,71.68.512,70.3a.3.3,0,0,0-.424.424l1.594,1.594a.3.3,0,0,0,.424,0L5.912,68.51A.3.3,0,0,0,5.912,68.085Z" transform="translate(0 -67.998)" fill="#00c259" stroke="#00c259" stroke-width="0.5"/>
      </g>
    </g>
  </g>
</svg>
