<svg xmlns="http://www.w3.org/2000/svg"  fill="#0568C1" width="19.25" height="18.438" viewBox="0 0 19.25 18.438"><g transform="translate(12650.807 10210.545)"><g transform="translate(-12650.807 -10210.545)"><path d="M178.4,187.334a.927.927,0,0,1,.927.927v11.093a.927.927,0,0,1-.927.927H166.587l-3.727,1.855V188.261a.927.927,0,0,1,.927-.927H178.4m0-1.391H163.787a2.321,2.321,0,0,0-2.318,2.318v16.12l2.011-1,3.434-1.709H178.4a2.321,2.321,0,0,0,2.318-2.318V188.261a2.321,2.321,0,0,0-2.318-2.318Z" transform="translate(-161.469 -185.943)"/><g transform="translate(0 1)"><circle cx="1" cy="1" r="1" transform="translate(4.807 6.545)"/><circle cx="1" cy="1" r="1" transform="translate(8.807 6.545)"/><circle cx="1" cy="1" r="1" transform="translate(12.807 6.545)"/></g></g></g></svg>