<svg xmlns="http://www.w3.org/2000/svg" width="30" height="29.848" viewBox="0 0 30 29.848">
  <g id="Group_52549" data-name="Group 52549" transform="translate(-141.101 -142.05)">
    <path id="Path_199493" data-name="Path 199493" d="M170.405,142.05H159.246a3.865,3.865,0,0,0-3.236,1.724,3.941,3.941,0,0,0-3.236-1.724H141.8a.684.684,0,0,0-.7.7v26.461a.684.684,0,0,0,.7.7h10.978a3.191,3.191,0,0,1,2.48,1.331c0,.03.363.665.756.665a.707.707,0,0,0,.484-.3l.272-.363a3.191,3.191,0,0,1,2.48-1.331h11.159a.684.684,0,0,0,.7-.7V142.746a.7.7,0,0,0-.7-.7Zm-27.913,26.462V143.441h10.282a2.556,2.556,0,0,1,2.54,2.54s0,22.47.03,22.53Zm27.217,0H156.676c.03-.061.03-22.53.03-22.53a2.556,2.556,0,0,1,2.54-2.54H169.71Z" transform="translate(0)" fill="#4b1bce"/>
    <path id="Path_199494" data-name="Path 199494" d="M203.1,218.77h-7.319a.684.684,0,0,0-.7.7v5.353a.684.684,0,0,0,.7.7H203.1a.684.684,0,0,0,.7-.7v-5.353a.7.7,0,0,0-.7-.7Zm-.7,5.353H196.48v-3.962h5.927Z" transform="translate(-50.54 -71.821)" fill="#4b1bce"/>
    <path id="Path_199495" data-name="Path 199495" d="M202.663,386.42h-7.349a.7.7,0,1,0,0,1.391h7.349a.7.7,0,1,0,0-1.391Z" transform="translate(-50.1 -228.765)" fill="#4b1bce"/>
    <path id="Path_199496" data-name="Path 199496" d="M432.823,474.98h-7.349a.7.7,0,0,0,0,1.391h7.349a.7.7,0,0,0,0-1.391Z" transform="translate(-265.563 -311.67)" fill="#4b1bce"/>
    <path id="Path_199497" data-name="Path 199497" d="M432.823,391.16h-7.349a.7.7,0,0,0,0,1.391h7.349a.7.7,0,0,0,0-1.391Z" transform="translate(-265.563 -233.202)" fill="#4b1bce"/>
    <path id="Path_199498" data-name="Path 199498" d="M432.823,307.8h-7.349a.7.7,0,1,0,0,1.391h7.349a.7.7,0,1,0,0-1.391Z" transform="translate(-265.563 -155.166)" fill="#4b1bce"/>
    <path id="Path_199499" data-name="Path 199499" d="M425.474,225.375h7.349a.7.7,0,0,0,0-1.391h-7.349a.7.7,0,0,0,0,1.391Z" transform="translate(-265.563 -76.702)" fill="#4b1bce"/>
    <path id="Path_199500" data-name="Path 199500" d="M202.663,469.77h-7.349a.7.7,0,1,0,0,1.391h7.349a.684.684,0,0,0,.7-.7A.7.7,0,0,0,202.663,469.77Z" transform="translate(-50.1 -306.793)" fill="#4b1bce"/>
  </g>
</svg>
