<?xml version="1.0" encoding="utf-8"?>
<!-- Generator: Adobe Illustrator 22.0.1, SVG Export Plug-In . SVG Version: 6.00 Build 0)  -->
<svg version="1.1" id="Layer_1" xmlns="http://www.w3.org/2000/svg" xmlns:xlink="http://www.w3.org/1999/xlink" x="0px" y="0px"
	 viewBox="0 0 437.6 512" style="enable-background:new 0 0 437.6 512;" xml:space="preserve">
<style type="text/css">
	.st0{fill:#00B9EB;}
</style>
<g>
	<path class="st0" d="M394,87.5C321.6-9.1,184.2-28.7,87.6,43.7s-116.3,209.8-44,306.4c32.1,42.9,78.8,72.4,131.3,83.1l17.5,3.6
		l0,75.3L350,393.8C446.6,321.4,466.3,184,394,87.5z M295.3,320.8l-91.9,68.8l0-43.9l-10.2-2.1c-30.6-6.2-57.8-23.4-76.5-48.4
		C74.6,239,86,158.9,142.3,116.7S278.7,86,320.9,142.3C363,198.5,351.5,278.6,295.3,320.8z"/>
	<g id="XMLID_27_">
		<circle id="XMLID_30_" class="st0" cx="161.3" cy="221" r="14.2"/>
		<circle id="XMLID_29_" class="st0" cx="218.8" cy="221" r="14.2"/>
		<circle id="XMLID_28_" class="st0" cx="276.3" cy="221" r="14.2"/>
	</g>
</g>
</svg>
