<svg xmlns="http://www.w3.org/2000/svg" width="265.16" height="67.111" viewBox="0 0 265.16 67.111"><defs><style>.a,.b{fill:#4b1bce;}.a{stroke:rgba(0,0,0,0);stroke-miterlimit:10;}</style></defs><g transform="translate(-134.497 -114.5)"><g transform="translate(135 115)"><path class="a" d="M11977.723,4266.8v0l.006-9.673-2.255-.458A28.118,28.118,0,0,1,11981.1,4201a28.445,28.445,0,0,1,12.407,2.861,28.122,28.122,0,0,1,4.475,47.755l-20.258,15.185Zm3.387-54.07a16.385,16.385,0,0,0-3.278,32.438l1.312.268,0,5.635,11.806-8.849a16.381,16.381,0,0,0-2.605-27.826A16.591,16.591,0,0,0,11981.109,4212.732Z" transform="translate(-11953 -4201)"/><g transform="translate(18.905 26.582)"><circle class="b" cx="1.826" cy="1.826" r="1.826"/><circle class="b" cx="1.826" cy="1.826" r="1.826" transform="translate(7.388)"/><circle class="b" cx="1.826" cy="1.826" r="1.826" transform="translate(14.775)"/></g></g><path d="M29.892,28.175V1.767A1.54,1.54,0,0,0,28.357.231H25.21a1.615,1.615,0,0,0-1.42.921L17.993,12.9c-.192.345-.269.537-.422.537s-.23-.192-.422-.537l-5.8-11.745A1.615,1.615,0,0,0,9.933.231H6.785A1.54,1.54,0,0,0,5.25,1.767V28.175a.586.586,0,0,0,.653.576H9.779a.726.726,0,0,0,.614-.768V10.134c0-.269.038-.384.115-.384.038,0,.115.115.192.23l3.723,7.331a1.385,1.385,0,0,0,1.228.653h3.877a1.385,1.385,0,0,0,1.228-.653l3.685-7.331c.077-.115.154-.23.192-.23.077,0,.115.115.115.384V27.983a.726.726,0,0,0,.614.768H29.24A.586.586,0,0,0,29.892,28.175ZM53,27.983V7.908a.8.8,0,0,0-.768-.806H48.7a.8.8,0,0,0-.768.806V23.262A10.842,10.842,0,0,1,43.6,24.8a3.327,3.327,0,0,1-2.38-.691c-.729-.653-.883-1.766-.883-3.685V7.908a.8.8,0,0,0-.768-.806H36.034a.8.8,0,0,0-.768.806V20.421c0,3.186.5,5.566,1.919,6.986a6.539,6.539,0,0,0,4.721,1.612A9.9,9.9,0,0,0,47.933,27.1v.883a.77.77,0,0,0,.768.768h3.531A.77.77,0,0,0,53,27.983Zm10.248-.038V.308a.738.738,0,0,0-.729-.768h-3.57a.77.77,0,0,0-.768.768V27.944a.8.8,0,0,0,.768.806h3.57A.772.772,0,0,0,63.248,27.944Zm17.273.154V25.68c0-.384-.307-.576-.806-.576H77.68c-1.382,0-1.5-.23-1.5-2.149V10.9h3.455a.77.77,0,0,0,.768-.768V7.87a.77.77,0,0,0-.768-.768H76.183V3.148a.554.554,0,0,0-.614-.576h-.154l-3.57.614a.825.825,0,0,0-.768.768V7.1H67.47a.77.77,0,0,0-.768.768V9.6a.825.825,0,0,0,.768.768l3.608.537V22.954c0,5.143,1.766,6.1,6.1,6.1a15.858,15.858,0,0,0,2.61-.269C80.29,28.712,80.521,28.482,80.521,28.1ZM89.272,3.455V.078A.77.77,0,0,0,88.5-.69H84.781a.8.8,0,0,0-.806.768V3.455a.8.8,0,0,0,.806.768H88.5A.77.77,0,0,0,89.272,3.455Zm-.115,24.489V7.87a.77.77,0,0,0-.768-.768H84.858a.77.77,0,0,0-.768.768V27.944a.8.8,0,0,0,.768.806h3.531A.8.8,0,0,0,89.157,27.944ZM108,27.561V25.066c0-.384-.307-.576-.691-.576H107.2a33,33,0,0,1-4.952.269c-1.8,0-3.685-1.036-3.685-5.028v-3.57c0-3.992,1.881-5.028,3.685-5.028a33,33,0,0,1,4.952.269h.115c.384,0,.691-.192.691-.576V8.33c0-.614-.154-.844-.806-1a21.05,21.05,0,0,0-4.952-.5c-4.99,0-8.752,3.071-8.752,9.327v3.57c0,6.257,3.762,9.327,8.752,9.327a21.05,21.05,0,0,0,4.952-.5C107.85,28.4,108,28.175,108,27.561ZM129.921,19.5V16.391c0-5.489-3.147-9.558-9.174-9.558s-9.174,4.069-9.174,9.558V19.5c0,5.489,3.147,9.558,9.174,9.558S129.921,24.989,129.921,19.5Zm-5.067,0c0,3.147-1.42,5.182-4.107,5.182s-4.107-2.034-4.107-5.182V16.391c0-3.147,1.42-5.182,4.107-5.182s4.107,2.034,4.107,5.182Zm14.663,8.444V.308a.738.738,0,0,0-.729-.768h-3.57a.77.77,0,0,0-.768.768V27.944a.8.8,0,0,0,.768.806h3.57A.772.772,0,0,0,139.517,27.944Zm10.44,0V.308a.738.738,0,0,0-.729-.768h-3.57a.77.77,0,0,0-.768.768V27.944a.8.8,0,0,0,.768.806h3.57A.772.772,0,0,0,149.957,27.944Zm21.226.038V14.165c0-4.913-2.994-7.331-8.444-7.331a33.113,33.113,0,0,0-6.41.614c-.5.115-.729.384-.729.806V10.71c0,.537.307.653.691.653h.192a60.6,60.6,0,0,1,6.257-.307c2.265,0,3.378.614,3.378,3.109v1.689H163.7c-6.679,0-9.366,2.265-9.366,6.64v.154c0,5.182,3.455,6.41,6.64,6.41a10.4,10.4,0,0,0,5.412-1.689v.614a.77.77,0,0,0,.768.768h3.263A.77.77,0,0,0,171.183,27.983Zm-5.067-4.03a8.4,8.4,0,0,1-3.915,1.075c-1.919,0-2.764-.5-2.764-2.38v-.154c0-2.149.768-3.263,4.261-3.263h2.418ZM194.1,19.423V16.468c0-5.988-2.994-9.634-9.174-9.634a29.045,29.045,0,0,0-3.685.269V.308a.77.77,0,0,0-.768-.768h-3.531a.77.77,0,0,0-.768.768V27.023c0,.576.154.806,1.036,1.036a32.711,32.711,0,0,0,7.715,1C191.1,29.057,194.1,25.411,194.1,19.423Zm-5.067,0c0,3.147-.806,5.489-4.107,5.489a22.34,22.34,0,0,1-3.685-.269v-13.4a32.042,32.042,0,0,1,3.685-.269c3.3,0,4.107,2.341,4.107,5.489Z" transform="translate(205.558 129.02)"/></g></svg>