<svg xmlns="http://www.w3.org/2000/svg" xmlns:xlink="http://www.w3.org/1999/xlink" width="620.708" height="440" viewBox="0 0 620.708 440">
  <defs>
    <filter id="_45955acb3dc2e3cc0c7cb64f2a42a0ac" x="20.708" y="0" width="600" height="440" filterUnits="userSpaceOnUse">
      <feOffset dy="10" input="SourceAlpha"/>
      <feGaussianBlur stdDeviation="20" result="blur"/>
      <feFlood flood-color="#6f89a3" flood-opacity="0.204"/>
      <feComposite operator="in" in2="blur"/>
      <feComposite in="SourceGraphic"/>
    </filter>
  </defs>
  <g id="Group_52587" data-name="Group 52587" transform="translate(1.001 9)">
    <path id="Union_113" data-name="Union 113" d="M105.527,41.281l-9.611,1.96a119.773,119.773,0,0,0-72,45.579c-39.682,52.949-28.865,128.33,24.111,168.037a119.506,119.506,0,0,0,71.889,23.956A120.821,120.821,0,0,0,172.875,268.6a119.192,119.192,0,0,0,43.2-35.762A119.986,119.986,0,0,0,191.971,64.806L105.5,0ZM98.242,227.294a69.927,69.927,0,0,1,7.723-134.982l5.6-1.143-.018-24.053,50.387,37.762a70,70,0,0,1,10.41,9.585A69.164,69.164,0,0,1,180.4,125.6a69.907,69.907,0,0,1-60.445,105.146h0A69.763,69.763,0,0,1,98.242,227.294Zm45.49-67.717a7.795,7.795,0,1,0,7.8-7.793A7.794,7.794,0,0,0,143.732,159.577Zm-31.525,0A7.793,7.793,0,1,0,120,151.784,7.793,7.793,0,0,0,112.207,159.577Zm-31.527,0a7.793,7.793,0,1,0,7.795-7.793A7.794,7.794,0,0,0,80.68,159.577Z" transform="translate(240 280.813) rotate(180)" fill="none" stroke="#fff" stroke-miterlimit="10" stroke-width="2" opacity="0.201"/>
    <g id="Group_1979" data-name="Group 1979" transform="translate(499.999 399.002) rotate(-90)" opacity="0.4">
      <path id="Path_9975" data-name="Path 9975" d="M2,0A2,2,0,0,1,4,2,2.07,2.07,0,0,1,2,4,2,2,0,0,1,0,2,1.936,1.936,0,0,1,2,0Z" transform="translate(14.001 55.999)" fill="#82868e"/>
      <path id="Path_9976" data-name="Path 9976" d="M2,0A2,2,0,1,1,0,2,2,2,0,0,1,2,0Z" transform="translate(14.001 41.999)" fill="#82868e"/>
      <path id="Path_9977" data-name="Path 9977" d="M2,0A2,2,0,1,1,0,2,2,2,0,0,1,2,0Z" transform="translate(14.001 28)" fill="#82868e"/>
      <path id="Path_9978" data-name="Path 9978" d="M2,0A2,2,0,1,1,0,2,1.936,1.936,0,0,1,2,0Z" transform="translate(14.001 13.999)" fill="#82868e"/>
      <path id="Path_9979" data-name="Path 9979" d="M2,0A2,2,0,1,1,0,2,1.936,1.936,0,0,1,2,0Z" transform="translate(14.001 0)" fill="#82868e"/>
      <path id="Path_9983" data-name="Path 9983" d="M2,0A2,2,0,0,1,2,4,2.07,2.07,0,0,1,0,2,2,2,0,0,1,2,0Z" transform="translate(0 55.999)" fill="#82868e"/>
      <path id="Path_9984" data-name="Path 9984" d="M2,0A2,2,0,1,1,0,2,2.07,2.07,0,0,1,2,0Z" transform="translate(0 41.999)" fill="#82868e"/>
      <path id="Path_9985" data-name="Path 9985" d="M2,0A2,2,0,1,1,0,2,2.07,2.07,0,0,1,2,0Z" transform="translate(0 28)" fill="#82868e"/>
      <path id="Path_9986" data-name="Path 9986" d="M2,0A2,2,0,1,1,0,2,2,2,0,0,1,2,0Z" transform="translate(0 13.999)" fill="#82868e"/>
      <path id="Path_9987" data-name="Path 9987" d="M2,0A2,2,0,1,1,0,2,2,2,0,0,1,2,0Z" transform="translate(0 0)" fill="#82868e"/>
    </g>
    <g id="Group_52592" data-name="Group 52592" transform="translate(69.708 41)">
      <g transform="matrix(1, 0, 0, 1, -70.71, -50)" filter="url(#_45955acb3dc2e3cc0c7cb64f2a42a0ac)">
        <rect id="_45955acb3dc2e3cc0c7cb64f2a42a0ac-2" data-name="45955acb3dc2e3cc0c7cb64f2a42a0ac" width="480" height="320" rx="4" transform="translate(80.71 50)" fill="#fff"/>
      </g>
      <path id="Path_199414" data-name="Path 199414" d="M637.682,158.346a10,10,0,0,1-6.382,4.439,10.271,10.271,0,0,1-8.355-18.279,9.95,9.95,0,0,1,6.494-2.008c3.786.163,6.591,2.043,8.746,5.355-.6-6.1,1.795-10.49,6.555-12.324a10.574,10.574,0,0,1,12.286,3.609,10.243,10.243,0,0,1,2.041,6.5c-.12,3.81-1.944,6.7-5.229,8.953,7.219-.774,11.05,3.724,12.031,7.773a10.275,10.275,0,0,1-18.487,8.168,9.993,9.993,0,0,1-1.735-6.686,10.688,10.688,0,0,1,4.771-7.942,11.206,11.206,0,0,1-11.159-5.233A11.042,11.042,0,0,1,637.682,158.346Zm8.1,10.21a10.057,10.057,0,1,0-18.78,7.2,10.057,10.057,0,0,0,18.78-7.2Zm31.384-34.075a9.934,9.934,0,0,0-12.8-5.737,9.96,9.96,0,0,0,7.049,18.63A9.934,9.934,0,0,0,677.171,134.481Zm-39.536-17.869a9.96,9.96,0,0,0,7.064,18.626,9.96,9.96,0,1,0-7.064-18.626Zm28.44,44.255a9.794,9.794,0,1,0,5.679-12.6A9.8,9.8,0,0,0,666.075,160.867Zm-40.893-18.442a9.8,9.8,0,1,0-12.641-5.619A9.765,9.765,0,0,0,625.182,142.425Zm26.4-20.47a9.573,9.573,0,1,0,17.888-6.824,9.572,9.572,0,0,0-17.888,6.824ZM618.6,156.76a9.509,9.509,0,1,0-5.611,12.269A9.46,9.46,0,0,0,618.6,156.76Zm48,36.357a9.513,9.513,0,1,0-12.219-5.49A9.5,9.5,0,0,0,666.6,193.117ZM613.7,170.707a9.38,9.38,0,0,0,6.688,17.527,9.38,9.38,0,1,0-6.688-17.527Zm38.832,17.608A9.369,9.369,0,0,0,634.99,194.9a9.369,9.369,0,1,0,17.543-6.584ZM610.945,137.4a9.2,9.2,0,1,0-5.405,11.83A9.193,9.193,0,0,0,610.945,137.4ZM685.866,185.5a9.2,9.2,0,1,0-11.859-5.342A9.193,9.193,0,0,0,685.866,185.5Zm-7.027-51.582a9.136,9.136,0,1,0,17.062-6.539,9.136,9.136,0,0,0-17.062,6.539Zm-41.875-18.93a9.139,9.139,0,1,0-6.429-17.111,9.139,9.139,0,0,0,6.429,17.111Zm-25.9-9.593a9.035,9.035,0,0,0,6.507,16.857,9.035,9.035,0,1,0-6.507-16.857Zm86.809,53.1a9.034,9.034,0,0,0-6.364-16.911,9.034,9.034,0,1,0,6.364,16.911Zm-81.718,43.687a8.886,8.886,0,1,0,5.043-11.513A8.893,8.893,0,0,0,616.158,202.174Zm55.555-87.8a8.877,8.877,0,0,0,16.6-6.3,8.877,8.877,0,1,0-16.6,6.3Zm-15.481-6.967a8.874,8.874,0,1,0-11.4-5.249A8.878,8.878,0,0,0,656.232,107.408Zm17.435,104.248a8.643,8.643,0,0,0-6.181-16.144,8.643,8.643,0,1,0,6.181,16.144Zm-91.5-41.156a8.63,8.63,0,1,0,5-11.113A8.611,8.611,0,0,0,582.164,170.5Zm122.944,7.048a8.59,8.59,0,1,0-11.085-5.016A8.543,8.543,0,0,0,705.108,177.547ZM602.98,118.117a8.588,8.588,0,1,0-5.025,11.08A8.543,8.543,0,0,0,602.98,118.117Zm45.045,84.9a8.548,8.548,0,0,0,6.132,15.959,8.548,8.548,0,1,0-6.132-15.959ZM600.608,194.8a8.548,8.548,0,0,0-6.036-16,8.548,8.548,0,1,0,6.036,16Zm81.481,4.439a8.41,8.41,0,0,0,15.746-5.912,8.41,8.41,0,1,0-15.746,5.912ZM575.013,150.971a8.4,8.4,0,1,0,4.827-10.838A8.38,8.38,0,0,0,575.013,150.971ZM680.369,88.78a8.312,8.312,0,0,0-15.54,5.9,8.312,8.312,0,1,0,15.54-5.9Zm29.365,42.2a8.223,8.223,0,1,0-10.587-4.81A8.214,8.214,0,0,0,709.734,130.982ZM623.593,79.37a8.223,8.223,0,1,0,10.559,4.871A8.214,8.214,0,0,0,623.593,79.37Zm5.313,131.3a8.146,8.146,0,1,0,10.48,4.817A8.139,8.139,0,0,0,628.907,210.671ZM599.348,97.265a8.143,8.143,0,1,0,4.827-10.481A8.118,8.118,0,0,0,599.348,97.265Zm-2.034,111.88a8.137,8.137,0,1,0,4.816-10.483A8.131,8.131,0,0,0,597.314,209.145ZM711.33,135.036a8.14,8.14,0,1,0,10.471,4.828A8.153,8.153,0,0,0,711.33,135.036ZM692,106.712a8.009,8.009,0,0,0,14.939-5.78A8.009,8.009,0,1,0,692,106.712ZM642.935,72.267A8.012,8.012,0,0,0,648.7,87.218a8.012,8.012,0,1,0-5.762-14.951Zm73.828,113.807a7.885,7.885,0,0,0-14.746,5.587,7.885,7.885,0,1,0,14.746-5.587ZM582.839,125.71a7.885,7.885,0,0,0-14.756,5.561,7.885,7.885,0,1,0,14.756-5.561ZM718.8,154.887a7.773,7.773,0,1,0,5.548,14.522,7.773,7.773,0,0,0-5.548-14.522ZM584.9,94.5a7.773,7.773,0,1,0,5.506,14.539A7.773,7.773,0,0,0,584.9,94.5Zm-6.987,77.664a7.643,7.643,0,0,0-14.318,5.353,7.643,7.643,0,1,0,14.318-5.353ZM670.8,225.724a7.643,7.643,0,1,0,4.5-9.809A7.644,7.644,0,0,0,670.8,225.724Zm-9.684,11.8a7.562,7.562,0,1,0-9.726-4.443A7.526,7.526,0,0,0,661.121,237.525Zm-90.065-40.6a7.56,7.56,0,1,0,4.321-9.773A7.551,7.551,0,0,0,571.056,196.929Zm91.573-131.6a7.528,7.528,0,0,0,5.315,14.087,7.528,7.528,0,1,0-5.315-14.087Zm22.429,21.678a7.526,7.526,0,0,0,14.079-5.322,7.526,7.526,0,1,0-14.079,5.322Zm-79.77,141.322a7.495,7.495,0,0,0,14.013-5.322,7.495,7.495,0,1,0-14.013,5.322Zm85.083-9.884a7.453,7.453,0,1,0,4.295-9.673A7.461,7.461,0,0,0,690.37,218.445ZM556.438,158.058a7.454,7.454,0,1,0,4.309-9.666A7.461,7.461,0,0,0,556.438,158.058Zm31.731,62.308a7.217,7.217,0,1,0-9.381-3.962A7.179,7.179,0,0,0,588.169,220.366Zm57.639,14.713a7.214,7.214,0,1,0-3.953,9.385A7.179,7.179,0,0,0,645.808,235.079ZM621.656,74.271a7.18,7.18,0,1,0-9.274-4.13A7.179,7.179,0,0,0,621.656,74.271Zm97.853,44.263a7.178,7.178,0,1,0,4.153-9.264A7.177,7.177,0,0,0,719.509,118.535Zm-148.8-2.733a7.148,7.148,0,0,0-5.083-13.362,7.148,7.148,0,1,0,5.083,13.362Zm164.822,63.144a7.146,7.146,0,0,0-13.352,5.094,7.146,7.146,0,1,0,13.352-5.094Zm-8.663-41.129a7.1,7.1,0,1,0,4.211-9.141A7.116,7.116,0,0,0,726.871,137.817ZM597.1,68.319a7.1,7.1,0,1,0,9.153,4.173A7.091,7.091,0,0,0,597.1,68.319ZM716.325,89.972A6.989,6.989,0,1,0,725.351,94,6.961,6.961,0,0,0,716.325,89.972ZM553.539,129.354a6.989,6.989,0,1,0,9,4.059A6.981,6.981,0,0,0,553.539,129.354Zm156.7,81.455a6.987,6.987,0,1,0,4.107-8.989A7,7,0,0,0,710.237,210.809ZM631.878,62.685A6.987,6.987,0,1,0,636,53.7,6.98,6.98,0,0,0,631.878,62.685Zm46.556,4.78a6.8,6.8,0,1,0,3.782-8.777A6.808,6.808,0,0,0,678.433,67.465Zm68.788,84.906a6.776,6.776,0,1,0-3.839,8.759A6.765,6.765,0,0,0,747.221,152.371Zm-169.393-76.4a6.778,6.778,0,1,0,8.739,3.886A6.765,6.765,0,0,0,577.829,75.966Zm8.836,159.479a6.611,6.611,0,0,0,12.317-4.808,6.611,6.611,0,1,0-12.317,4.808ZM613.5,247.51a6.611,6.611,0,0,0,12.344-4.735A6.611,6.611,0,1,0,613.5,247.51ZM655.584,46.76A6.558,6.558,0,1,0,660.283,59a6.558,6.558,0,0,0-4.7-12.244Zm58.167,36.389a6.558,6.558,0,1,0-4.674-12.254,6.558,6.558,0,0,0,4.674,12.254ZM549.075,176.1a6.509,6.509,0,0,0,4.67,12.151,6.509,6.509,0,1,0-4.67-12.151ZM679.316,245a6.508,6.508,0,1,0,3.514-8.447A6.5,6.5,0,0,0,679.316,245Zm-15.708-1.1a6.431,6.431,0,1,0,8.259,3.706A6.417,6.417,0,0,0,663.608,243.9ZM552.73,203.806a6.429,6.429,0,1,0,3.681-8.271A6.417,6.417,0,0,0,552.73,203.806ZM706.986,241.1a6.327,6.327,0,1,0-8.177-3.6A6.338,6.338,0,0,0,706.986,241.1ZM546.3,168.588a6.327,6.327,0,0,0-4.548-11.809,6.327,6.327,0,1,0,4.548,11.809Zm195.809,30.164a6.276,6.276,0,0,0-11.722,4.487,6.276,6.276,0,1,0,11.722-4.487ZM550.852,122.4A6.278,6.278,0,0,0,546.5,110.62a6.278,6.278,0,1,0,4.357,11.776ZM750.46,179.929a6.169,6.169,0,0,0-4.446-11.51,6.169,6.169,0,1,0,4.446,11.51ZM555,91.8a6.167,6.167,0,1,0,3.645-7.914A6.161,6.161,0,0,0,555,91.8Zm8.98,123.5a6.11,6.11,0,1,0,7.846,3.571A6.112,6.112,0,0,0,563.976,215.3ZM640.8,259.366a6.086,6.086,0,1,0,3.606-7.838A6.068,6.068,0,0,0,640.8,259.366Zm99.311-148.627a5.946,5.946,0,1,0,3.408-7.694A5.937,5.937,0,0,0,740.113,110.739ZM606.17,50.321a5.946,5.946,0,1,0,3.465-7.668A5.938,5.938,0,0,0,606.17,50.321ZM594.362,61.079a5.884,5.884,0,0,0-4.2-10.993,5.884,5.884,0,1,0,4.2,10.993Zm156.528,61.409a5.884,5.884,0,1,0,7.586,3.37A5.889,5.889,0,0,0,750.891,122.488ZM538.7,148.721a5.884,5.884,0,0,0-4.1-11.032,5.884,5.884,0,1,0,4.1,11.032Zm180,81.206a5.861,5.861,0,0,0,10.97-4.127,5.861,5.861,0,1,0-10.97,4.127ZM709.552,55.5a5.861,5.861,0,0,0-10.923,4.252A5.861,5.861,0,1,0,709.552,55.5Zm-37.629-7.887a5.844,5.844,0,1,0,3.4-7.577A5.847,5.847,0,0,0,671.923,47.616Zm61,43.585a5.772,5.772,0,0,0,7.4,3.337,5.848,5.848,0,0,0,3.357-7.5,5.775,5.775,0,0,0-7.526-3.256A5.714,5.714,0,0,0,732.928,91.2ZM605.544,250.43a5.714,5.714,0,0,0-7.4-3.286,5.774,5.774,0,0,0-3.346,7.485,5.845,5.845,0,0,0,7.438,3.3A5.773,5.773,0,0,0,605.544,250.43ZM629.056,35.511A5.774,5.774,0,0,0,625.713,43a5.846,5.846,0,0,0,7.439,3.3,5.773,5.773,0,0,0,3.3-7.5A5.714,5.714,0,0,0,629.056,35.511ZM578.03,60.883a5.483,5.483,0,0,0-7.141-3.091,5.542,5.542,0,0,0-3.152,7.136,5.6,5.6,0,0,0,7.144,3.182A5.545,5.545,0,0,0,578.03,60.883Zm177.217,88.587a5.484,5.484,0,0,0,7.132,3.111,5.542,5.542,0,0,0,3.172-7.127,5.6,5.6,0,0,0-7.135-3.2A5.544,5.544,0,0,0,755.247,149.471ZM571.475,235.238a5.517,5.517,0,0,0,3.956,10.3,5.517,5.517,0,1,0-3.956-10.3Zm60.7,27.429a5.515,5.515,0,0,0-10.309,3.923,5.515,5.515,0,1,0,10.309-3.923Zm118.506-67.044a5.325,5.325,0,0,0,6.857,3.022,5.389,5.389,0,0,0,3.042-6.96,5.326,5.326,0,0,0-6.981-2.942A5.263,5.263,0,0,0,750.683,195.622Zm-102-167.073a5.326,5.326,0,0,0-3.128,6.809,5.389,5.389,0,0,0,6.91,3.154,5.326,5.326,0,0,0,3.05-6.934A5.259,5.259,0,0,0,648.682,28.549ZM543.193,101.992a5.256,5.256,0,0,0,3.069-6.815,5.314,5.314,0,0,0-6.807-3.136,5.382,5.382,0,0,0-3.12,6.927A5.314,5.314,0,0,0,543.193,101.992ZM725.962,71.529a5.314,5.314,0,0,0,6.818,3.111,5.379,5.379,0,0,0,3.135-6.83,5.314,5.314,0,0,0-6.91-3.107A5.255,5.255,0,0,0,725.962,71.529ZM527.486,119.019a5.188,5.188,0,0,0-3.041,6.617,5.245,5.245,0,0,0,6.714,3.068,5.179,5.179,0,0,0-3.673-9.685ZM738.8,222.249a5.161,5.161,0,1,0,9.665-3.625,5.161,5.161,0,0,0-9.665,3.625ZM694.62,266.634a5.12,5.12,0,1,0-6.684-2.8A5.11,5.11,0,0,0,694.62,266.634ZM530.085,184.78a5.12,5.12,0,0,0,3.658,9.564,5.12,5.12,0,1,0-3.658-9.564Zm138.377,86.245a5.056,5.056,0,1,0,9.473-3.541,5.056,5.056,0,0,0-9.473,3.541Zm-127.4-57.416a5.026,5.026,0,1,0-6.467-2.852A5.022,5.022,0,0,0,541.061,213.609Zm166.381,42.744a4.919,4.919,0,1,0,2.812-6.359A4.921,4.921,0,0,0,707.442,256.353ZM548.852,72.073a4.919,4.919,0,1,0,2.813-6.362A4.912,4.912,0,0,0,548.852,72.073Zm214.29,96.5a4.9,4.9,0,1,0,2.832-6.349A4.9,4.9,0,0,0,763.141,168.576Zm-240.452-3.037a4.905,4.905,0,1,0,3.8,9.044,4.905,4.905,0,0,0-3.8-9.044ZM692.213,39.893a4.791,4.791,0,0,0,6.241,2.805,4.857,4.857,0,0,0,2.831-6.252,4.917,4.917,0,0,0-6.279-2.823A4.856,4.856,0,0,0,692.213,39.893Zm-40.07,232.358a4.683,4.683,0,1,0,6.068,2.7A4.683,4.683,0,0,0,652.143,272.251Zm-103.7-39.54a4.685,4.685,0,1,0-6.127-2.563A4.682,4.682,0,0,0,548.439,232.711Zm30.715,22.862a4.563,4.563,0,0,0-2.6,5.982,4.612,4.612,0,0,0,5.9,2.627,4.676,4.676,0,0,0,2.687-5.982A4.613,4.613,0,0,0,579.154,255.573Zm32.693,14.821a4.58,4.58,0,1,0-2.648,5.889A4.565,4.565,0,0,0,611.846,270.394ZM719.315,51.913a4.565,4.565,0,1,0,2.6-5.886A4.565,4.565,0,0,0,719.315,51.913ZM665.767,27.751a4.565,4.565,0,1,0,2.634-5.873A4.556,4.556,0,0,0,665.767,27.751ZM513.05,152.211a4.444,4.444,0,1,0,2.57-5.777A4.436,4.436,0,0,0,513.05,152.211Zm216.82,90.854a4.446,4.446,0,1,0,5.738,2.464A4.454,4.454,0,0,0,729.87,243.065ZM600.276,30.3a4.394,4.394,0,0,0,5.676,2.557,4.461,4.461,0,0,0,2.507-5.722,4.394,4.394,0,0,0-5.619-2.484A4.328,4.328,0,0,0,600.276,30.3Zm168.833,69.41a4.327,4.327,0,0,0-5.671-2.514,4.395,4.395,0,0,0-2.545,5.592,4.463,4.463,0,0,0,5.677,2.606A4.394,4.394,0,0,0,769.109,99.707ZM580.86,37.69a4.32,4.32,0,1,0,2.486-5.613A4.309,4.309,0,0,0,580.86,37.69Zm187.449,84.418a4.32,4.32,0,1,0,2.609-5.539A4.31,4.31,0,0,0,768.309,122.107Zm-9.163-36.386a4.2,4.2,0,1,0-5.414-2.406A4.185,4.185,0,0,0,759.146,85.721ZM622.269,17.489a4.2,4.2,0,1,0,5.367,2.447A4.144,4.144,0,0,0,622.269,17.489ZM764.463,216.923a4.016,4.016,0,0,0,2.338-5.209,4.069,4.069,0,0,0-5.29-2.393,4.111,4.111,0,0,0-2.35,5.236A4.068,4.068,0,0,0,764.463,216.923Zm-238.724-114a4.016,4.016,0,0,0-5.194-2.37,4.068,4.068,0,0,0-2.422,5.277,4.076,4.076,0,1,0,7.616-2.907Zm29.685,148.553a4,4,0,0,0-2.891-7.467,4,4,0,1,0,2.891,7.467Zm75.209,33.939a4,4,0,1,0,2.25-5.14A4.006,4.006,0,0,0,630.634,285.419Zm-93-209.148a3.874,3.874,0,0,0-5.1-2.253,3.935,3.935,0,0,0-2.283,5.022,4,4,0,0,0,5.106,2.345A3.933,3.933,0,0,0,537.636,76.271ZM771.409,187.658a3.932,3.932,0,0,0,5.091,2.327,4,4,0,0,0,2.278-5.136,3.935,3.935,0,0,0-5.034-2.256A3.873,3.873,0,0,0,771.409,187.658Zm9.672-43.87a3.871,3.871,0,0,0,2.313-5.081,3.932,3.932,0,0,0-5.016-2.308,4,4,0,0,0-2.329,5.117A3.933,3.933,0,0,0,781.081,143.788ZM569.193,42.108a3.87,3.87,0,0,0-4.98-2.328,3.921,3.921,0,0,0-2.345,5.081,3.973,3.973,0,0,0,5.045,2.268A3.92,3.92,0,0,0,569.193,42.108Zm77.38-29.435a3.649,3.649,0,1,0-2.037,4.765A3.645,3.645,0,0,0,646.573,12.673ZM753.682,61.015a3.649,3.649,0,1,0-2.132,4.722A3.643,3.643,0,0,0,753.682,61.015ZM513.2,130a3.518,3.518,0,0,0-4.578-2.135,3.587,3.587,0,0,0-2.163,4.59,3.655,3.655,0,0,0,4.619,2.153A3.587,3.587,0,0,0,513.2,130ZM747.626,241.089a3.585,3.585,0,0,0,4.61,2.119,3.655,3.655,0,0,0,2.107-4.64,3.588,3.588,0,0,0-4.629-2.079A3.518,3.518,0,0,0,747.626,241.089ZM688.184,15.632a3.393,3.393,0,1,0,2.475,6.319,3.393,3.393,0,0,0-2.475-6.319ZM719.3,29.571a3.287,3.287,0,0,0-4.365-1.858A3.353,3.353,0,0,0,713.05,32a3.427,3.427,0,0,0,4.372,1.951A3.355,3.355,0,0,0,719.3,29.571ZM509.565,197.963a3.194,3.194,0,1,0,6.007-2.173,3.194,3.194,0,0,0-6.007,2.173Zm189.363,80.425a3.2,3.2,0,1,0,4.093,1.834A3.2,3.2,0,0,0,698.928,278.388Zm85.223-117.775a3.1,3.1,0,0,0,4.062,1.785,3.142,3.142,0,0,0,1.8-4.07,3.185,3.185,0,0,0-4.087-1.8A3.139,3.139,0,0,0,784.151,160.612ZM543.186,51.962a3.054,3.054,0,0,0,3.988,1.75,3.12,3.12,0,0,0,1.815-3.983,3.184,3.184,0,0,0-4.1-1.8A3.122,3.122,0,0,0,543.186,51.962ZM517.018,217.341a3.121,3.121,0,0,0,3.975,1.833,3.188,3.188,0,0,0,1.817-4.094,3.121,3.121,0,0,0-4.025-1.72A3.053,3.053,0,0,0,517.018,217.341Zm166.417,70.28a3.059,3.059,0,0,0-4-1.721,3.107,3.107,0,0,0-1.741,4.012,3.148,3.148,0,0,0,4.032,1.733A3.106,3.106,0,0,0,683.435,287.62ZM502.482,178.449a2.873,2.873,0,0,0,3.772,1.665,2.92,2.92,0,0,0,1.679-3.779,2.951,2.951,0,0,0-3.794-1.674A2.918,2.918,0,0,0,502.482,178.449Zm215.935,92.864a2.873,2.873,0,0,0-1.752,3.733,2.918,2.918,0,0,0,3.738,1.769,2.952,2.952,0,0,0,1.763-3.754A2.92,2.92,0,0,0,718.417,271.314ZM743.935,45.477a2.72,2.72,0,1,0-3.528-1.534A2.715,2.715,0,0,0,743.935,45.477ZM661.749,4.106a2.72,2.72,0,1,0,3.472,1.646A2.724,2.724,0,0,0,661.749,4.106ZM785.242,95.935a2.194,2.194,0,0,0,1.329-2.8,2.272,2.272,0,0,0-2.83-1.321,2.2,2.2,0,0,0-1.29,2.819A2.132,2.132,0,0,0,785.242,95.935ZM597.762,11.3a2.132,2.132,0,0,0,1.254-2.812,2.194,2.194,0,0,0-2.822-1.283,2.271,2.271,0,0,0-1.271,2.852A2.194,2.194,0,0,0,597.762,11.3ZM789.87,113.961a2.077,2.077,0,0,0,2.625,1.241,2.02,2.02,0,0,0,1.285-2.583,2.08,2.08,0,0,0-2.682-1.312A2.147,2.147,0,0,0,789.87,113.961ZM578.231,18.6a2.147,2.147,0,0,0,1.254-2.642,2.079,2.079,0,0,0-2.613-1.267,2.022,2.022,0,0,0-1.272,2.679A2.082,2.082,0,0,0,578.231,18.6ZM615.7.1a1.952,1.952,0,0,0-1.176,2.448,1.907,1.907,0,0,0,2.407,1.223,1.952,1.952,0,0,0,1.239-2.508A2,2,0,0,0,615.7.1ZM775.318,75.084a1.9,1.9,0,0,0,2.443,1.146,1.952,1.952,0,0,0,1.164-2.544,2,2,0,0,0-2.506-1.083A1.949,1.949,0,0,0,775.318,75.084Z" transform="translate(-398.282 14)" fill="#ededed" opacity="0.5"/>
      <g id="Group_52280" data-name="Group 52280" transform="translate(0 19.92)">
        <path id="Path_199374" data-name="Path 199374" d="M-4731.234-685.533c-.035,1.275-.073,2.423-.1,3.571-.025,1.183-.015,2.367-.06,3.548a2.8,2.8,0,0,1-1.852,2.668,2.745,2.745,0,0,1-2.815-.349,8.776,8.776,0,0,1-1.054-.974q-3.651-3.809-7.28-7.637a1.734,1.734,0,0,0-1.333-.6c-5.593-.115-11.186-.26-16.779-.38-4.73-.1-9.461-.179-14.191-.279-4.155-.088-8.309-.232-12.464-.276a5.5,5.5,0,0,1-5.373-5.595c.085-3.675.124-7.352.217-11.027a5.475,5.475,0,0,1,5.241-5.343c1.946-.051,3.889-.279,5.833-.43,1.02-.079,2.039-.174,3.059-.243,5.008-.337,10.016-.712,15.034-.806,3.644-.069,7.291-.081,10.934,0,2.841.066,5.681.291,8.518.5,2.23.167,4.457.4,6.68.646s4.441.548,6.66.836c1.742.226,3.479.5,5.226.7a5.447,5.447,0,0,1,4.93,5.441c0,2.013-.08,4.027-.117,6.04-.028,1.5-.038,3.005-.069,4.508a5.442,5.442,0,0,1-1.525,3.824,5.246,5.246,0,0,1-3.847,1.677c-.928.008-1.854-.017-2.782-.026C-4730.726-685.534-4730.911-685.533-4731.234-685.533Zm-27-16.787v-.03c-1.6-.027-3.2-.046-4.792-.083q-8.722-.2-17.443-.41a8.574,8.574,0,0,0-.958.01.828.828,0,0,0-.8.8.828.828,0,0,0,.64.848,4.14,4.14,0,0,0,.855.081q3.546.091,7.091.171,9.968.227,19.936.451,8.625.2,17.25.4c.416.01.832.032,1.247.01a.816.816,0,0,0,.833-.764.857.857,0,0,0-.767-.937,4.533,4.533,0,0,0-.669-.042q-3.258-.079-6.517-.154Q-4750.281-702.144-4758.235-702.32Zm-5.915,8.254v-.03l-5.933-.08a2.818,2.818,0,0,0-.383.008.874.874,0,0,0-.792.819.9.9,0,0,0,.737.876,4.107,4.107,0,0,0,.667.039q5.645.108,11.29.212a5.352,5.352,0,0,0,.764-.021.82.82,0,0,0,.73-.762.84.84,0,0,0-.674-.913,4.253,4.253,0,0,0-.761-.044Q-4761.328-694.016-4764.15-694.066Z" transform="translate(4794.533 810.289)" fill="#ffc73c"/>
        <path id="Path_199375" data-name="Path 199375" d="M154.025,1260.518q-11.131,0-22.262,0a10.348,10.348,0,0,1-3.407-.44,9.723,9.723,0,0,1-6.634-6.986,5.529,5.529,0,0,1-.2-1.034,18.016,18.016,0,0,1,.229-5.817,9.746,9.746,0,0,1,9.367-7.273q9.6.011,19.191,0,13.29,0,26.58,0a9.754,9.754,0,0,1,9.786,9.635c.015.767.019,1.536,0,2.3a9.679,9.679,0,0,1-9.43,9.6c-.384.007-.768.012-1.151.012Zm22.286-11.169c.064-.181.1-.3.149-.418.342-.72.7-1.435,1.031-2.16.138-.3.44-.618.139-.965-.283-.327-.663-.133-.991-.075q-1.084.192-2.155.451a.922.922,0,0,1-.953-.264c-.566-.563-1.149-1.109-1.73-1.656a2.721,2.721,0,0,0-.449-.351.422.422,0,0,0-.565.2,3.5,3.5,0,0,0-.143.652c-.095.76-.194,1.521-.256,2.284a.922.922,0,0,1-.556.817c-.71.364-1.411.747-2.111,1.128-.248.135-.562.24-.57.584-.01.406.352.491.634.623.723.337,1.447.674,2.179.99a.933.933,0,0,1,.6.79c.125.82.278,1.636.429,2.452.046.251.1.517.384.618s.477-.1.655-.282c.111-.115.216-.235.324-.353.409-.448.837-.881,1.223-1.348a1.151,1.151,0,0,1,1.246-.492c.309.073.632.086.948.129.538.073,1.075.149,1.612.221a.5.5,0,0,0,.5-.763c-.181-.3-.343-.613-.514-.919Zm-18.041-.041c.422-.884.808-1.689,1.191-2.5a5.053,5.053,0,0,0,.264-.614.416.416,0,0,0-.386-.539,4.753,4.753,0,0,0-.852.1c-.689.135-1.378.275-2.061.437a.859.859,0,0,1-.872-.242c-.295-.292-.6-.579-.9-.866-.37-.353-.729-.719-1.117-1.051a.472.472,0,0,0-.841.3c-.082.5-.124,1.014-.188,1.521-.072.568-.148,1.135-.221,1.695-.224.142-.405.272-.6.378-.561.306-1.127.6-1.69.9-.2.105-.4.2-.585.328-.4.269-.377.648.057.9.165.1.345.166.52.245.582.264,1.156.545,1.748.783a1.13,1.13,0,0,1,.833,1.04,18.554,18.554,0,0,0,.332,1.885,5.706,5.706,0,0,0,.143.654c.146.467.5.546.872.2.14-.13.262-.279.392-.421.367-.4.73-.8,1.1-1.2.777-.835.585-.745,1.737-.624.635.067,1.266.172,1.9.256a2.449,2.449,0,0,0,.474.04.46.46,0,0,0,.4-.62c-.115-.262-.262-.511-.4-.761C159.116,1250.806,158.708,1250.085,158.27,1249.308Zm-18.137,3.618c.386.025.621-.325.392-.811-.082-.173-.185-.336-.279-.5-.284-.5-.535-1.024-.861-1.5a1.418,1.418,0,0,1-.035-1.687,21.829,21.829,0,0,0,.963-1.983c.251-.559.014-.852-.609-.783-.19.021-.379.06-.567.1-.627.126-1.263.22-1.875.4a1.081,1.081,0,0,1-1.194-.358c-.51-.529-1.055-1.024-1.589-1.531-.226-.215-.431-.527-.809-.356-.352.159-.322.516-.355.832-.081.763-.169,1.525-.249,2.288a.911.911,0,0,1-.562.823c-.176.074-.337.182-.506.273-.479.257-.964.5-1.436.771-.294.167-.712.241-.721.683-.009.46.426.5.719.665.167.093.349.158.524.237.466.21.923.444,1.4.625a1.13,1.13,0,0,1,.774.99c.113.758.265,1.511.4,2.265a2.272,2.272,0,0,0,.119.462.451.451,0,0,0,.655.172,4.456,4.456,0,0,0,.477-.47c.477-.517.966-1.024,1.418-1.563a1.053,1.053,0,0,1,1.1-.4c.345.066.7.1,1.045.141Z" transform="translate(313.6 -1044.912)" fill="#686bea"/>
        <path id="Path_199377" data-name="Path 199377" d="M-1381.254,1728.76a27.35,27.35,0,0,1,3.863-7.179,1.53,1.53,0,0,0-.194-.287,12.521,12.521,0,0,1-3.422-6.216,22.773,22.773,0,0,1-.448-8.1,30.8,30.8,0,0,1,4.464-12.945,28.714,28.714,0,0,1,14.152-12.012,15.354,15.354,0,0,1,6.267-1.2,8.552,8.552,0,0,1,5.84,2.306,8.97,8.97,0,0,1,2.52,4.757,15.919,15.919,0,0,1,.279,3.624,36.282,36.282,0,0,1-.6,5.524c-.336,1.952-.61,3.917-1.011,5.856a34.092,34.092,0,0,1-4.22,10.949,20.838,20.838,0,0,1-10.62,8.866,17.143,17.143,0,0,1-5.219,1.161,11.415,11.415,0,0,1-5.781-1.065c-.113-.056-.23-.1-.335-.15a15.794,15.794,0,0,0-3.383,5.917c.192.239.468.152.708.153a29.45,29.45,0,0,1,5.153.45,15.206,15.206,0,0,1,3.4.977,5.233,5.233,0,0,1,1.681,1.087,2.036,2.036,0,0,1-.027,3.13,6.42,6.42,0,0,1-1.426.952,11.921,11.921,0,0,1-3.563,1.087,32.341,32.341,0,0,1-11.919-.136,11.024,11.024,0,0,1-2.821-.908,6.952,6.952,0,0,1-1.373-.864,2.058,2.058,0,0,1-.161-3.258,5.22,5.22,0,0,1,.408-.36c-.056-.352-.32-.332-.514-.4a39.019,39.019,0,0,1-8.069-3.75,37.434,37.434,0,0,1-10.9-9.972,7.306,7.306,0,0,1-.533-.8.889.889,0,0,1,.26-1.191.886.886,0,0,1,1.214.124,4.453,4.453,0,0,1,.409.531,36.772,36.772,0,0,0,5.682,6.218,35.9,35.9,0,0,0,14.706,7.758,3.237,3.237,0,0,0,.654.128,1.878,1.878,0,0,0,.5-.137,2.928,2.928,0,0,0-.286-.348,21.64,21.64,0,0,1-6.623-10.47,35.549,35.549,0,0,1-1.322-7.153c-.241-2.518-.249-5.046-.257-7.571-.009-2.91.036-5.821-.136-8.727a63.442,63.442,0,0,0-2.306-14.645,37.848,37.848,0,0,0-3.034-7.341,5.5,5.5,0,0,1-.342-.686.884.884,0,0,1,.373-1.084.851.851,0,0,1,1.135.13,3.875,3.875,0,0,1,.469.72,39.668,39.668,0,0,1,3.494,8.7,55.809,55.809,0,0,1,1.608,8.663,104.662,104.662,0,0,1,.52,10.628c.021,2.366-.015,4.734.046,7.1a43.4,43.4,0,0,0,1.1,9.411,22.633,22.633,0,0,0,3.254,7.424,16.663,16.663,0,0,0,4.283,4.351,1.7,1.7,0,0,0,1.513.369A5.729,5.729,0,0,1-1381.254,1728.76Zm6.676-7.709a3.56,3.56,0,0,0,1.326.612,10.511,10.511,0,0,0,5.591.127,18.663,18.663,0,0,0,11.247-7.295,28.246,28.246,0,0,0,1.883-3,33.519,33.519,0,0,0,3.454-10.115c.361-1.979.643-3.974.913-5.968a28.128,28.128,0,0,0,.238-5.262,11.332,11.332,0,0,0-.708-3.557,5.818,5.818,0,0,0-4.2-3.717,8.948,8.948,0,0,0-2.759-.232,15.613,15.613,0,0,0-5.268,1.337,26.461,26.461,0,0,0-9.152,6.509,28.618,28.618,0,0,0-7.723,17.358,21.363,21.363,0,0,0,.452,6.666,11.613,11.613,0,0,0,1.767,4.114,4.923,4.923,0,0,0,1.308,1.34,3.047,3.047,0,0,0,.268-.222c1.85-1.99,3.692-3.987,5.548-5.97,1.376-1.471,2.746-2.948,3.975-4.547a22.208,22.208,0,0,0,3.628-6.5c.03-.091.059-.183.1-.27a.937.937,0,0,1,1.228-.6.925.925,0,0,1,.543,1.177c-.063.247-.159.485-.246.726a24.161,24.161,0,0,1-3.663,6.485,56.1,56.1,0,0,1-3.827,4.421q-2.5,2.652-5,5.307C-1373.956,1720.3-1374.232,1720.647-1374.578,1721.052Z" transform="translate(1739.345 -1456.418)" fill="#686bea"/>
        <path id="Path_199378" data-name="Path 199378" d="M-2011.281-225.785l-.7.514a12.4,12.4,0,0,1-5.8,2.341,18.139,18.139,0,0,1-4.019.053c-1.051-.094-2.1-.182-3.155-.255-.381-.027-.765,0-1.19,0a5.192,5.192,0,0,0-1.136,1.235c-.661.9-1.3,1.825-1.936,2.743-.768,1.1-1.525,2.211-2.293,3.313a4.644,4.644,0,0,1-.536.674.876.876,0,0,1-1.477-.324,3.623,3.623,0,0,1-.138-.654,42.168,42.168,0,0,0-1.775-6.907,1.425,1.425,0,0,0-.829-.333,14.138,14.138,0,0,1-9.184-6.863,14.961,14.961,0,0,1-1.887-7.927A16.036,16.036,0,0,1-2042-249.987a18.825,18.825,0,0,1,11.447-5.073,22.524,22.524,0,0,1,15.494,4.507,20.2,20.2,0,0,1,6.927,8.536c.061.143.146.277.252.475.215-.208.4-.37.566-.55a23.2,23.2,0,0,1,12.153-7.1,19.636,19.636,0,0,1,15.638,2.6,16.887,16.887,0,0,1,6.39,7.238,15.962,15.962,0,0,1,.989,10.959c-1.445,5.454-5.043,8.822-10.432,10.341-.708,0-.964.432-1.145,1.049a47.587,47.587,0,0,0-1.415,5.868c-.045.284-.1.567-.154.85a.844.844,0,0,1-.669.729.88.88,0,0,1-.938-.334c-.219-.275-.44-.549-.641-.837-.862-1.232-1.707-2.474-2.576-3.7-.61-.861-1.214-1.73-1.885-2.542-.826-1-.66-.846-1.874-.765-1.69.113-3.377.288-5.069.362a12.489,12.489,0,0,1-5.257-.893,11.884,11.884,0,0,1-6.622-6.46C-2010.959-225.046-2011.1-225.367-2011.281-225.785Zm24.578,13.043c.123-.513.187-.825.274-1.131.455-1.6.917-3.192,1.375-4.788a1.136,1.136,0,0,1,1.064-.943,3.649,3.649,0,0,0,.564-.112,12.233,12.233,0,0,0,9.239-8.088,13.757,13.757,0,0,0,.5-7.467,14.576,14.576,0,0,0-5.562-8.911,17.6,17.6,0,0,0-14.369-3.487,21.489,21.489,0,0,0-11.163,5.581,17.182,17.182,0,0,0-4.775,7.2,12.614,12.614,0,0,0,.288,9.181,9.973,9.973,0,0,0,6.819,6.1,12.864,12.864,0,0,0,4.467.4c1.593-.135,3.189-.235,4.776-.415a2.05,2.05,0,0,1,1.893.679c.554.618,1.115,1.236,1.605,1.9.794,1.082,1.531,2.205,2.295,3.309C-1987.223-213.454-1987.017-213.178-1986.7-212.742Zm-25.118-15.113c-.033-.209-.052-.334-.071-.459a15.043,15.043,0,0,1,.329-6.182,15.853,15.853,0,0,1,1.947-4.467,1.535,1.535,0,0,0,.152-1.519,17.811,17.811,0,0,0-2.185-4.144,21.622,21.622,0,0,0-17.532-8.72,17.174,17.174,0,0,0-10.623,3.856c-4.389,3.559-6.389,8.178-5.571,13.811.787,5.414,3.985,8.847,9.189,10.437.487.149,1,.228,1.5.329a.916.916,0,0,1,.708.58c.1.236.189.475.27.717a48.978,48.978,0,0,1,1.4,4.982c.025.115.009.264.244.328.131-.164.294-.344.43-.542.832-1.213,1.637-2.444,2.493-3.64.445-.622.967-1.189,1.466-1.772a2.283,2.283,0,0,1,2.145-.772c1.749.182,3.5.3,5.261.392a11.691,11.691,0,0,0,4.621-.676A9.287,9.287,0,0,0-2011.821-227.856Z" transform="translate(2280.238 377.51)"/>
        <path id="Path_199383" data-name="Path 199383" d="M-1474.133,1286.493a65.323,65.323,0,0,1,1.539-13.887,17.36,17.36,0,0,1,.941-3.016,9.314,9.314,0,0,1,1.35-2.311,6.962,6.962,0,0,1,6.277-2.609,13.286,13.286,0,0,1,5.5,1.843,24.911,24.911,0,0,1,5.082,3.907,32.744,32.744,0,0,1,9.338,16.755,25.314,25.314,0,0,1,.473,8.672,16.385,16.385,0,0,1-3.4,8.422,12.844,12.844,0,0,1-4.011,3.369,3.162,3.162,0,0,1-.7.3.858.858,0,0,1-1.026-.5.9.9,0,0,1,.344-1.094,3.08,3.08,0,0,1,.335-.185,12.24,12.24,0,0,0,5.8-6.87,17.481,17.481,0,0,0,1.01-6.594,29.848,29.848,0,0,0-6.53-17.779,28.66,28.66,0,0,0-5.976-5.785,14.732,14.732,0,0,0-4.69-2.349,7.325,7.325,0,0,0-3.506-.2,4.993,4.993,0,0,0-3.055,2.005,9.082,9.082,0,0,0-1.253,2.47,26.126,26.126,0,0,0-.94,3.813,63.263,63.263,0,0,0-1.109,12.4,36.878,36.878,0,0,0,.692,7.531,17.223,17.223,0,0,0,2.085,5.433,10.845,10.845,0,0,0,5.135,4.444,7.367,7.367,0,0,0,5.243.327,1.348,1.348,0,0,1,.558-.069.886.886,0,0,1,.754.765.879.879,0,0,1-.453.886,2.634,2.634,0,0,1-.625.233,8.808,8.808,0,0,1-5.285-.166,12.433,12.433,0,0,1-6.578-5.03,17.869,17.869,0,0,1-2.555-6.266,39.3,39.3,0,0,1-.764-8.1C-1474.135,1287-1474.133,1286.748-1474.133,1286.493Z" transform="translate(1801.179 -1069.35)" fill="#686bea"/>
        <path id="Path_199384" data-name="Path 199384" d="M-1700.744,2173.479a24.962,24.962,0,0,0,6.48,16.083,16.341,16.341,0,0,0,3.147,2.794,7.905,7.905,0,0,0,3.263,1.313,4.988,4.988,0,0,0,3.736-.842c.1-.074.2-.161.308-.227a.868.868,0,0,1,1.192.207.852.852,0,0,1-.052,1.14,3.285,3.285,0,0,1-.592.484,6.513,6.513,0,0,1-3.237,1.072,8.279,8.279,0,0,1-4.268-.882,15.144,15.144,0,0,1-3.8-2.735,24.936,24.936,0,0,1-4.9-6.708,27.759,27.759,0,0,1-3.014-10.626,24.434,24.434,0,0,1,.582-7.619,8.087,8.087,0,0,1,.657-1.792,4.06,4.06,0,0,1,3.633-2.271,6.627,6.627,0,0,1,2.814.485,15.019,15.019,0,0,1,2.078.976,37.856,37.856,0,0,1,14.4,14.92,10.919,10.919,0,0,1,1.212,3.316,6.264,6.264,0,0,1-.295,3.4,4.681,4.681,0,0,1-1.083,1.68,1,1,0,0,1-1.374.189.954.954,0,0,1,.034-1.44,3.787,3.787,0,0,0,.949-3.458,8.865,8.865,0,0,0-.965-2.694,34.549,34.549,0,0,0-3.85-5.832,36.229,36.229,0,0,0-9.663-8.37,8.744,8.744,0,0,0-3.466-1.323,4.564,4.564,0,0,0-1.139.021,2.109,2.109,0,0,0-1.694,1.263,8.674,8.674,0,0,0-.554,1.626A25.533,25.533,0,0,0-1700.744,2173.479Z" transform="translate(2018.635 -1924.47)" fill="#686bea"/>
        <path id="Path_199385" data-name="Path 199385" d="M-2445.635-749.033h20.723a7.1,7.1,0,0,1,.863.021.866.866,0,0,1,.775.838.854.854,0,0,1-.8.9,5.641,5.641,0,0,1-.671.021q-5.852.021-11.7.04l-21.489.061q-3.981.011-7.963.018a5.737,5.737,0,0,0-1.8.21,4.232,4.232,0,0,0-2.761,2.473,3.86,3.86,0,0,0-.231,1.506q.007,4.365,0,8.731,0,5.421,0,10.841a6.466,6.466,0,0,1-.016.767.883.883,0,0,1-.881.841.852.852,0,0,1-.889-.82,5.43,5.43,0,0,1-.02-.671c0-6.524.047-13.048-.018-19.572a5.985,5.985,0,0,1,5.78-6.072c.416-.01.831-.038,1.246-.039q7.339-.023,14.678-.039c1.727,0,3.453,0,5.18,0Z" transform="translate(2685.009 847.702)"/>
        <path id="Path_199386" data-name="Path 199386" d="M-2261.125,1119.607q-18.178,0-36.357,0c-.575,0-1.151-.018-1.726-.031a1.929,1.929,0,0,1-.381-.032.9.9,0,0,1-.69-.917.864.864,0,0,1,.707-.8,2.9,2.9,0,0,1,.477-.032c.256,0,.512,0,.768,0h74.633c.383,0,.769-.012,1.15.024a.874.874,0,0,1,.823.895.875.875,0,0,1-.84.88c-.317.032-.639.017-.958.017Z" transform="translate(2521.035 -929.545)"/>
        <path id="Path_199387" data-name="Path 199387" d="M-917.954,830.139H-912c.288,0,.576,0,.863.013a3.327,3.327,0,0,1,3.181,3.324,3.358,3.358,0,0,1-3.115,3.4c-.223.018-.448.014-.671.014q-6.237,0-12.475-.005a5.276,5.276,0,0,1-1.327-.139A3.3,3.3,0,0,1-928,833.113a3.286,3.286,0,0,1,3.14-2.954c1.021-.048,2.047-.018,3.07-.02Q-919.873,830.137-917.954,830.139Z" transform="translate(1214.626 -655.691)" fill="#ff819f"/>
        <path id="Path_199388" data-name="Path 199388" d="M-1895.441,838.241c2.107,0,4.214-.008,6.322.007a4.9,4.9,0,0,1,1.323.148,3.343,3.343,0,0,1,2.393,3.5,3.4,3.4,0,0,1-3.051,3.07,8.492,8.492,0,0,1-.861.023h-12.26a4.878,4.878,0,0,1-1.608-.186,3.393,3.393,0,0,1-2.289-3.583,3.362,3.362,0,0,1,3.136-2.97c.286-.018.574-.014.862-.014Z" transform="translate(2145.195 -663.409)" fill="#ffc73c"/>
        <path id="Path_199392" data-name="Path 199392" d="M-2473.425-137.456c0-2.878,0-5.756,0-8.634,0-2.014.021-4.028.038-6.042a3.56,3.56,0,0,1,.064-.76.786.786,0,0,1,.765-.612.8.8,0,0,1,.851.493,1.936,1.936,0,0,1,.119.65c.015.607.006,1.215,0,1.823,0,.48-.015.959-.015,1.439q-.014,12.95-.026,25.9a5.841,5.841,0,0,1-.048.955.882.882,0,0,1-.852.768.911.911,0,0,1-.906-.824,7.352,7.352,0,0,1-.017-.862q0-7.147,0-14.293Z" transform="translate(2685.897 280.75)"/>
        <path id="Path_199393" data-name="Path 199393" d="M-1989.783,1933.341a62.3,62.3,0,0,1,6.172-25.347,7.816,7.816,0,0,1,.5-.928.87.87,0,0,1,1.1-.294.849.849,0,0,1,.47.957,3.129,3.129,0,0,1-.278.709,59.706,59.706,0,0,0-4.606,12.882,59.524,59.524,0,0,0-1.549,12.06c-.024.958,0,1.917-.007,2.876a5.752,5.752,0,0,1-.016.766.839.839,0,0,1-.844.764.871.871,0,0,1-.893-.714,3.31,3.31,0,0,1-.05-.668C-1989.786,1935.316-1989.783,1934.228-1989.783,1933.341Z" transform="translate(2292.087 -1680.586)" fill="#686bea"/>
        <path id="Path_199394" data-name="Path 199394" d="M-650.807-594q-4.747,0-9.494,0a4.875,4.875,0,0,1-.859-.045.867.867,0,0,1-.753-.862.893.893,0,0,1,.824-.9,4.976,4.976,0,0,1,.67-.018q9.686,0,19.372,0a4.678,4.678,0,0,1,.764.032.9.9,0,0,1,.761.863.9.9,0,0,1-.742.88,4.623,4.623,0,0,1-.858.049Q-645.964-594-650.807-594Z" transform="translate(961.283 701.851)"/>
        <g id="Group_52291" data-name="Group 52291" transform="translate(225.356 15.507)">
          <path id="Path_199381" data-name="Path 199381" d="M-1903.992-2092.932a21.93,21.93,0,0,1-13.917-5.944,26.759,26.759,0,0,1-8.137-14.363,6.155,6.155,0,0,1,3.512-7.052,15.871,15.871,0,0,1,1.7-.649,2.195,2.195,0,0,1,2.638.795,30.39,30.39,0,0,1,3.719,5.91c.028.058.055.115.08.175a2.145,2.145,0,0,1-.507,2.543c-.34.337-.7.655-1.037,1a1.953,1.953,0,0,0-.317,2.758,7.2,7.2,0,0,0,.939,1.207,20.926,20.926,0,0,0,5.615,4.278,5.4,5.4,0,0,0,1.254.451,1.783,1.783,0,0,0,2.007-.773,2.822,2.822,0,0,1,.163-.237,1.874,1.874,0,0,1,2.135-.677,13.681,13.681,0,0,1,1.446.508c1.522.664,3.034,1.352,4.55,2.032a2.781,2.781,0,0,1,.339.178,1.869,1.869,0,0,1,.867,2.061,10.871,10.871,0,0,1-1.091,2.958,5.072,5.072,0,0,1-4.142,2.729C-1902.781-2092.99-1903.387-2092.97-1903.992-2092.932Zm-14.306-11.221a.56.56,0,0,0-.616.705,1.7,1.7,0,0,0,.3.477,13.32,13.32,0,0,0,4.867,3.6,1.759,1.759,0,0,0,.359.124.573.573,0,0,0,.6-.372.516.516,0,0,0-.167-.6,4.146,4.146,0,0,0-.585-.316,12.439,12.439,0,0,1-4.1-3.06,4.518,4.518,0,0,0-.393-.415A1.1,1.1,0,0,0-1918.3-2104.154Z" transform="translate(1939.555 2138.421)" fill="#686bea"/>
          <path id="Path_199382" data-name="Path 199382" d="M-2031.941-2260.858c.177-.293-.007-.486-.075-.68a36.609,36.609,0,0,1-1.623-6.305c-.031-.189-.05-.381-.091-.568a2.2,2.2,0,0,1,.428-1.793,19.516,19.516,0,0,0,3.362-12.829,20.028,20.028,0,0,0-6.826-13.636,6.771,6.771,0,0,1-.568-.514.879.879,0,0,1-.048-1.144.905.905,0,0,1,1.128-.223,3.635,3.635,0,0,1,.608.465,21.63,21.63,0,0,1,7.069,12.024,21.636,21.636,0,0,1-2.956,16.464,2.565,2.565,0,0,1-.154.243,1.152,1.152,0,0,0-.216.983,34.12,34.12,0,0,0,1.963,7.2c.212.535.447,1.06.659,1.595a1.691,1.691,0,0,1,.14.549.875.875,0,0,1-1.021.873,3.474,3.474,0,0,1-.63-.227q-3.9-1.608-7.8-3.22a2.625,2.625,0,0,1-.352-.152,1.19,1.19,0,0,0-1.262.044,20.1,20.1,0,0,1-5.6,1.933,21.636,21.636,0,0,1-19.155-5.263,21.048,21.048,0,0,1-7-13.091,21.452,21.452,0,0,1,5.5-18.185,21.341,21.341,0,0,1,12.922-6.936,21.636,21.636,0,0,1,12.195,1.567,4.9,4.9,0,0,1,.768.388.882.882,0,0,1,.291,1.107.828.828,0,0,1-.955.466,4.418,4.418,0,0,1-.8-.3,19.258,19.258,0,0,0-6.093-1.61,19.609,19.609,0,0,0-9.853,1.5,20.082,20.082,0,0,0-12.177,15.328,20.285,20.285,0,0,0,15.694,23.18,19.826,19.826,0,0,0,13.6-1.793c1.209-.613,1.209-.617,2.5-.08q2.876,1.2,5.752,2.4C-2032.394-2261.009-2032.161-2260.937-2031.941-2260.858Z" transform="translate(2078.564 2312.098)" fill="#686bea"/>
          <path id="Path_199396" data-name="Path 199396" d="M-2186.436-2481.288a.861.861,0,0,1-.622.869c-.3.1-.617.161-.924.247a24.429,24.429,0,0,0-14.025,10.182c-.267.4-.5.815-.763,1.216a.849.849,0,0,1-.828.377.844.844,0,0,1-.757-1.093,4.265,4.265,0,0,1,.435-.847,26.071,26.071,0,0,1,9.084-8.882,25.031,25.031,0,0,1,6.606-2.748,4.37,4.37,0,0,1,.938-.166A.836.836,0,0,1-2186.436-2481.288Z" transform="translate(2204.397 2482.133)" fill="#686bea"/>
        </g>
        <path id="Path_199398" data-name="Path 199398" d="M-2111.25-637.162a3.328,3.328,0,0,1-3.326-3.348,3.332,3.332,0,0,1,3.344-3.349,3.322,3.322,0,0,1,3.377,3.414A3.324,3.324,0,0,1-2111.25-637.162Z" transform="translate(2344.243 747.573)"/>
        <path id="Path_199399" data-name="Path 199399" d="M-2315.387-637.931a3.364,3.364,0,0,1-3.348,3.35,3.353,3.353,0,0,1-3.364-3.424,3.327,3.327,0,0,1,3.389-3.291A3.345,3.345,0,0,1-2315.387-637.931Z" transform="translate(2541.807 745.134)"/>
        <path id="Path_199400" data-name="Path 199400" d="M-1885.846-635.661a3.3,3.3,0,0,1-3.284,3.386,3.312,3.312,0,0,1-3.412-3.371,3.318,3.318,0,0,1,3.348-3.339A3.315,3.315,0,0,1-1885.846-635.661Z" transform="translate(2132.862 742.932)"/>
        <path id="Path_199403" data-name="Path 199403" d="M-2126.522,2013.142c.13-.673.278-1.458.434-2.24q.769-3.855,1.543-7.709a6.92,6.92,0,0,1,.221-.931.869.869,0,0,1,1.087-.542.778.778,0,0,1,.6.77,5.218,5.218,0,0,1-.119.948q-.922,4.655-1.855,9.308c-.05.251-.1.5-.163.75-.152.591-.5.861-1.011.8S-2126.558,2013.861-2126.522,2013.142Z" transform="translate(2422.267 -1771.026)" fill="#686bea"/>
        <g id="Group_52290" data-name="Group 52290" transform="translate(98.325 142.819)">
          <path id="Path_199376" data-name="Path 199376" d="M-3901.658,186.971c.317,1.721.616,3.387.931,5.05.28,1.475.548,2.953.876,4.417a1.791,1.791,0,0,1-.854,2.209,1.569,1.569,0,0,0-.19.165v.824a16.324,16.324,0,0,1-.376,3.521c-.048.218-.111.433-.158.651a3.06,3.06,0,0,1-2.548,2.419,7.712,7.712,0,0,1-3.047-.07,14.268,14.268,0,0,1-4.408-1.562,2.285,2.285,0,0,1-.25-.141.919.919,0,0,1-.321-1.181.875.875,0,0,1,1.146-.388c.3.12.575.279.864.417a11.8,11.8,0,0,0,4.6,1.228,3.333,3.333,0,0,0,1.5-.225,1.037,1.037,0,0,0,.635-.673c.113-.394.2-.8.309-1.233-.212-.1-.375-.188-.539-.266a4.137,4.137,0,0,1-1.506-1.162.889.889,0,0,1,.5-1.438.931.931,0,0,1,.8.227c.271.21.47.526.869.6a2.17,2.17,0,0,0,.142-1.214,3.554,3.554,0,0,0-.083-.568,1.058,1.058,0,0,1,.4-1.023c.216-.185.458-.339.739-.544-.265-1.422-.537-2.858-.8-4.3-.258-1.412-.508-2.826-.776-4.318a3.715,3.715,0,0,0-.551.212,5.351,5.351,0,0,1-3.026.752c-.479-.019-.959-.019-1.438-.029a1.615,1.615,0,0,0-1.746,1.06,1.646,1.646,0,0,1-.173.342.9.9,0,0,1-1.408.1,4.424,4.424,0,0,1-.262-.4,3.823,3.823,0,0,0-1.475-1.192,1.289,1.289,0,0,0-.933-.087A2.2,2.2,0,0,0-3915.78,192a2.8,2.8,0,0,0,1.688,1.846c.119.045.247.073.361.128a.9.9,0,0,1,.524.748,1.883,1.883,0,0,1,0,.287c-.055,1.405-.076,2.813-.179,4.214a12.123,12.123,0,0,1-.4,2.355,4.645,4.645,0,0,1-2.652,3.107,10.44,10.44,0,0,1-9.089.018,9.664,9.664,0,0,1-4.928-5.508,10.576,10.576,0,0,1-.73-4.223c.008-.25,0-.5,0-.7-.21-.213-.405-.132-.584-.107a7.95,7.95,0,0,1-9.062-6.03,9.6,9.6,0,0,1,.909-7.152,12.879,12.879,0,0,1,8.774-6.57,6.893,6.893,0,0,1,2.857-.072,5.78,5.78,0,0,1,3.389,1.837c.149.166.3.332.449.495.016.018.055.015.215.054a6.511,6.511,0,0,1,.429-.54,16.194,16.194,0,0,1,9.723-4.935,13.283,13.283,0,0,1,5.232.242,10.17,10.17,0,0,1,1.357.468,4.821,4.821,0,0,1,2.154,1.694,12.889,12.889,0,0,1,2.219,4.307,1.847,1.847,0,0,0,.258.159,4.592,4.592,0,0,1,2.92,4.344,5.636,5.636,0,0,1-1.019,3.53C-3901.17,186.316-3901.406,186.619-3901.658,186.971Zm-35.86-1.847a3.483,3.483,0,0,0,1.435,2.8,1.837,1.837,0,0,0,.419.225.547.547,0,0,0,.59-.216.543.543,0,0,0,.006-.628,2.427,2.427,0,0,0-.355-.318,2.334,2.334,0,0,1-.845-2.311,4.2,4.2,0,0,1,.828-1.916,9.556,9.556,0,0,1,1.888-1.9,4.6,4.6,0,0,0,.512-.432.557.557,0,0,0-.026-.707.548.548,0,0,0-.612-.143,1.2,1.2,0,0,0-.25.138,9.852,9.852,0,0,0-2.926,3.125A5.418,5.418,0,0,0-3937.518,185.124Zm31.076-9.313a1.133,1.133,0,0,0-.034-.26,3.656,3.656,0,0,0-2.1-1.946.591.591,0,0,0-.438.1.5.5,0,0,0-.04.814,5.714,5.714,0,0,1,1.7,1.623.2.2,0,0,0,.078.053.464.464,0,0,0,.535,0A1.863,1.863,0,0,0-3906.442,175.811Z" transform="translate(3984.848 -171.101)"/>
          <path id="Path_199379" data-name="Path 199379" d="M-4324.635,1618.931a117.9,117.9,0,0,0-.976,12.326,3.08,3.08,0,0,0,.507.171c.879.143,1.758.318,2.644.394,1.561.134,3.126.205,4.69.3.191.012.385,0,.574.031a.858.858,0,0,1,.761.944.826.826,0,0,1-.773.826,5.019,5.019,0,0,1-.671.012,53.89,53.89,0,0,1-5.383-.337,1.874,1.874,0,0,0-.117.366,69.071,69.071,0,0,0-.355,7.951,40.747,40.747,0,0,0,.584,6.01,5.571,5.571,0,0,0,.2.838.574.574,0,0,0,.6.457,1.777,1.777,0,0,0,.167-.407,11.085,11.085,0,0,0,.12-1.142c.085-1.853.158-3.707.242-5.56a5.272,5.272,0,0,1,.1-.95.863.863,0,0,1,.838-.662.909.909,0,0,1,.877.746,4.168,4.168,0,0,1,.007.765c-.058,1.789-.129,3.578-.179,5.367a11.635,11.635,0,0,0,.25,2.86c.075.333.112.7.487.853a.549.549,0,0,0,.418-.5,5.268,5.268,0,0,0,.046-.669q.1-3.741.189-7.481c.006-.256,0-.514.027-.766a.9.9,0,0,1,.888-.839.856.856,0,0,1,.856.851c.025.318.009.639.006.959-.016,1.759-.05,3.517-.046,5.276a18.633,18.633,0,0,0,.562,3.788.907.907,0,0,0,.128.357.705.705,0,0,0,.345.277c.172.038.292-.122.325-.283a5.567,5.567,0,0,0,.125-.85c.148-2.778.225-5.562.46-8.333.114-1.337.174-2.672.238-4.009.035-.734.027-1.471.064-2.2.185-3.672.367-7.344.573-11.016.129-2.3.277-4.6.458-6.892.2-2.55.435-5.1.682-7.644.19-1.973.41-3.944.642-5.912.353-2.985.792-5.957,1.393-8.9a4.073,4.073,0,0,1,.174-.648.856.856,0,0,1,1-.546.841.841,0,0,1,.723.873,4.382,4.382,0,0,1-.111.756c-.535,2.569-.919,5.161-1.236,7.764q-.491,4.046-.927,8.1c-.179,1.685-.306,3.376-.437,5.066q-.272,3.539-.514,7.081c-.09,1.308-.176,2.617-.232,3.927-.178,4.218-.379,8.435-.5,12.655-.09,3.26-.068,6.524-.089,9.786,0,.312.044.624.071.986.338.011.618.037.9.026q5.944-.237,11.887-.482c1.981-.078,3.963-.144,5.945-.209,4.762-.157,9.526-.3,14.288-.469,4.187-.149,8.373-.323,12.559-.489,1.406-.056,2.812-.12,4.217-.178a2.374,2.374,0,0,1,.478.016.858.858,0,0,1,.763.849.873.873,0,0,1-.707.9,2.947,2.947,0,0,1-.571.055q-5.369.212-10.737.418-7.623.28-15.246.543c-4.6.159-9.206.3-13.809.466-3.036.108-6.071.238-9.107.362a6.008,6.008,0,0,0-.858.075,2.159,2.159,0,0,1-1.5-.178,2.624,2.624,0,0,1-2.119.31,2.614,2.614,0,0,1-1.384-1.481c-1.919.613-2.611.26-3.561-1.619-.231.011-.481.031-.731.033a2.121,2.121,0,0,1-2.017-1.225,5.018,5.018,0,0,1-.437-1.362,37.323,37.323,0,0,1-.622-5.716,68.062,68.062,0,0,1,.306-8.72,6.407,6.407,0,0,0,0-.649c-.23-.254-.543-.205-.814-.278-.216-.058-.438-.095-.653-.155-.643-.179-.845-.428-.828-1.1.021-.8.063-1.6.115-2.4.087-1.308.2-2.615.281-3.923q.346-5.411,1.026-10.789a97.225,97.225,0,0,1,4.05-18.519c.162-.485.338-.966.516-1.445a.867.867,0,0,1,.868-.628.847.847,0,0,1,.868.931,2.8,2.8,0,0,1-.172.644,83.262,83.262,0,0,0-2.949,10.815c-.526,2.569-.967,5.152-1.3,7.753-.082.634-.175,1.267-.241,1.9a.836.836,0,0,0,.569.986,1.87,1.87,0,0,0,1.4.142,1.4,1.4,0,0,1,1.108.124c.836.4,1.679.786,2.517,1.182a2.214,2.214,0,0,1,.415.238.886.886,0,0,1,.211,1.126.869.869,0,0,1-.977.432,3.375,3.375,0,0,1-.532-.216c-.435-.2-.871-.4-1.3-.621a3.5,3.5,0,0,0-1.924-.438A8.148,8.148,0,0,1-4324.635,1618.931Z" transform="translate(4352.643 -1525.862)"/>
          <path id="Path_199380" data-name="Path 199380" d="M-3120.539,350.695c.154.967.149.962-.41,1.629-1.727,2.058-3.477,4.1-5.166,6.185a54.688,54.688,0,0,1-9.617,9.327c-.918.693-1.821,1.409-2.713,2.136a24.073,24.073,0,0,1-4.55,2.83,32.694,32.694,0,0,1-9.812,3.177c-2.629.386-5.214.969-7.818,1.468-.186.036-.366.105-.592.172a2.7,2.7,0,0,0-.04.549c.264,2.06.525,4.121.814,6.178.4,2.88.835,5.757,1.248,8.636q.442,3.085.864,6.172a7.362,7.362,0,0,1,.089,1.05.807.807,0,0,1-.748.845.83.83,0,0,1-.981-.7c-.147-.85-.248-1.708-.368-2.562-.409-2.912-.81-5.825-1.229-8.735-.247-1.708-.535-3.409-.78-5.117-.264-1.835-.5-3.673-.749-5.51-.021-.152-.068-.3-.1-.446a1.231,1.231,0,0,0-.311-.076c-.824.047-1.647.1-2.514.159a5.059,5.059,0,0,0,.019,1.644,9.54,9.54,0,0,1,.113,1.334.837.837,0,0,1-.98.811.818.818,0,0,1-.679-.468,1.234,1.234,0,0,1-.11-.365,16.619,16.619,0,0,1-.049-5.724,1.046,1.046,0,0,1,.307-.682.907.907,0,0,1,.98-.181.835.835,0,0,1,.566.809c0,.249,0,.5,0,.809a6.412,6.412,0,0,0,.667.055,28.313,28.313,0,0,0,5.513-.676c2.279-.5,4.576-.9,6.878-1.275a31.239,31.239,0,0,0,12.374-4.933c.4-.265.761-.583,1.135-.882q2.4-1.915,4.8-3.834a44.533,44.533,0,0,0,6.279-6.317q2.739-3.275,5.469-6.557c.079-.1.142-.205.244-.353-.609-1.044-1.229-2.082-1.824-3.134s-1.174-2.127-1.751-3.2c-.562-1.04-1.109-2.09-1.673-3.129-.577-1.063-1.167-2.119-1.789-3.244-.235.175-.442.306-.623.466-1.964,1.741-3.8,3.611-5.638,5.483-2.44,2.488-4.918,4.939-7.4,7.387a28.641,28.641,0,0,1-4.479,3.445,4.608,4.608,0,0,1-2.157.732,56.266,56.266,0,0,1-8.815.15,3.721,3.721,0,0,1-.756-.119.828.828,0,0,1-.607-.957.829.829,0,0,1,.752-.75,4.457,4.457,0,0,1,.86.022,34.16,34.16,0,0,0,5.749.031c.637-.045,1.277-.064,1.916-.089a4.629,4.629,0,0,0,2.594-.858,36.6,36.6,0,0,0,4.183-3.359c2.721-2.616,5.364-5.308,7.977-8.03,1.817-1.893,3.732-3.684,5.709-5.409.652-.569.663-.566,1.525-.421.105-.276.222-.564.326-.856a5.781,5.781,0,0,1,1.745-2.593,3.211,3.211,0,0,1,2.4-.751,3.054,3.054,0,0,1,1.587.739,5.035,5.035,0,0,0,.487-.422q2.087-2.319,4.364-4.451c.35-.326.634-.721.978-1.053a16.891,16.891,0,0,1,1.494-1.34,2.4,2.4,0,0,1,2.008-.4,1.947,1.947,0,0,1,1.575,1.812,2.507,2.507,0,0,1-.254,1.4,16.253,16.253,0,0,1-1.065,1.816c-.94,1.292-1.932,2.547-2.9,3.818-.189.248-.367.5-.589.809a6.857,6.857,0,0,1,.632.336,3.306,3.306,0,0,1,.828.636,5.6,5.6,0,0,0,1.155,1.123,2.649,2.649,0,0,1,1.112,1.836,1.819,1.819,0,0,0,.428.932,2.731,2.731,0,0,1,.316,3.062,5.861,5.861,0,0,1-.979,1.409,33.436,33.436,0,0,1-2.4,2.34c-1.376,1.195-2.8,2.333-4.2,3.5C-3119.971,350.213-3120.238,350.441-3120.539,350.695Zm3.927-13.827c-.245-.131-.353-.195-.465-.249a.852.852,0,0,0-1.119.217c-.483.552-.986,1.086-1.472,1.635-.147.167-.253.371-.4.534a.907.907,0,0,1-1.139.143.893.893,0,0,1-.322-1.1,1.994,1.994,0,0,1,.3-.487c.514-.61,1.039-1.211,1.561-1.814.208-.24.435-.464.628-.715.41-.531.793-1.082,1.2-1.612.881-1.137,1.788-2.254,2.653-3.4.46-.611.867-1.264,1.274-1.914a3.409,3.409,0,0,0,.335-.787.321.321,0,0,0-.4-.388,1.327,1.327,0,0,0-.517.226c-.364.309-.709.642-1.043.985-.446.458-.843.966-1.314,1.394-1.35,1.228-2.6,2.549-3.826,3.9a23.249,23.249,0,0,1-2.788,2.628,24.8,24.8,0,0,0-3.082,2.874c-.145.161-.275.336-.417.509.465.849.908,1.661,1.353,2.472q1.8,3.276,3.607,6.548a7.177,7.177,0,0,0,.452.636c.6-.478,1.16-.9,1.7-1.351,1.4-1.167,2.8-2.329,4.172-3.526a14.963,14.963,0,0,0,1.453-1.526,4.5,4.5,0,0,0,.545-.893.891.891,0,0,0-.046-.831.543.543,0,0,0-.792-.282c-.361.2-.7.444-1.047.673-.186.123-.356.274-.551.38a.853.853,0,0,1-1.114-.234.9.9,0,0,1,.052-1.144,2.142,2.142,0,0,1,.436-.373c.618-.393,1.246-.771,1.867-1.16.041-.026.053-.1.1-.188l-.488-.413a12.489,12.489,0,0,0-2.213,1.573,3.825,3.825,0,0,1-.526.41.769.769,0,0,1-.9-.075.845.845,0,0,1-.115-1.333c.475-.47,1.013-.877,1.532-1.3C-3117.244,337.311-3116.982,337.137-3116.612,336.868Zm-10.17-.425a11.858,11.858,0,0,0,2.652-2.393,1.035,1.035,0,0,0-1.3.13,3.341,3.341,0,0,0-1.166,1.581C-3126.673,335.957-3126.709,336.165-3126.782,336.443Z" transform="translate(3248.735 -317.714)"/>
          <path id="Path_199389" data-name="Path 199389" d="M-4151.56,923.691c.417.088.754.171,1.1.228a22.181,22.181,0,0,0,6.012.33,11.43,11.43,0,0,0,5.538-1.959,3.555,3.555,0,0,1,.4-.264.891.891,0,0,1,1.127.212.856.856,0,0,1-.035,1.142,3.538,3.538,0,0,1-.593.482,12.715,12.715,0,0,1-5.5,2.091,22.629,22.629,0,0,1-7.44-.3,3.53,3.53,0,0,0-2.044.171,39.866,39.866,0,0,0-17.457,13.482,53.427,53.427,0,0,0-6.23,10.875c-.152.352-.287.714-.469,1.05a.89.89,0,0,1-1.146.416.857.857,0,0,1-.491-1.03,3.022,3.022,0,0,1,.19-.541,53.355,53.355,0,0,1,8.918-14.58,40.812,40.812,0,0,1,15.429-11.1,1.276,1.276,0,0,1,.177-.071.824.824,0,0,0,.673-.906c.014-.67.066-1.341.129-2.008a.852.852,0,0,1,.844-.766.921.921,0,0,1,.859.645,1.839,1.839,0,0,1,.05.475c0,.383-.022.767-.031,1.15C-4151.564,923.138-4151.56,923.36-4151.56,923.691Z" transform="translate(4211.114 -884.68)"/>
          <path id="Path_199390" data-name="Path 199390" d="M-2908.733,2789.515q-10.5,0-21.006,0a6.5,6.5,0,0,1-.957-.035.841.841,0,0,1-.74-.865.864.864,0,0,1,.727-.882,2.825,2.825,0,0,1,.572-.041c.607-.005,1.215,0,1.822,0q20.239,0,40.477,0a8.849,8.849,0,0,1,1.053.025.915.915,0,0,1,.85.884.9.9,0,0,1-.836.895,7.925,7.925,0,0,1-.958.021Q-2898.23,2789.516-2908.733,2789.515Z" transform="translate(3023.581 -2662.134)"/>
          <path id="Path_199391" data-name="Path 199391" d="M-2980.881,1983.033c0,1.917.011,3.515-.008,5.113a4.525,4.525,0,0,1-.179,1.131.865.865,0,0,1-.946.633.891.891,0,0,1-.771-.946c.036-.541.156-1.078.161-1.618.015-1.342.031-2.687-.038-4.027-.123-2.394-.3-4.785-.472-7.176q-.2-2.821-.455-5.639c-.213-2.387-.445-4.773-.677-7.159q-.315-3.245-.649-6.488c-.158-1.558-.325-3.115-.487-4.672a5.367,5.367,0,0,1-.06-.668.886.886,0,0,1,.811-.908.851.851,0,0,1,.927.66,3.173,3.173,0,0,1,.1.565q.32,3.1.632,6.2c.23,2.257.467,4.514.687,6.773.165,1.686.311,3.374.459,5.061q.257,2.913.5,5.828c.077.924.146,1.848.2,2.774C-2981.04,1980.1-2980.954,1981.724-2980.881,1983.033Z" transform="translate(3075.015 -1865.218)"/>
          <path id="Path_199395" data-name="Path 199395" d="M-4839.62,2830.247h10.455c.256,0,.513-.01.767.015a.872.872,0,0,1,.823.888.888.888,0,0,1-.772.849,4.541,4.541,0,0,1-.67.025q-10.693,0-21.389,0a3.932,3.932,0,0,1-.668-.031.858.858,0,0,1-.715-.887.824.824,0,0,1,.758-.839,7.929,7.929,0,0,1,.862-.019Z" transform="translate(4851.791 -2702.651)"/>
          <path id="Path_199397" data-name="Path 199397" d="M-3767.768,1996.869a73.593,73.593,0,0,1,1.242-13.23,3.957,3.957,0,0,1,.158-.649.859.859,0,0,1,1.069-.566.861.861,0,0,1,.645.941c-.046.443-.147.88-.225,1.32a72.527,72.527,0,0,0-.927,7.692c-.163,2.36-.183,4.719-.119,7.081.019.669.082,1.338.115,2.007a2.9,2.9,0,0,1-.016.667.847.847,0,0,1-.816.681.8.8,0,0,1-.872-.6,4.462,4.462,0,0,1-.126-.946C-3767.69,1999.8-3767.726,1998.336-3767.768,1996.869Z" transform="translate(3819.783 -1895.479)"/>
          <path id="Path_199401" data-name="Path 199401" d="M-3100.872,1114.174a1.681,1.681,0,0,0-.2.241,2.809,2.809,0,0,1-3.262,1.18,4.233,4.233,0,0,1-1.38-.645,7.22,7.22,0,0,1-1.657-1.714,1.257,1.257,0,0,1-.215-.615.784.784,0,0,1,.449-.782.783.783,0,0,1,.9.054,4.008,4.008,0,0,1,.466.477c.308.323.6.66.927.967a2.332,2.332,0,0,0,1.2.564,1.016,1.016,0,0,0,.736-.134.521.521,0,0,0,.288-.555c-.026-.157-.1-.308-.108-.464a.861.861,0,0,1,1.121-.922,2.848,2.848,0,0,1,.438.187c.232.106.461.22.7.32a1.545,1.545,0,0,0,1.551-.109,4.193,4.193,0,0,1,1.582-.655,3.87,3.87,0,0,1,2.756.538,1.717,1.717,0,0,1,.372.3.88.88,0,0,1,.063,1.141.868.868,0,0,1-1.026.282,4.1,4.1,0,0,1-.42-.226,2.1,2.1,0,0,0-2.187.039c-.138.081-.274.164-.414.241a2.9,2.9,0,0,1-2.213.346A3.251,3.251,0,0,0-3100.872,1114.174Z" transform="translate(3191.285 -1066.382)"/>
          <path id="Path_199402" data-name="Path 199402" d="M-3300.116,931.921q-2.726-.1-5.452-.195a2.166,2.166,0,0,1-.474-.048.858.858,0,0,1-.629-.949.812.812,0,0,1,.731-.76,2.717,2.717,0,0,1,.477-.017q5.262.166,10.523.338a4.866,4.866,0,0,1,.761.071.843.843,0,0,1,.694.8.891.891,0,0,1-.7.9,3.542,3.542,0,0,1-.762.028q-2.583-.091-5.165-.193Z" transform="translate(3380.816 -893.536)"/>
          <path id="Path_199404" data-name="Path 199404" d="M-3106.725,2300.1a26.111,26.111,0,0,1-.845,6.625,4.148,4.148,0,0,1-.2.638.872.872,0,0,1-1.11.49.871.871,0,0,1-.582-.979c.044-.282.132-.558.2-.836a23.815,23.815,0,0,0,.582-8.543,3.534,3.534,0,0,1-.036-.667.894.894,0,0,1,.8-.822.872.872,0,0,1,.925.664,5.214,5.214,0,0,1,.145.944C-3106.792,2298.439-3106.763,2299.268-3106.725,2300.1Z" transform="translate(3193.073 -2194.04)"/>
          <path id="Path_199405" data-name="Path 199405" d="M-3639.55,2101.58c0,.891,0,1.782,0,2.673a2.629,2.629,0,0,1-.067.659.853.853,0,0,1-.862.621.834.834,0,0,1-.794-.583,1.817,1.817,0,0,1-.093-.559q-.01-2.769,0-5.537a1.988,1.988,0,0,1,.077-.563.836.836,0,0,1,.864-.612.826.826,0,0,1,.826.661,3.154,3.154,0,0,1,.052.663C-3639.547,2099.862-3639.55,2100.721-3639.55,2101.58Z" transform="translate(3699.454 -2005.235)"/>
          <path id="Path_199407" data-name="Path 199407" d="M-4157.938,1716.039a3.444,3.444,0,0,1,.325.4.839.839,0,0,1-.109,1.132.868.868,0,0,1-1.063.116,8.575,8.575,0,0,1-1.163-.993.765.765,0,0,1-.088-.983,2.365,2.365,0,0,0,.229-1.841c-.106-.76-.173-1.524-.251-2.287a4.735,4.735,0,0,1-.033-.67.829.829,0,0,1,.748-.849.844.844,0,0,1,.985.7c.069.344.1.7.137,1.045.1.89.207,1.778.278,2.67C-4157.906,1714.943-4157.938,1715.419-4157.938,1716.039Z" transform="translate(4193.362 -1636.206)"/>
        </g>
        <g id="Group_52289" data-name="Group 52289" transform="translate(262.694)">
          <path id="Path_199373" data-name="Path 199373" d="M-1359.783-2791.062a4.326,4.326,0,0,1-1.967-.987h-.907a3.466,3.466,0,0,1-3.5-3.161,4.229,4.229,0,0,1,.842-3.069c.153-.2.319-.4.514-.642-.087-.148-.169-.311-.271-.46a3.059,3.059,0,0,1-.155-3.273,3.878,3.878,0,0,1,1.667-1.675,8.324,8.324,0,0,1,3.581-.966,11.821,11.821,0,0,1,6.037,1.239,17.315,17.315,0,0,1,4.4,3.042c1.526,1.459,1.886,1.472,3.758,1.5a8.739,8.739,0,0,1,1.149.051,8.746,8.746,0,0,1,5.928,3.542,6.645,6.645,0,0,1,1.224,4.348,12.018,12.018,0,0,1-.684,3.372c-.1.3-.206.6-.317.927.1.133.18.268.284.383a4.075,4.075,0,0,1,.364,4.828,7.141,7.141,0,0,1-1.638,1.99c-.122.1-.246.2-.375.305a4.131,4.131,0,0,0,.036,1.246c.2,1.78.4,3.558.6,5.337a2.554,2.554,0,0,1,.015.666.876.876,0,0,1-.793.724.9.9,0,0,1-.9-.59,2.008,2.008,0,0,1-.1-.466q-.379-3.384-.75-6.769c-.01-.1-.009-.192-.024-.287a1.173,1.173,0,0,1,.761-1.37,3.769,3.769,0,0,0,1.862-2.34,2.184,2.184,0,0,0-1.518-2.8.972.972,0,0,0-1.076.157c-.317.331-.595.673-.383,1.19a1.015,1.015,0,0,1,.062.554.873.873,0,0,1-1.266.606,1.733,1.733,0,0,1-.578-.485,15.025,15.025,0,0,1-2.921-6.4c-.047-.278-.119-.552-.184-.849-.289-.017-.542-.036-.794-.045a36.944,36.944,0,0,1-5.532-.535c-.345-.066-.7-.093-1.046-.14a3.452,3.452,0,0,0-1.787.229c-.532.216-1.055.455-1.582.683a6.215,6.215,0,0,0-.355,1.4,28.638,28.638,0,0,0-.429,6.5c.037,1.117.119,2.235.239,3.346a6.547,6.547,0,0,0,.394,1.574,3.4,3.4,0,0,0,3.128,2.3,5.964,5.964,0,0,0,4.137-1.222c.232-.17.443-.372.688-.52a.853.853,0,0,1,1.119.209.9.9,0,0,1,.029,1.073,3.338,3.338,0,0,1-.555.525,8.323,8.323,0,0,1-3.049,1.515,1.2,1.2,0,0,0-.3.814c-.275,2.092-.542,4.185-.814,6.277-.078.6-.13,1.212-.265,1.8a1.23,1.23,0,0,0,.29,1.146c.365.445.7.914,1.064,1.36a50.721,50.721,0,0,0,4.631,4.871,1.685,1.685,0,0,0,.385-.075,16.429,16.429,0,0,0,8.929-9.654c.064-.18.111-.366.172-.548a.644.644,0,0,0-.052-.636.8.8,0,0,1-.128-.255.865.865,0,0,1,.909-1.135,3.8,3.8,0,0,1,.833.206,80.44,80.44,0,0,1,19,9.039,41.146,41.146,0,0,1,12.2,12.31,72.618,72.618,0,0,1,5.587,10.486c1.239,2.807,2.418,5.641,3.634,8.459.417.969.868,1.923,1.3,2.886a25.052,25.052,0,0,1,1.828,5.34,13.42,13.42,0,0,1-4.369,13.185,19.6,19.6,0,0,1-7.934,4.318,16.24,16.24,0,0,1-3.58.614,54.737,54.737,0,0,1-7.956-.054,46.138,46.138,0,0,1-10.25-1.935c-1.308-.412-2.577-.944-3.873-1.392a1.493,1.493,0,0,1-.907-.931c-.281-.017-.532-.041-.784-.046a42.97,42.97,0,0,1-9.931-1.523q-1.392-.361-2.778-.746a7.593,7.593,0,0,1-2.034-.832,2.683,2.683,0,0,1-1.332-3.176c.021-.093.025-.188.045-.338a2.922,2.922,0,0,1-1.121-1.992,2.73,2.73,0,0,1,.93-1.981c-.747-1.7-.606-2.341.736-3.429a4.2,4.2,0,0,0,0-.534,1.977,1.977,0,0,1,1.35-1.995,2.9,2.9,0,0,1,1.79-.139c.681.171,1.356.37,2.034.552.238.064.479.112.851.2-.213-.363-.375-.593-.489-.846a8.3,8.3,0,0,1-.609-1.5,2.144,2.144,0,0,1,.858-2.287.98.98,0,0,1,1.164-.1c.139.079.282.151.423.226a83.127,83.127,0,0,0,9.791,4.4c.257.1.507.287.857.168.017-.138.032-.293.056-.446.117-.741.432-1.011,1.152-.973.319.017.638.09.955.082a47.41,47.41,0,0,1,6.018.47,71.916,71.916,0,0,0,9.391.306,6.446,6.446,0,0,0,.766-.041c.5-.074.669-.354.547-.9-.188-.842-.392-1.68-.582-2.522-.2-.9-.394-1.811-.6-2.714a2.968,2.968,0,0,0-.226-.629.529.529,0,0,0-.655-.253.558.558,0,0,0-.378.595c.016.125.065.247.093.371q.486,2.2.968,4.4a2.09,2.09,0,0,1,.027.329.5.5,0,0,1-.534.225c-1.886-.025-3.773-.038-5.658-.1-1.021-.032-2.041-.145-3.061-.228a4.776,4.776,0,0,1-.523-.105c.661-2.4,1.489-4.715,2.148-7.057-.213-.377-.584-.434-.9-.573a101.738,101.738,0,0,0-11.864-4.388c-3.7-1.127-7.46-2.04-11.253-2.807-.182-.036-.371-.045-.5-.061a1.249,1.249,0,0,0-.129.1.3.3,0,0,0-.051.081.945.945,0,0,0-.067.179q-2.072,10.347-4.951,20.5c-.954,3.349-1.995,6.673-2.995,10.009a.461.461,0,0,0,0,.11c.2.332.592.34.91.447q5.952,2.008,12.016,3.649c3.332.9,6.681,1.736,10.023,2.6.3.079.615.132.959.2l.758-1.679c1.8.442,3.525.891,5.264,1.287a36.242,36.242,0,0,0,5.213.781c1.781.14,3.566.229,5.406.344a7.942,7.942,0,0,1,1.1,4.08,10.76,10.76,0,0,1-.716,4.132,8.074,8.074,0,0,1-2.5,3.449c.27.278.539.188.775.188q4.175.012,8.349.005,4.606,0,9.213,0a4.967,4.967,0,0,1,.86.039.887.887,0,0,1,.709.9.854.854,0,0,1-.79.821,9.222,9.222,0,0,1-.959.022h-27.254q-16.506,0-33.012,0c-.379,0-.757.016-1.193.027-.033.234-.073.413-.079.593-.012.32,0,.64,0,.96q0,32.82,0,65.64a9.3,9.3,0,0,1-.095,1.72,5.644,5.644,0,0,1-5.69,4.731c-7.133.016-14.267.006-21.4,0a3.07,3.07,0,0,1-.573-.033.829.829,0,0,1-.7-.9.81.81,0,0,1,.741-.853,7.674,7.674,0,0,1,.958-.032q10.172,0,20.344,0a8.06,8.06,0,0,0,1.148-.053,3.983,3.983,0,0,0,3.479-3.761c.018-.254.009-.511.009-.767q0-35.075-.009-70.151c0-1.758-.128-3.515-.2-5.272-.07-1.6-.18-3.194-.214-4.792a2.445,2.445,0,0,0-.96-1.893,3.88,3.88,0,0,0-2.447-.971c-.352-.011-.7-.01-1.056-.01h-23.32a6.854,6.854,0,0,1-.862-.02.907.907,0,0,1-.772-.854.855.855,0,0,1,.83-.879c.254-.024.511-.014.767-.014q3.311,0,6.622,0c.222,0,.444-.019.7-.031a3.313,3.313,0,0,0,.224-.511c.9-3.533,1.957-7.019,3.01-10.507a6.691,6.691,0,0,1,.746-1.649,42.389,42.389,0,0,0,5.162-11.921c.088-.34.183-.68.242-1.026a.558.558,0,0,0-.453-.633.544.544,0,0,0-.616.343,6.842,6.842,0,0,0-.212.736,40.991,40.991,0,0,1-4.239,10.453,7.355,7.355,0,0,1-.9,1.237c-2.309,2.571-4.758,5.007-7.2,7.45q-3.6,3.6-7.153,7.231c-.847.869-1.635,1.8-2.4,2.742a1.472,1.472,0,0,1-1.321.6c-.958-.042-1.918-.052-2.877-.073-.158,0-.317,0-.529,0-.269.391-.55.775-.806,1.175a42.665,42.665,0,0,0-3.859,7.918c-.33.866-.639,1.74-.974,2.6a4.769,4.769,0,0,1-1.467,2.1,2.893,2.893,0,0,1-2.978.468,2.174,2.174,0,0,1-1.315-3.106,16.078,16.078,0,0,1,.813-1.409c.283-.5.561-1,.826-1.512a1.787,1.787,0,0,0,.059-.479,5.543,5.543,0,0,0-.591.5,8.324,8.324,0,0,0-2.18,5.783c.007.32.026.639.019.959a7.866,7.866,0,0,1-.061.957,2.472,2.472,0,0,1-3.476,2.045c-.325-.125-.628-.309-.972-.481a2.841,2.841,0,0,1-2.387.153,3.173,3.173,0,0,1-1.594-1.8c-2.146-.526-3.1-2.035-3.5-4.027-.025-.125-.04-.251-.066-.414-.152-.089-.308-.194-.476-.278a3.456,3.456,0,0,1-1.934-3,7.159,7.159,0,0,1,.281-2.561,11.391,11.391,0,0,1,2.98-5.178c.633-.63,1.3-1.226,1.965-1.849a3.052,3.052,0,0,1-.09-.91,3.2,3.2,0,0,1,.435-.948c2.718-4.642,5.724-9.093,8.879-13.445a333.824,333.824,0,0,1,26.2-31.97c1.614-1.729,3.331-3.362,5.014-5.025.454-.449.953-.853,1.442-1.266a11.1,11.1,0,0,1,2.517-1.558c3.707-1.733,7.406-3.481,11.079-5.284,2.812-1.38,5.58-2.849,8.368-4.279.114-.059.226-.121.341-.176a.967.967,0,0,1,1.157.125c.088.078.191.14.363.264.28-2.111.548-4.13.81-6.149a1.317,1.317,0,0,0-.052-.325l-.84-.13a5.093,5.093,0,0,1-4.087-3.1,8.738,8.738,0,0,1-.708-2.972q-.152-1.959-.191-3.928a28.4,28.4,0,0,1,.495-5.821C-1359.822-2790.588-1359.814-2790.779-1359.783-2791.062Zm-57.643,104.941a.954.954,0,0,0,.014-.3,5.964,5.964,0,0,1-.168-2.283,12.6,12.6,0,0,1,2.686-6.765,1.483,1.483,0,0,1,.124-.146.931.931,0,0,1,1.214-.158.868.868,0,0,1,.223,1.192c-.094.166-.223.312-.326.473-.309.485-.632.962-.914,1.463a10.156,10.156,0,0,0-1.238,4.2,3.7,3.7,0,0,0,.145,1.517,1.771,1.771,0,0,0,.988,1.113.669.669,0,0,0,1.034-.474,3.907,3.907,0,0,0,.08-.854c.013-.639-.026-1.281.018-1.918a9.822,9.822,0,0,1,2.911-6.3,3.447,3.447,0,0,1,1.016-.7,1.73,1.73,0,0,1,2.384,1.093,2.323,2.323,0,0,1-.1,1.776c-.3.633-.651,1.243-.993,1.856-.2.363-.45.7-.64,1.068-.221.429-.041.75.427.838a1.176,1.176,0,0,0,.906-.225,2.241,2.241,0,0,0,.781-.954c.208-.467.4-.942.572-1.422a52.211,52.211,0,0,1,4.5-9.726,2.723,2.723,0,0,0,.156-.4c-.207-.03-.355-.06-.505-.07-1.117-.077-2.233-.147-3.35-.226q-4.88-.342-9.759-.687c-.8-.055-1.6-.093-2.394-.141a1.18,1.18,0,0,0-.822.175,18.285,18.285,0,0,0-4.322,4.047,9.495,9.495,0,0,0-1.648,4.151,2.565,2.565,0,0,0,.343,1.842,1.656,1.656,0,0,0,.423.322c.287-.883.533-1.709.825-2.519a8.66,8.66,0,0,1,3.523-4.3,3.764,3.764,0,0,1,.858-.417.844.844,0,0,1,1.042.448.909.909,0,0,1-.287,1.113c-.154.113-.337.184-.5.285a7.067,7.067,0,0,0-2.745,3,12.483,12.483,0,0,0-1.025,3.484,3.466,3.466,0,0,0,.657,2.719,1.881,1.881,0,0,0,.392.28c-.011-.227-.013-.354-.023-.48a9.519,9.519,0,0,1,3.391-8.272,2.586,2.586,0,0,1,.544-.387.906.906,0,0,1,1.119.264.849.849,0,0,1-.089,1.138c-.2.208-.436.375-.648.569a7.868,7.868,0,0,0-1.984,8.783,3.4,3.4,0,0,0,.342.683A.6.6,0,0,0-1417.426-2686.122Zm87.122-35.944c-1.531-.6-2.961-1.153-4.38-1.729-2.281-.925-4.5-1.983-6.7-3.09a.156.156,0,0,0-.092-.022c-.024,0-.043.037-.121.11a2.558,2.558,0,0,0,.5,1.064,10.779,10.779,0,0,0,3.635,3.349,7.256,7.256,0,0,1,.66.388.843.843,0,0,1,.291,1.1.851.851,0,0,1-1.048.448,4.651,4.651,0,0,1-.708-.288,53.751,53.751,0,0,0-6.783-2.358,4.094,4.094,0,0,0-1.133-.067c-.063,0-.166.109-.18.181a.332.332,0,0,0,.1.244.942.942,0,0,0,.309.219c.916.373,1.818.8,2.759,1.091,1.919.6,3.86,1.135,5.792,1.7a4.629,4.629,0,0,1,.727.234.858.858,0,0,1,.436,1.056.894.894,0,0,1-.881.609,2.46,2.46,0,0,1-.466-.1,71.146,71.146,0,0,1-8.5-2.651,2.809,2.809,0,0,0-.448-.169,1.031,1.031,0,0,0-1.17.4,1.527,1.527,0,0,0,1.032.828c.929.341,1.862.674,2.808.965,2.109.649,4.269,1.094,6.426,1.549a5.219,5.219,0,0,1,.92.256.852.852,0,0,1,.465.874.889.889,0,0,1-.751.764,1.874,1.874,0,0,1-.57-.036,66.6,66.6,0,0,1-9.171-2.39,1.355,1.355,0,0,0-.456-.138,1.924,1.924,0,0,0-.738.12.572.572,0,0,0-.12,1.008,3.455,3.455,0,0,0,.821.481,8.5,8.5,0,0,0,1.28.393c1.434.322,2.872.622,4.308.93a3.8,3.8,0,0,1,.559.127.89.89,0,0,1,.562,1,.846.846,0,0,1-.9.7,4.908,4.908,0,0,1-.853-.12c-1.312-.279-2.622-.57-3.933-.852-.337-.073-.678-.13-.989-.19a.486.486,0,0,0-.044.729,2.56,2.56,0,0,0,.733.594,6.447,6.447,0,0,0,1.254.464c1.761.461,3.519.94,5.3,1.335a33.546,33.546,0,0,0,7.221.862c.277,0,.578.088.871-.177A102.182,102.182,0,0,0-1330.3-2722.066Zm-73.155,6.019a5.455,5.455,0,0,0,.669-.151,3.171,3.171,0,0,0,2.056-2.12,9.035,9.035,0,0,0,.4-2.355c.04-.573.1-1.146.158-1.717a2.942,2.942,0,0,1,1.815-2.514,8.65,8.65,0,0,0,3.845-3.628c.426-.713.813-1.45,1.243-2.16.463-.765.92-1.538,1.443-2.26a5.758,5.758,0,0,1,2.655-2.13,1.536,1.536,0,0,0,.336-.179.533.533,0,0,0,.2-.594.519.519,0,0,0-.5-.374,2.031,2.031,0,0,0-.557.118,5.154,5.154,0,0,0-2.006,1.277,16.192,16.192,0,0,0-1.519,1.845c-.49.708-.881,1.483-1.325,2.222-.493.821-.97,1.656-1.505,2.449a6.453,6.453,0,0,1-2.565,2.254c-.2.1-.394.211-.59.319a3.887,3.887,0,0,0-2.071,2.947c-.1.662-.155,1.332-.205,2a8.408,8.408,0,0,1-.367,2.167,2.077,2.077,0,0,1-1.187,1.3,1.44,1.44,0,0,1-1.447-.175.513.513,0,0,0-.743.2.545.545,0,0,0,.111.7A2.123,2.123,0,0,0-1403.46-2716.047Zm79.138-41.722a2.381,2.381,0,0,0-.455.305.41.41,0,0,0-.023.534,3.554,3.554,0,0,0,.537.541,63.841,63.841,0,0,1,12.535,14.3,4.367,4.367,0,0,0,.33.47.524.524,0,0,0,.685.144.558.558,0,0,0,.223-.748,5.641,5.641,0,0,0-.388-.659,64.623,64.623,0,0,0-12.471-14.232c-.17-.145-.336-.3-.519-.425A3.593,3.593,0,0,0-1324.321-2757.769Zm-.169,47.45c.149.108.278.2.4.292a3.019,3.019,0,0,0,1.293.591,2.948,2.948,0,0,0,1.322-.143,3.249,3.249,0,0,1,2.815.54,1.312,1.312,0,0,0,.489.278.8.8,0,0,0,.516-.144.477.477,0,0,0,.095-.609,1.621,1.621,0,0,0-.311-.356,4.291,4.291,0,0,0-1.515-.8,4.071,4.071,0,0,0-2.454,0,1.668,1.668,0,0,1-1.883-.588c-.19-.216-.365-.445-.564-.652-.4-.416-.848-.318-1.017.217-.048.151-.054.316-.111.463a.6.6,0,0,1-.778.364,5.119,5.119,0,0,1-.5-.273.545.545,0,0,0-.783.295.556.556,0,0,0,.146.615,1.838,1.838,0,0,0,2.2.347C-1324.912-2710-1324.716-2710.163-1324.491-2710.319Zm25.676-10.561c0-.241,0-.273,0-.3a.612.612,0,0,0-.486-.623.559.559,0,0,0-.627.459c-.054.217-.084.438-.12.659a12.886,12.886,0,0,1-3.18,6.64,3.945,3.945,0,0,0-.364.44.545.545,0,0,0,.1.7.549.549,0,0,0,.7.021,4.212,4.212,0,0,0,.475-.47,13.565,13.565,0,0,0,2.968-5.3C-1299.113-2719.456-1298.958-2720.272-1298.815-2720.88Zm-70.516,6.639a3.717,3.717,0,0,0,1.2-3.515,2.552,2.552,0,0,0-.122-.558.562.562,0,0,0-.531-.333.513.513,0,0,0-.472.407,4.886,4.886,0,0,0-.009.761,3.859,3.859,0,0,1-.143,1.421,1.54,1.54,0,0,1-.768.933c-.808.421-.807.437-.411,1.191.015.028.032.055.046.084a1.23,1.23,0,0,1-.389,1.686,3.191,3.191,0,0,0-.4.25.767.767,0,0,0-.217.4.547.547,0,0,0,.763.563,2.392,2.392,0,0,0,1.575-2.2A10.376,10.376,0,0,0-1369.332-2714.24Zm5.336-40.9c.033-.393-.2-.681-.493-.665a2.482,2.482,0,0,0-.648.137,12.45,12.45,0,0,0-4.26,2.492,3.42,3.42,0,0,0-.4.406.507.507,0,0,0,0,.7.542.542,0,0,0,.689.126,4.13,4.13,0,0,0,.522-.413,11.753,11.753,0,0,1,3.769-2.212,2.2,2.2,0,0,0,.529-.21A1.524,1.524,0,0,0-1364-2755.145Zm47.291,58.322a1.59,1.59,0,0,0-.394.261,2.1,2.1,0,0,0-.265.5,5.2,5.2,0,0,1-2.346,2.418,5.3,5.3,0,0,0-.5.269.536.536,0,0,0-.2.669.573.573,0,0,0,.634.31,2.012,2.012,0,0,0,.447-.159,6.283,6.283,0,0,0,3.1-3.229,1.682,1.682,0,0,0,.137-.451C-1316.066-2696.5-1316.343-2696.792-1316.7-2696.823Zm-48.04-53.763a2.112,2.112,0,0,0,.478-.272c.684-.622,1.351-1.262,2.023-1.9a1.4,1.4,0,0,0,.185-.218.512.512,0,0,0-.077-.692.515.515,0,0,0-.693-.07,2.257,2.257,0,0,0-.3.241q-.943.881-1.881,1.769a1.681,1.681,0,0,0-.3.366C-1365.488-2751.048-1365.22-2750.608-1364.745-2750.585Z" transform="translate(1426.232 2805.319)" fill="#3f327a"/>
          <path id="Path_199406" data-name="Path 199406" d="M9.069-2412.966a4.063,4.063,0,0,1,.556-.1.9.9,0,0,1,.979,1.024,1.546,1.546,0,0,1-1.864,1.332,1.837,1.837,0,0,1-1.355-1.238,2.876,2.876,0,0,1-.15-1.321c.115-1.015.206-2.033.316-3.049a1.936,1.936,0,0,1,.131-.553.843.843,0,0,1,.944-.491.809.809,0,0,1,.7.684,2.234,2.234,0,0,1,0,.569c-.081.858-.172,1.716-.254,2.574C9.056-2413.381,9.069-2413.222,9.069-2412.966Z" transform="translate(61.568 2435.991)" fill="#3f327a"/>
          <path id="Path_199408" data-name="Path 199408" d="M134.7-2132.636a6.3,6.3,0,0,1,.643-2.533,2.427,2.427,0,0,1,.308-.482.846.846,0,0,1,1.048-.192.849.849,0,0,1,.459.961,2.266,2.266,0,0,1-.212.53,4.094,4.094,0,0,0-.364,2.52,4.523,4.523,0,0,1,.08.568.835.835,0,0,1-.635.851.85.85,0,0,1-1.035-.481A4.818,4.818,0,0,1,134.7-2132.636Z" transform="translate(-59.796 2168.066)" fill="#3f327a"/>
          <path id="Path_199409" data-name="Path 199409" d="M31-2283.825a3.728,3.728,0,0,1-.564-.123.839.839,0,0,1-.562-.9.861.861,0,0,1,.63-.761.5.5,0,0,1,.185-.043,1.47,1.47,0,0,0,1.4-.649.675.675,0,0,1,.316-.2.851.851,0,0,1,.9.151.8.8,0,0,1,.259.866,1.718,1.718,0,0,1-.308.583A3,3,0,0,1,31-2283.825Z" transform="translate(40.004 2311.455)" fill="#3f327a"/>
          <path id="Path_199410" data-name="Path 199410" d="M200.815-2281.733a.831.831,0,0,1-.414.739,15.153,15.153,0,0,1-1.371.661.837.837,0,0,1-1.051-.418.815.815,0,0,1,.229-1.1,7.434,7.434,0,0,1,1.542-.729A.826.826,0,0,1,200.815-2281.733Z" transform="translate(-119.932 2307.703)" fill="#3f327a"/>
          <path id="Path_199411" data-name="Path 199411" d="M337.7-2396.26a2.673,2.673,0,0,1-.292.7.86.86,0,0,1-1.482-.16,8.146,8.146,0,0,1-.411-1.05.858.858,0,0,1,.834-1.1A1.482,1.482,0,0,1,337.7-2396.26Z" transform="translate(-250.945 2417.424)" fill="#3f327a"/>
        </g>
        <path id="Path_199412" data-name="Path 199412" d="M-1081.437,29.44c.017-.382.03-.664.043-.947a4.051,4.051,0,0,1,.035-.573.865.865,0,0,1,.894-.707.843.843,0,0,1,.829.777c.029.253.01.511.021.766.008.189.029.377.043.54.269.253.572.17.849.171,2.238.007,4.476,0,6.713,0a7.054,7.054,0,0,1,.766.017.855.855,0,0,1,.782.825.881.881,0,0,1-.706.9c-.276.053-.561.057-.864.086-.029.892-.05,1.744-.086,2.595a8.9,8.9,0,0,1-.5,2.533,14.544,14.544,0,0,1-.975,2.287,13.625,13.625,0,0,1-1.465,2.125c-.55.657-1.208,1.224-1.864,1.876a1.728,1.728,0,0,0,.322.261,7.471,7.471,0,0,0,2.756.753,2.946,2.946,0,0,1,.569.069.923.923,0,0,1,.688.925.887.887,0,0,1-.72.8,2.981,2.981,0,0,1-.76.006,9.863,9.863,0,0,1-3.9-1.223c-.278-.152-.556-.305-.847-.465-.311.13-.6.254-.9.374a12.6,12.6,0,0,1-6.485.833,2.085,2.085,0,0,1-.553-.138.883.883,0,0,1-.536-.925.9.9,0,0,1,.861-.763,4.094,4.094,0,0,1,.569.066,10.863,10.863,0,0,0,4.913-.532c.147-.053.287-.126.5-.223-.127-.182-.215-.334-.328-.465a9.961,9.961,0,0,1-1.526-2.313,2.793,2.793,0,0,1-.224-.628.857.857,0,0,1,.48-.951.9.9,0,0,1,1.108.3,4.6,4.6,0,0,1,.306.595,8.043,8.043,0,0,0,1.551,2.176,4.2,4.2,0,0,0,.428.341,10.4,10.4,0,0,0,4.68-10.206,2.481,2.481,0,0,0-.511-.115c-.671-.015-1.343-.007-2.014-.007q-5.659,0-11.317,0a5.751,5.751,0,0,1-.861-.033.887.887,0,0,1-.734-.879.871.871,0,0,1,.768-.844,6.492,6.492,0,0,1,.766-.02q2.685,0,5.371,0C-1082.184,29.469-1081.868,29.452-1081.437,29.44Z" transform="translate(1368.262 108.702)"/>
        <path id="Path_199413" data-name="Path 199413" d="M-1801.357-98.159l-7.213-.14c-.156.3-.3.541-.42.8-.61,1.3-1.212,2.609-1.821,3.912a3.9,3.9,0,0,1-.356.674.875.875,0,0,1-1.043.236.878.878,0,0,1-.493-.95,5.057,5.057,0,0,1,.34-.894q1.7-3.6,3.413-7.19,1.519-3.206,3.031-6.416a4.186,4.186,0,0,1,.3-.6.865.865,0,0,1,1.454,0,4.752,4.752,0,0,1,.4.764q2.094,4.631,4.182,9.264c.659,1.456,1.328,2.908,1.991,4.362a5.447,5.447,0,0,1,.3.7.87.87,0,0,1-.415.983.889.889,0,0,1-1.126-.213,3.745,3.745,0,0,1-.365-.67c-.578-1.247-1.148-2.5-1.724-3.746C-1801.061-97.571-1801.207-97.852-1801.357-98.159Zm-3.492-7.7a1.577,1.577,0,0,0-.242.29q-1.209,2.494-2.4,5a1.61,1.61,0,0,0-.073.428,31.762,31.762,0,0,0,5.265.051A46.673,46.673,0,0,0-1804.849-105.856Z" transform="translate(2056.873 238.5)"/>
      </g>
    </g>
  </g>
</svg>
