<svg xmlns="http://www.w3.org/2000/svg" width="101.773" height="26.673" viewBox="0 0 101.773 26.673" className="cf-multicollab-svgicon">
    <g id="Group_866" data-name="Group 866" transform="translate(3757.513 -2758.5)">
        <g id="Group_366" data-name="Group 366" transform="translate(-3757 2759)">
        <path id="Subtraction_28" data-name="Subtraction 28" d="M9.459,25.176h0l0-3.7L8.6,21.3A10.758,10.758,0,0,1,10.751,0,10.835,10.835,0,0,1,15.5,1.095a10.76,10.76,0,0,1,1.712,18.272l-7.752,5.81Zm1.3-20.687h0A6.269,6.269,0,0,0,9.5,16.9l.5.1v2.157l4.517-3.386a6.267,6.267,0,0,0-1-10.647,6.342,6.342,0,0,0-2.766-.638Z" transform="translate(0 0)" fill="#1e1e1e" stroke="rgba(0,0,0,0)" stroke-miterlimit="10" stroke-width="1"/>
        <g id="Group_257" data-name="Group 257" transform="translate(7.233 10.171)">
            <circle id="Ellipse_10" data-name="Ellipse 10" cx="0.699" cy="0.699" r="0.699" fill="#1e1e1e"/>
            <circle id="Ellipse_11" data-name="Ellipse 11" cx="0.699" cy="0.699" r="0.699" transform="translate(2.827)" fill="#1e1e1e"/>
            <circle id="Ellipse_12" data-name="Ellipse 12" cx="0.699" cy="0.699" r="0.699" transform="translate(5.653)" fill="#1e1e1e"/>
        </g>
        <path id="Path_9909" data-name="Path 9909" d="M14.678,10.354V.25a.589.589,0,0,0-.587-.587h-1.2a.618.618,0,0,0-.543.352L10.126,4.509c-.073.132-.1.206-.162.206s-.088-.073-.162-.206L7.585.015a.618.618,0,0,0-.543-.352h-1.2A.589.589,0,0,0,5.25.25v10.1a.224.224,0,0,0,.25.22H6.983a.278.278,0,0,0,.235-.294V3.451c0-.1.015-.147.044-.147s.044.044.073.088L8.76,6.2a.53.53,0,0,0,.47.25h1.483a.53.53,0,0,0,.47-.25l1.41-2.805c.029-.044.059-.088.073-.088s.044.044.044.147v6.829a.278.278,0,0,0,.235.294h1.483A.224.224,0,0,0,14.678,10.354Zm8.841-.073V2.6a.308.308,0,0,0-.294-.308H21.875a.308.308,0,0,0-.294.308V8.474a4.148,4.148,0,0,1-1.66.587,1.273,1.273,0,0,1-.911-.264c-.279-.25-.338-.676-.338-1.41V2.6a.308.308,0,0,0-.294-.308H17.028a.308.308,0,0,0-.294.308V7.387a3.711,3.711,0,0,0,.734,2.673,2.5,2.5,0,0,0,1.806.617,3.787,3.787,0,0,0,2.306-.734v.338a.3.3,0,0,0,.294.294h1.351A.3.3,0,0,0,23.52,10.281Zm3.921-.015V-.308A.282.282,0,0,0,27.162-.6H25.8a.3.3,0,0,0-.294.294V10.266a.308.308,0,0,0,.294.308h1.366A.3.3,0,0,0,27.441,10.266Zm6.609.059V9.4c0-.147-.117-.22-.308-.22h-.778c-.529,0-.573-.088-.573-.822V3.745h1.322a.3.3,0,0,0,.294-.294V2.585a.3.3,0,0,0-.294-.294H32.39V.779a.212.212,0,0,0-.235-.22H32.1L30.73.793a.316.316,0,0,0-.294.294v1.2h-1.38a.3.3,0,0,0-.294.294v.661a.316.316,0,0,0,.294.294l1.38.206V8.357c0,1.968.676,2.335,2.335,2.335a6.067,6.067,0,0,0,1-.1C33.961,10.56,34.049,10.471,34.049,10.325ZM37.4.9V-.4A.3.3,0,0,0,37.1-.69H35.68a.308.308,0,0,0-.308.294V.9a.308.308,0,0,0,.308.294H37.1A.3.3,0,0,0,37.4.9Zm-.044,9.37V2.585a.3.3,0,0,0-.294-.294H35.709a.3.3,0,0,0-.294.294v7.681a.308.308,0,0,0,.294.308H37.06A.308.308,0,0,0,37.354,10.266Zm7.211-.147V9.164c0-.147-.117-.22-.264-.22h-.044a12.626,12.626,0,0,1-1.895.1c-.69,0-1.41-.4-1.41-1.924V5.757c0-1.527.72-1.924,1.41-1.924a12.626,12.626,0,0,1,1.895.1H44.3c.147,0,.264-.073.264-.22V2.761c0-.235-.059-.323-.308-.382a8.054,8.054,0,0,0-1.895-.191c-1.909,0-3.348,1.175-3.348,3.569V7.123c0,2.394,1.439,3.569,3.348,3.569a8.054,8.054,0,0,0,1.895-.191C44.506,10.442,44.565,10.354,44.565,10.119Zm8.386-3.084V5.845a3.513,3.513,0,1,0-7.02,0v1.19a3.513,3.513,0,1,0,7.02,0Zm-1.939,0c0,1.2-.543,1.983-1.571,1.983s-1.571-.778-1.571-1.983V5.845c0-1.2.543-1.983,1.571-1.983s1.571.778,1.571,1.983Zm5.61,3.231V-.308A.282.282,0,0,0,56.343-.6H54.977a.3.3,0,0,0-.294.294V10.266a.308.308,0,0,0,.294.308h1.366A.3.3,0,0,0,56.622,10.266Zm3.995,0V-.308A.282.282,0,0,0,60.338-.6H58.972a.3.3,0,0,0-.294.294V10.266a.308.308,0,0,0,.294.308h1.366A.3.3,0,0,0,60.617,10.266Zm8.121.015V4.994c0-1.88-1.146-2.805-3.231-2.805a12.669,12.669,0,0,0-2.453.235c-.191.044-.279.147-.279.308v.94c0,.206.117.25.264.25h.073A23.185,23.185,0,0,1,65.507,3.8c.866,0,1.292.235,1.292,1.19V5.64h-.925c-2.555,0-3.583.866-3.583,2.541v.059a2.242,2.242,0,0,0,2.541,2.453,3.98,3.98,0,0,0,2.071-.646v.235a.3.3,0,0,0,.294.294h1.248A.3.3,0,0,0,68.738,10.281ZM66.8,8.738a3.216,3.216,0,0,1-1.5.411c-.734,0-1.057-.191-1.057-.911V8.18c0-.822.294-1.248,1.63-1.248H66.8ZM77.506,7.006V5.875c0-2.291-1.146-3.686-3.51-3.686a11.113,11.113,0,0,0-1.41.1v-2.6A.3.3,0,0,0,72.292-.6H70.941a.3.3,0,0,0-.294.294V9.913c0,.22.059.308.4.4A12.515,12.515,0,0,0,74,10.692C76.36,10.692,77.506,9.3,77.506,7.006Zm-1.939,0c0,1.2-.308,2.1-1.571,2.1a8.548,8.548,0,0,1-1.41-.1V3.877a12.259,12.259,0,0,1,1.41-.1c1.263,0,1.571.9,1.571,2.1Z" transform="translate(23.755 6.935)" fill="#1e1e1e"/>
        </g>
    </g>
</svg>