<svg version="1.2" xmlns="http://www.w3.org/2000/svg" viewBox="0 0 74 27" width="74" height="27">
	<title>multicollab-black-logo-svg</title>
	<style>
		.s0 { opacity: 0;fill: #1e1e1e;stroke: #000000;stroke-miterlimit:10 } 
		.s1 { fill: #1e1e1e } 
	</style>
	<g id="Group_866">
		<g id="Group_366">
			<path id="Subtraction_28" fill-rule="evenodd" class="s0" d="m-18 25.7v-3.7l-0.9-0.2c-2.6-0.5-4.9-2-6.5-4.2-1.6-2.1-2.3-4.8-2-7.4 0.2-2.7 1.5-5.1 3.4-6.9 2-1.8 4.6-2.8 7.3-2.8q0.6 0 1.2 0.1 0.6 0 1.2 0.2 0.6 0.1 1.2 0.3 0.6 0.2 1.1 0.5c1.7 0.8 3.1 2 4.1 3.5 1.1 1.6 1.7 3.3 1.9 5.2 0.2 1.8-0.1 3.6-0.9 5.3-0.7 1.7-1.9 3.2-3.4 4.3 0 0-7.7 5.8-7.7 5.8zm1.3-20.7c-1.6 0-3.1 0.6-4.2 1.6-1.2 1-1.9 2.5-2.1 4-0.1 1.6 0.3 3.1 1.2 4.4 0.9 1.2 2.3 2.1 3.8 2.4l0.5 0.1v2.2l4.5-3.4c0.9-0.7 1.6-1.5 2-2.5 0.4-1 0.6-2.1 0.5-3.1-0.1-1.1-0.5-2.1-1.1-3-0.6-0.9-1.4-1.6-2.4-2.1q-0.3-0.1-0.6-0.3-0.4-0.1-0.7-0.2-0.4 0-0.7-0.1-0.4 0-0.7 0z"/>
			<g id="Group_257">
				<path id="Ellipse_10" class="s1" d="m-19.6 12.1c-0.3 0-0.7-0.3-0.7-0.7 0-0.4 0.4-0.7 0.7-0.7 0.4 0 0.7 0.3 0.7 0.7 0 0.4-0.3 0.7-0.7 0.7z"/>
				<path id="Ellipse_11" class="s1" d="m-16.7 12.1c-0.4 0-0.7-0.3-0.7-0.7 0-0.4 0.3-0.7 0.7-0.7 0.4 0 0.7 0.3 0.7 0.7 0 0.4-0.3 0.7-0.7 0.7z"/>
				<path id="Ellipse_12" class="s1" d="m-13.9 12.1c-0.4 0-0.7-0.3-0.7-0.7 0-0.4 0.3-0.7 0.7-0.7 0.4 0 0.7 0.3 0.7 0.7 0 0.4-0.3 0.7-0.7 0.7z"/>
			</g>
			<path id="Path_9909" fill-rule="evenodd" class="s1" d="m10.9 17.9q0 0 0 0.1-0.1 0-0.1 0-0.1 0-0.1 0h-1.5q0 0-0.1 0 0 0-0.1-0.1 0 0 0-0.1 0 0 0-0.1v-6.8q0-0.2-0.1-0.2 0 0.1 0 0.1l-1.4 2.8q-0.1 0.1-0.1 0.1-0.1 0.1-0.2 0.1 0 0.1-0.1 0.1 0 0-0.1 0h-1.5q-0.1 0-0.1 0-0.1 0-0.2-0.1 0 0-0.1-0.1 0 0-0.1-0.1l-1.4-2.8q0 0-0.1-0.1 0 0 0 0.2v6.8q0 0.1 0 0.1 0 0.1-0.1 0.1 0 0-0.1 0.1 0 0 0 0h-1.5q-0.1 0-0.1 0-0.1 0-0.1 0 0-0.1-0.1-0.1 0-0.1 0-0.1v-10.1q0-0.1 0.1-0.2 0-0.1 0.1-0.2 0.1-0.1 0.2-0.2 0.1 0 0.2 0h1.2q0.1 0 0.2 0 0.1 0.1 0.1 0.1 0.1 0 0.2 0.1 0 0.1 0.1 0.1l2.2 4.5c0 0.2 0.1 0.3 0.1 0.3 0.1 0 0.1-0.1 0.2-0.3l2.2-4.5q0.1 0 0.1-0.1 0.1-0.1 0.1-0.1 0.1 0 0.2-0.1 0.1 0 0.2 0h1.2q0.1 0 0.2 0 0.1 0.1 0.2 0.2 0.1 0.1 0.1 0.2 0 0.1 0 0.2v10.1q0 0 0 0.1zm8.9-0.1q-0.1 0.1-0.1 0.1 0 0.1-0.1 0.1 0 0-0.1 0h-1.4q0 0-0.1 0 0 0-0.1-0.1 0 0 0-0.1-0.1 0-0.1-0.1v-0.3q-0.2 0.2-0.5 0.3-0.3 0.1-0.5 0.2-0.3 0.1-0.6 0.2-0.3 0-0.7 0-0.2 0-0.4 0-0.3 0-0.5-0.1-0.3-0.1-0.5-0.2-0.2-0.1-0.4-0.3-0.2-0.3-0.3-0.6-0.2-0.3-0.3-0.7-0.1-0.3-0.1-0.7 0-0.3 0-0.7v-4.8q0 0 0-0.1 0 0 0.1-0.1 0 0 0.1 0 0-0.1 0.1-0.1h1.3q0.1 0 0.2 0.1 0 0 0.1 0 0 0.1 0 0.1 0 0.1 0 0.1v4.8c0 0.8 0.1 1.2 0.4 1.4q0.1 0.1 0.2 0.2 0.1 0 0.2 0.1 0.1 0 0.2 0 0.2 0 0.3 0 0.2 0 0.4-0.1 0.2 0 0.5-0.1 0.2-0.1 0.4-0.2 0.2-0.1 0.3-0.2v-5.9q0 0 0.1-0.1 0 0 0-0.1 0.1 0 0.1 0 0.1-0.1 0.1-0.1h1.4q0.1 0 0.1 0.1 0.1 0 0.1 0 0 0.1 0.1 0.1 0 0.1 0 0.1v7.7q0 0.1 0 0.1zm3.9 0q0 0.1-0.1 0.1 0 0.1-0.1 0.1 0 0-0.1 0h-1.3q-0.1 0-0.1 0-0.1 0-0.1-0.1-0.1 0-0.1-0.1 0 0 0-0.1v-10.6q0 0 0-0.1 0 0 0.1-0.1 0 0 0.1 0 0-0.1 0.1-0.1h1.3q0.1 0 0.1 0.1 0.1 0 0.1 0 0.1 0.1 0.1 0.1 0 0.1 0 0.1v10.6q0 0.1 0 0.1zm6.3 0.2q-0.1 0-0.2 0.1-0.1 0-0.3 0-0.1 0-0.2 0-0.1 0-0.3 0c-1.6 0-2.3-0.3-2.3-2.3v-4.6l-1.4-0.2q0 0-0.1-0.1 0 0-0.1 0 0-0.1 0-0.1-0.1-0.1-0.1-0.1v-0.7q0 0 0.1-0.1 0 0 0-0.1 0.1 0 0.1-0.1 0.1 0 0.1 0h1.4v-1.2q0 0 0-0.1 0.1 0 0.1-0.1 0 0 0.1 0 0-0.1 0.1-0.1l1.4-0.2q0.1 0 0.1 0 0.1 0 0.1 0 0 0.1 0 0.1 0.1 0.1 0.1 0.1v1.5h1.3q0 0 0.1 0 0 0.1 0.1 0.1 0 0.1 0.1 0.1 0 0.1 0 0.1v0.9q0 0 0 0.1-0.1 0.1-0.1 0.1-0.1 0-0.1 0.1-0.1 0-0.1 0h-1.3v4.6c0 0.7 0 0.8 0.5 0.8h0.8q0.3 0 0.3 0.2v1q0 0.2-0.3 0.2zm3.6-9.6q0 0.1 0 0.1-0.1 0.1-0.1 0.1-0.1 0-0.1 0h-1.5q0 0-0.1 0 0 0-0.1-0.1 0 0 0-0.1-0.1 0-0.1-0.1v-1.3q0 0 0.1-0.1 0 0 0-0.1 0.1 0 0.1 0 0.1-0.1 0.1-0.1h1.5q0 0 0.1 0.1 0 0 0.1 0 0 0.1 0 0.1 0.1 0.1 0.1 0.1v1.3q0 0.1-0.1 0.1zm0 9.4q0 0.1-0.1 0.1 0 0.1-0.1 0.1 0 0-0.1 0h-1.3q-0.1 0-0.1 0-0.1 0-0.1-0.1-0.1 0-0.1-0.1 0 0 0-0.1v-7.7q0 0 0-0.1 0 0 0.1-0.1 0 0 0.1-0.1 0 0 0.1 0h1.3q0.1 0 0.1 0 0.1 0.1 0.1 0.1 0.1 0.1 0.1 0.1 0 0.1 0 0.1v7.7q0 0.1 0 0.1zm6.9 0.1q-0.2 0.1-0.4 0.1-0.3 0.1-0.5 0.1-0.3 0-0.5 0-0.2 0-0.5 0c-1.9 0-3.3-1.1-3.3-3.5v-1.4c0-2.4 1.4-3.6 3.3-3.6q0.3 0 0.5 0 0.2 0 0.5 0.1 0.2 0 0.5 0 0.2 0.1 0.4 0.1c0.3 0.1 0.3 0.2 0.3 0.4v0.9c0 0.2-0.1 0.3-0.2 0.3h-0.1q-0.2-0.1-0.4-0.1-0.3 0-0.5 0-0.3 0-0.5 0-0.2 0-0.5 0c-0.7 0-1.4 0.4-1.4 1.9v1.4c0 1.5 0.7 1.9 1.4 1.9q0.3 0 0.5 0 0.2 0 0.5 0 0.2 0 0.5-0.1 0.2 0 0.4 0h0.1c0.1 0 0.2 0.1 0.2 0.2v1c0 0.2 0 0.3-0.3 0.3zm7.7-0.9c-0.6 0.7-1.5 1.1-2.5 1.1-0.9 0-1.9-0.4-2.5-1.1-0.7-0.6-1-1.6-1-2.5v-1.2c0-1 0.3-1.9 1-2.6 0.6-0.7 1.6-1.1 2.5-1.1 1 0 1.9 0.4 2.5 1.1 0.7 0.7 1.1 1.6 1 2.6v1.2c0.1 0.9-0.3 1.9-1 2.5zm-0.9-3.7c0-1.2-0.6-2-1.6-2-1 0-1.6 0.8-1.6 2v1.2c0 1.2 0.6 2 1.6 2 1 0 1.6-0.8 1.6-2zm5.6 4.5q0 0.1-0.1 0.1 0 0-0.1 0.1 0 0-0.1 0h-1.4q0 0-0.1 0 0 0-0.1-0.1 0 0 0-0.1 0 0 0-0.1v-10.6q0 0 0-0.1 0 0 0-0.1 0.1 0 0.1 0 0.1-0.1 0.1-0.1h1.4q0.1 0 0.1 0.1 0.1 0 0.1 0 0.1 0.1 0.1 0.1 0 0.1 0 0.1v10.6q0 0.1 0 0.1zm4 0q-0.1 0.1-0.1 0.1 0 0-0.1 0.1 0 0-0.1 0h-1.4q0 0-0.1 0 0 0-0.1-0.1 0 0 0-0.1-0.1 0-0.1-0.1v-10.6q0 0 0.1-0.1 0 0 0-0.1 0.1 0 0.1 0 0.1-0.1 0.1-0.1h1.4q0.1 0 0.1 0.1 0.1 0 0.1 0 0 0.1 0.1 0.1 0 0.1 0 0.1v10.6q0 0.1 0 0.1zm8.1 0q0 0.1-0.1 0.1 0 0.1-0.1 0.1 0 0-0.1 0h-1.2q-0.1 0-0.1 0-0.1 0-0.1-0.1-0.1 0-0.1-0.1 0 0 0-0.1v-0.2q-0.3 0.1-0.5 0.2-0.3 0.2-0.5 0.2-0.3 0.1-0.6 0.2-0.2 0-0.5 0-0.5 0.1-1-0.1-0.5-0.1-0.9-0.5-0.3-0.3-0.5-0.8-0.2-0.5-0.1-1v-0.1c0-1.7 1-2.5 3.5-2.5h1v-0.7c0-0.9-0.5-1.2-1.3-1.2q-0.3 0-0.6 0-0.3 0-0.6 0.1-0.3 0-0.6 0-0.3 0-0.6 0.1h-0.1c-0.1 0-0.3-0.1-0.3-0.3v-0.9q0-0.3 0.3-0.3 0.3-0.1 0.6-0.2 0.3 0 0.6 0 0.4-0.1 0.7-0.1 0.3 0 0.6 0c2.1 0 3.2 0.9 3.2 2.8v5.3q0 0.1 0 0.1zm-1.9-3.4h-1c-1.3 0-1.6 0.4-1.6 1.2v0.1c0 0.7 0.3 0.9 1.1 0.9q0.2 0 0.4-0.1 0.2 0 0.3 0 0.2-0.1 0.4-0.2 0.2 0 0.4-0.1zm7.2 3.7q-0.4 0-0.8 0-0.3 0-0.7-0.1-0.4 0-0.8-0.1-0.3-0.1-0.7-0.2c-0.3 0-0.4-0.1-0.4-0.4v-10.2q0 0 0-0.1 0.1 0 0.1-0.1 0 0 0.1 0 0.1-0.1 0.1-0.1h1.4q0 0 0.1 0.1 0 0 0.1 0 0 0.1 0 0.1 0.1 0.1 0.1 0.1v2.6q0.1 0 0.3 0 0.2 0 0.4 0 0.1-0.1 0.3-0.1 0.2 0 0.4 0c2.3 0 3.5 1.4 3.5 3.7v1.1c0 2.3-1.2 3.7-3.5 3.7zm1.5-4.8c0-1.2-0.3-2.1-1.5-2.1q-0.2 0-0.4 0-0.2 0-0.3 0-0.2 0.1-0.4 0.1-0.2 0-0.3 0v5.1q0.1 0.1 0.3 0.1 0.2 0 0.4 0 0.1 0 0.3 0 0.2 0 0.4 0c1.2 0 1.5-0.9 1.5-2.1z"/>
		</g>
	</g>
</svg>