<svg xmlns="http://www.w3.org/2000/svg" xmlns:xlink="http://www.w3.org/1999/xlink" version="1.1" id="Layer_1" x="0px" y="0px" viewBox="0 0 200 41.58" style="enable-background:new 0 0 200 41.58;" xml:space="preserve">
<style type="text/css">
	.st0{fill:#333;}
	.st1{fill-rule:evenodd;clip-rule:evenodd;fill:url(#SVGID_1_);}
	.st2{fill-rule:evenodd;clip-rule:evenodd;fill:#EDE81D;}
	.st3{fill-rule:evenodd;clip-rule:evenodd;fill:#EBE116;}
	.st4{fill-rule:evenodd;clip-rule:evenodd;fill:#C7C930;}
	.st5{fill-rule:evenodd;clip-rule:evenodd;fill:#F4F19C;}
	.st6{fill-rule:evenodd;clip-rule:evenodd;fill:#ED6E26;}
	.st7{fill-rule:evenodd;clip-rule:evenodd;fill:#F48420;}
	.st8{fill-rule:evenodd;clip-rule:evenodd;fill:#77C045;}
	.st9{fill-rule:evenodd;clip-rule:evenodd;fill:#923723;}
	.st10{fill-rule:evenodd;clip-rule:evenodd;fill:#EE5E3F;}
	.st11{fill-rule:evenodd;clip-rule:evenodd;fill:#F79674;}
	.st12{fill-rule:evenodd;clip-rule:evenodd;fill:#FFFFFA;}
	.st13{fill-rule:evenodd;clip-rule:evenodd;fill:#F68722;}
	.st14{fill-rule:evenodd;clip-rule:evenodd;fill:#DBDB25;}
	.st15{fill-rule:evenodd;clip-rule:evenodd;fill:#128241;}
	.st16{fill-rule:evenodd;clip-rule:evenodd;fill:#9A3822;}
	.st17{fill-rule:evenodd;clip-rule:evenodd;fill:#F9F9E0;}
	.st18{fill-rule:evenodd;clip-rule:evenodd;fill:#4F2F19;}
</style>
<g transform="translate(140 -8137.078)">
	<g transform="translate(2050 6510.784)">
		<path class="st0" d="M-2166.24,1659.22v-23.97l-8.93,23.97h-3.02l-8.88-23.83v23.83h-2.93v-26.42h4.9l8.42,23.39l8.42-23.39h4.95    v26.42H-2166.24z"/>
		<path class="st0" d="M-2141.56,1657.87c-1.17,1.09-3.46,1.64-6.86,1.64h-1.67c-3.21,0-5.41-0.56-6.61-1.68    c-1.2-1.12-1.8-3.16-1.8-6.13v-18.9h2.81v19.08c0,2.17,0.38,3.55,1.14,4.16c0.78,0.61,2.46,0.91,5.04,0.91h1.43    c2.3,0,3.78-0.34,4.46-1.02c0.67-0.68,1.01-2.13,1.01-4.34v-18.79h2.81v18.94C-2139.8,1654.78-2140.39,1656.82-2141.56,1657.87z"/>
		<path class="st0" d="M-2134.9,1659.22v-26.42h2.93v23.65h11.94v2.77L-2134.9,1659.22z"/>
		<path class="st0" d="M-2114.53,1635.35v23.86h-2.81v-23.86h-7.79v-2.55h18.52v2.55H-2114.53z"/>
		<path class="st0" d="M-2102.97,1659.22v-26.42h2.81v26.42H-2102.97z"/>
		<path class="st0" d="M-2076.95,1656.7c-1.23,1.68-3.3,2.52-6.2,2.52h-11.69v-26.42h11.77c2.93,0,4.99,0.74,6.16,2.23    c1.17,1.51,1.76,3.84,1.76,7.01v7.04C-2075.15,1652.5-2075.75,1655.05-2076.95,1656.7z M-2078.08,1642.65    c0-2.41-0.32-4.23-0.96-5.47c-0.67-1.22-1.89-1.82-3.65-1.82h-9.22v21.31h8.84c1.87,0,3.17-0.62,3.9-1.86    c0.73-1.26,1.09-3.14,1.09-5.62V1642.65z"/>
		<path class="st0" d="M-2017.91,1635.35v23.86h-2.81v-23.86h-7.79v-2.55h18.52v2.55H-2017.91z"/>
		<path class="st0" d="M-1991.63,1657.87c-1.09,1.09-3.1,1.64-6.03,1.64h-1.51c-3.1,0-5.32-0.41-6.66-1.24    c-1.34-0.83-2.01-2.64-2.01-5.44v-1.9h2.68v1.72c0,1.9,0.34,3.08,1.01,3.54c0.67,0.51,2.15,0.77,4.44,0.77h1.59    c2.29,0,3.73-0.28,4.32-0.84c0.59-0.58,0.88-1.91,0.88-3.98v-0.8c0-1.85-0.42-3.03-1.26-3.54c-0.84-0.51-2.57-0.83-5.2-0.95    c-3.33-0.1-5.52-0.6-6.58-1.5c-1.03-0.9-1.55-2.4-1.55-4.49v-1.02c0-2.87,0.46-4.8,1.38-5.8c0.95-1.02,2.93-1.53,5.95-1.53h1.93    c3.46,0,5.66,0.55,6.58,1.64c0.98,1.14,1.47,3.02,1.47,5.62v0.18h-2.68v-0.8c0-1.6-0.41-2.69-1.22-3.25    c-0.81-0.56-2.21-0.84-4.19-0.84h-1.42c-1.9,0-3.19,0.27-3.86,0.8c-0.67,0.56-1,1.65-1.01,3.28v1.17c0,1.36,0.24,2.36,0.71,2.99    c0.47,0.63,2.28,1.02,5.41,1.17c4.05,0.19,6.47,0.81,7.25,1.86c0.81,1.07,1.21,2.7,1.21,4.89v0.95    C-1990,1654.92-1990.54,1656.82-1991.63,1657.87z"/>
	</g>
	<g transform="translate(2999.115 6461.078)">
		
			<linearGradient id="SVGID_1_" gradientUnits="userSpaceOnUse" x1="-3348.1626" y1="2094.9199" x2="-3348.2646" y2="2095.0247" gradientTransform="matrix(197.2586 0 0 -332.6028 657460.4375 698491.8125)">
			<stop offset="0.301" style="stop-color:#D05093"/>
			<stop offset="0.397" style="stop-color:#BB5B9C"/>
			<stop offset="0.594" style="stop-color:#8775B4"/>
			<stop offset="0.872" style="stop-color:#34A0D9"/>
			<stop offset="0.914" style="stop-color:#2BA7DF"/>
		</linearGradient>
		<path class="st1" d="M-2999.69,1676.01c11.4,0.28-6.21,13.67-6.21,25.15s17.68,16.42,6.21,16.42c-11.47,0-20.79-9.31-20.79-20.78    C-3020.48,1685.32-3011.1,1675.72-2999.69,1676.01z"/>
		<path class="st2" d="M-2999.44,1715.8c10.63,0,19.3-8.67,19.3-19.3c0-10.64-8.67-19.3-19.3-19.3c-10.63,0-19.3,8.67-19.3,19.3    C-3018.74,1707.13-3010.07,1715.8-2999.44,1715.8z"/>
		<path class="st3" d="M-3003.78,1707.88c-1.24-1.93-2.12-4.17-2.12-6.72c0-1.82,0.52-4.22,1.35-6.06c3.38,2.68,7.38,4.89,11.97,5.1    C-2993.44,1703.89-2996.11,1707.99-3003.78,1707.88z"/>
		<path class="st4" d="M-2992.65,1687.41c-0.05-0.02-0.11-0.05-0.19-0.1c-2.29-1.39-4.49-1.85-6.49-1.66    c0.33-0.54,0.68-1.07,1.01-1.61c0.58-0.95,1.13-1.9,1.51-2.68c1.44,0.73,2.83,1.56,4.15,2.49V1687.41z"/>
		<path class="st5" d="M-2993.96,1705.98l2.86,1.05c1.48,0.5,2.62-0.88,2.62-0.88c2.02-2.52,1.72-6.49,1.72-6.49    c1.21-0.28,2.4-0.67,3.54-1.17l0.01,0.01c-0.03,0.26-0.05,0.46-0.09,0.71c0,0.02-0.01,0.03-0.01,0.04l0,0    c-0.64,4.48-3.12,8.5-6.84,11.07l0,0c-2.61,1.81-5.69,2.81-8.87,2.88c-1.25-1.14-2.4-2.26-3.48-3.58    C-2998.52,1709.2-2995.8,1707.83-2993.96,1705.98L-2993.96,1705.98z M-3002.72,1709.34c-0.04-0.05-0.08-0.1-0.11-0.15l0,0    C-3002.82,1709.23-3002.77,1709.28-3002.72,1709.34z"/>
		<path class="st6" d="M-3005.74,1702.98c0.39,0.01,0.76-0.12,3.4-1.2c1.51-0.63,3.24-0.32,4.44,0.79c0.71,0.65,1.6,1.61,2.55,2.66    c-1.73,1.6-4.38,2.72-8.42,2.66C-3004.71,1706.42-3005.45,1704.79-3005.74,1702.98z"/>
		<path class="st7" d="M-2997.64,1714.43c0,0,14.67-1.14,15.6-17.29c0,0,2.11-0.07,3.14,0.22c0,0-0.65,15.94-16.96,19.06l0,0    C-2996.05,1715.92-2996.72,1715.26-2997.64,1714.43L-2997.64,1714.43z"/>
		<path class="st6" d="M-3008.02,1692.48c-1.4,2.88-2.18,9.42,2.28,10.5l0,0c-0.1-0.6-0.15-1.21-0.15-1.82    c0-1.82,0.44-3.67,1.13-5.52l0.21-0.54C-3004.55,1695.09-3006.55,1693.63-3008.02,1692.48z"/>
		<path class="st8" d="M-3003.88,1693.56c0,0-1.18-0.98-4.14-1.08v-0.01c1.55-3.45,4.72-6.43,8.68-6.82c0.01,0.01,0.02,0,0.03,0    C-3002.53,1690.7-3002.71,1691.27-3003.88,1693.56z"/>
		<path class="st9" d="M-3004.55,1695.09c0,0-2-1.47-3.47-2.62c0.32,0,2.82,0.11,4.14,1.08L-3004.55,1695.09z"/>
		<path class="st10" d="M-3003.59,1708.17c0,0-5.64,0.59-8.3,0.29c0.37,0.47,5.23,7.01,14.24,5.97c-1.09-0.99-1.72-1.52-2.5-2.29    c-0.27-0.26-0.54-0.52-0.79-0.78c-0.45-0.45-0.85-0.9-1.21-1.31C-3002.66,1709.46-3003.14,1708.83-3003.59,1708.17    L-3003.59,1708.17z"/>
		<path class="st11" d="M-2999.01,1713.2c-0.02-0.01-0.04-0.03-0.05-0.05c-0.38-0.33-0.7-0.64-1.07-1.01    c-0.27-0.26-0.54-0.52-0.79-0.78c-0.45-0.45-0.85-0.9-1.21-1.31c-0.17-0.2-0.29-0.34-0.38-0.44c-1.96,0.21-4.22,0.19-6.82-0.12    c2.83,2.4,6.43,3.71,10.14,3.7H-2999.01z"/>
		<path class="st12" d="M-3010.98,1711.98c-0.01-0.01-0.02-0.02-0.03-0.02c-0.1-0.07-0.21-0.16-0.31-0.24    c-0.02-0.01-0.04-0.03-0.05-0.04c-0.1-0.08-0.21-0.16-0.31-0.25c-0.02-0.02-0.04-0.04-0.07-0.06c-0.1-0.08-0.21-0.17-0.31-0.26    c-0.01-0.01-0.02-0.02-0.04-0.03c-0.09-0.09-0.19-0.17-0.28-0.26c-0.02-0.02-0.03-0.03-0.05-0.04c-0.1-0.09-0.2-0.18-0.29-0.27    c-0.02-0.02-0.04-0.04-0.07-0.06c-0.1-0.09-0.19-0.19-0.29-0.28c-0.01-0.02-0.03-0.03-0.04-0.04c-0.09-0.09-0.17-0.18-0.26-0.27    c-0.02-0.01-0.03-0.03-0.04-0.04c-0.09-0.09-0.19-0.19-0.28-0.29c-0.02-0.02-0.04-0.04-0.05-0.06c-0.09-0.1-0.18-0.2-0.27-0.3    c-0.02-0.02-0.03-0.03-0.04-0.05c-0.08-0.1-0.17-0.2-0.25-0.3c-0.01-0.01-0.02-0.03-0.03-0.04c-0.09-0.1-0.17-0.21-0.26-0.32    l-0.05-0.07c-0.08-0.1-0.16-0.21-0.25-0.32c-0.01-0.02-0.03-0.04-0.04-0.05c-0.08-0.11-0.15-0.21-0.23-0.32l-0.02-0.02    c-0.08-0.12-0.16-0.23-0.23-0.34c-0.02-0.02-0.03-0.05-0.05-0.07c-0.07-0.11-0.15-0.22-0.22-0.33c-0.01-0.02-0.03-0.04-0.04-0.06    c-0.08-0.11-0.15-0.23-0.22-0.35v-0.01c-0.08-0.12-0.15-0.24-0.22-0.37c-0.01-0.02-0.02-0.04-0.03-0.06    c-0.07-0.12-0.14-0.23-0.2-0.35l-0.03-0.06c-0.07-0.12-0.14-0.25-0.2-0.38l-0.01-0.01c-0.07-0.12-0.12-0.25-0.19-0.38    c-0.01-0.02-0.02-0.04-0.03-0.06c-0.06-0.13-0.12-0.25-0.17-0.37c-0.01-0.02-0.02-0.05-0.03-0.07c-0.06-0.12-0.11-0.26-0.17-0.38    l-0.02-0.03c-0.05-0.12-0.1-0.24-0.15-0.37c-0.01-0.02-0.02-0.04-0.03-0.06c-0.05-0.13-0.1-0.26-0.15-0.39    c-0.01-0.02-0.02-0.05-0.03-0.08c-0.04-0.13-0.09-0.26-0.14-0.39c-0.01-0.01-0.01-0.03-0.02-0.04c-0.04-0.12-0.08-0.25-0.12-0.38    c-0.01-0.02-0.02-0.04-0.02-0.05c-0.04-0.13-0.08-0.26-0.11-0.4c-0.01-0.03-0.02-0.05-0.03-0.08c-0.03-0.13-0.07-0.27-0.11-0.4    c0-0.02,0-0.03-0.01-0.05c-0.03-0.13-0.07-0.26-0.1-0.4c0-0.02,0-0.03-0.01-0.05c-0.03-0.13-0.06-0.27-0.09-0.41    c-0.01-0.03-0.01-0.05-0.02-0.09c-0.03-0.14-0.05-0.27-0.08-0.41c0-0.02-0.01-0.04-0.01-0.07c-0.02-0.13-0.04-0.27-0.07-0.4    c0-0.01-0.01-0.03-0.01-0.04c-0.02-0.14-0.04-0.28-0.06-0.43c-0.01-0.03-0.01-0.05-0.01-0.08c-0.02-0.14-0.03-0.28-0.05-0.42    c0-0.03-0.01-0.06-0.01-0.08c-0.02-0.14-0.03-0.28-0.04-0.42l-0.01-0.03c-0.01-0.15-0.02-0.29-0.03-0.44v-0.08    c-0.01-0.15-0.02-0.29-0.02-0.43c0-0.03-0.01-0.05-0.01-0.08c0-0.15-0.01-0.29-0.01-0.45c0-0.08,0-0.16,0.01-0.25v-0.25    c0-0.03,0.01-0.05,0.01-0.08c0-0.08,0.01-0.16,0.01-0.24v-0.01c0.01-0.07,0.01-0.15,0.01-0.23c0-0.03,0.01-0.05,0.01-0.08    c0.01-0.06,0.01-0.11,0.01-0.17c0.01-0.02,0.01-0.05,0.01-0.07c0.01-0.08,0.01-0.16,0.02-0.24l0.01-0.02    c0.01-0.07,0.01-0.15,0.02-0.22c0.01-0.02,0.01-0.05,0.01-0.08c0.01-0.05,0.01-0.11,0.02-0.17c0.01-0.02,0.01-0.05,0.01-0.08    c0.01-0.08,0.02-0.15,0.03-0.23c0-0.01,0-0.03,0.01-0.04c0.01-0.07,0.02-0.13,0.02-0.2l0.01-0.08c0.01-0.06,0.02-0.12,0.03-0.18    c0.01-0.02,0.01-0.04,0.01-0.06c0.01-0.08,0.02-0.15,0.04-0.23c0-0.01,0.01-0.03,0.01-0.04c0.01-0.06,0.02-0.13,0.03-0.19    c0.01-0.02,0.01-0.05,0.02-0.07c0.01-0.06,0.02-0.12,0.03-0.18l0.01-0.06c0.02-0.08,0.03-0.15,0.04-0.23    c0.01-0.01,0.01-0.03,0.01-0.04c0.02-0.06,0.03-0.12,0.04-0.19c0.01-0.03,0.02-0.05,0.02-0.08c0.01-0.05,0.02-0.11,0.04-0.16    l0.02-0.07c0.02-0.08,0.03-0.15,0.06-0.22c0-0.02,0-0.03,0.01-0.05c0.02-0.06,0.03-0.12,0.05-0.18l0.02-0.07    c0.02-0.05,0.03-0.11,0.05-0.17c0.01-0.02,0.01-0.04,0.02-0.06c0.02-0.08,0.04-0.15,0.07-0.22c0-0.02,0-0.03,0.01-0.05    c0.02-0.06,0.04-0.12,0.05-0.17l0.02-0.07c0.02-0.06,0.04-0.12,0.06-0.18c0-0.02,0-0.03,0.01-0.04c0.03-0.08,0.05-0.15,0.08-0.22    c0.01-0.02,0.01-0.03,0.02-0.05c0.02-0.05,0.04-0.11,0.06-0.17l0.02-0.07c0.02-0.06,0.04-0.11,0.06-0.17    c0.01-0.02,0.01-0.03,0.02-0.04c0.03-0.08,0.05-0.15,0.08-0.22c0.01-0.02,0.02-0.04,0.02-0.06c0.02-0.05,0.04-0.1,0.06-0.15    c0.01-0.03,0.02-0.05,0.03-0.08c0.02-0.05,0.05-0.11,0.07-0.16l0.02-0.05c0.03-0.07,0.06-0.14,0.09-0.21    c0.01-0.02,0.02-0.05,0.03-0.07l0.06-0.15c0.01-0.03,0.02-0.05,0.03-0.07c0.02-0.06,0.04-0.1,0.07-0.16    c0.01-0.02,0.02-0.05,0.03-0.07c0.03-0.06,0.06-0.12,0.09-0.19l0.03-0.07c0.02-0.05,0.04-0.09,0.07-0.14    c0.01-0.02,0.02-0.05,0.03-0.07c0.03-0.06,0.07-0.12,0.1-0.19l0.01-0.02c0.04-0.07,0.07-0.14,0.11-0.21    c0.01-0.02,0.02-0.04,0.03-0.06c0.02-0.05,0.05-0.1,0.08-0.15c0.01-0.02,0.02-0.04,0.03-0.06c0.04-0.06,0.07-0.12,0.11-0.19    l0.02-0.02c0.03-0.06,0.07-0.13,0.1-0.19c0.01-0.02,0.02-0.04,0.04-0.06c0.02-0.04,0.05-0.09,0.08-0.13    c0.02-0.03,0.03-0.05,0.04-0.08c0.04-0.06,0.07-0.12,0.11-0.19l0.02-0.03c0.04-0.06,0.07-0.12,0.11-0.17    c0.01-0.02,0.02-0.04,0.04-0.06c0.03-0.05,0.06-0.1,0.09-0.14l0.03-0.05c0.04-0.07,0.08-0.13,0.12-0.19    c0.01-0.01,0.02-0.03,0.02-0.04c0.04-0.05,0.08-0.1,0.11-0.15l0.04-0.06c0.03-0.05,0.06-0.1,0.1-0.14l0.04-0.06    c0.04-0.06,0.09-0.12,0.14-0.19l0.02-0.02c0.03-0.04,0.06-0.08,0.09-0.12v0.01c-0.07,0.09-0.14,0.19-0.21,0.28    c-0.67,0.96-2.61,4.06-2.82,8.06c0.01-0.02,0.02-0.05,0.03-0.08c-0.01,0.03-0.01,0.05-0.01,0.08h-0.01    c-1.74,8.27,2.31,16.68,9.85,20.49C-3009.08,1713.26-3010.06,1712.66-3010.98,1711.98L-3010.98,1711.98z"/>
		<path class="st10" d="M-2996.82,1715.63c-0.18-0.12-0.34-0.25-0.49-0.41c0,0-8.49,0.81-14.77-6.24c-5.6-6.46-5.01-14.5-5.05-15.26    v-0.01c0-0.01-0.7-0.37-0.8-0.43c-0.26,1.26-0.39,2.55-0.39,3.84c0.04,10.3,8.36,18.64,18.66,18.7    C-2998.7,1715.82-2997.76,1715.76-2996.82,1715.63z"/>
		<path class="st13" d="M-3002.06,1702.25c1.26-0.53,2.71-0.27,3.72,0.66c0.61,0.56,1.36,1.36,2.17,2.25c0,0-3.44,2.56-7.33,2.18    c-0.79-1.19-1.34-2.52-1.62-3.92C-3004.52,1703.29-3002.58,1702.46-3002.06,1702.25z"/>
		<path class="st14" d="M-2996.01,1677.51c7.81,1.42,13.96,7.47,15.51,15.25h-1.91c-1.79-6.56-7.03-11.6-13.65-13.14    C-2995.86,1678.83-2995.77,1678.08-2996.01,1677.51z"/>
		<path class="st3" d="M-2996.07,1679.62c6.62,1.54,11.86,6.59,13.65,13.14h-1.28c-1.16-4.31-4.03-7.95-7.95-10.07    c-0.93-0.5-2.21-1.12-4.86-1.94C-2996.33,1680.38-2996.19,1680-2996.07,1679.62z"/>
		<path class="st15" d="M-2999.32,1685.65c0.11-0.17,1.1-1.7,1.81-2.94c0.32-0.58,0.57-1.06,0.71-1.34    c-1.06-0.53-1.97-0.91-2.68-1.19c-1.13-0.45-1.82-0.64-2.12-0.75c0.42-0.16,1.81-0.56,5.54,0.2c0,0,0.42-1.29,0.06-2.1    c-7.48-1.37-14.75,1.7-19.09,7.71c-0.67,0.96-2.61,4.06-2.82,8.06c2.05-6.1,5.24-4.18,9.89-0.81l0,0l0.01-0.01    c0.16-0.34,0.33-0.68,0.51-1.01c0.11-0.23,0.24-0.44,0.39-0.65v-0.01C-3005.39,1688.1-3002.63,1685.98-2999.32,1685.65z"/>
		<path class="st16" d="M-3017.12,1693.71v-0.01c0,0.01,0.01,0.01,0.01,0.01c1.48,0.67,4.88,1.52,9.09-1.23    c-1.4,2.88-2.18,9.42,2.28,10.5l0,0c0.32,1.94,1.38,4.02,2.4,5.55c-2.84,0.27-5.7,0.25-8.54-0.06l0,0    c0.37,0.47,5.23,7.01,14.24,5.97l0.01,0.01c0.12,0.09,0.92,0.84,1.18,1.13l-0.36,0.05c-0.18-0.11-0.34-0.25-0.49-0.41    c0,0-8.5,0.81-14.77-6.24C-3017.68,1702.51-3017.09,1694.47-3017.12,1693.71z"/>
		<path class="st12" d="M-2991.35,1684.73c1.47,1.21,11.97,10.61,1.2,25.6c0.05-0.03,0.07-0.05,0.13-0.09    c7.33-5.17,9.08-15.3,3.91-22.63c-1.37-1.95-3.16-3.57-5.23-4.75L-2991.35,1684.73z"/>
		<path class="st8" d="M-2996.79,1681.37c-1.06-0.53-1.97-0.91-2.68-1.19c-1.13-0.45-1.82-0.64-2.12-0.75    c0.42-0.16,1.8-0.58,5.54,0.2C-2996.27,1680.22-2996.51,1680.8-2996.79,1681.37L-2996.79,1681.37z"/>
		<path class="st17" d="M-2991.44,1688.69c1.47,0.11,4.95,6.54,4.7,12.25c-0.07,1.32-0.4,3.54-1.73,5.2c0,0-1.15,1.38-2.62,0.88    l-0.35-0.13l-2.51-0.92C-2987.94,1699.91-2991.44,1688.69-2991.44,1688.69z"/>
		<path class="st12" d="M-2992.58,1700.2L-2992.58,1700.2l0.98,0.02c1.53,0,3.41-0.25,4.85-0.56l0,0c-1.3-2.82-5.39-5.03-5.63-5.17    C-2992.09,1696.39-2992.16,1698.32-2992.58,1700.2z"/>
		<path class="st18" d="M-3017.92,1693.28c0,0,4.23,3,9.89-0.8C-3012.68,1689.1-3015.87,1687.18-3017.92,1693.28z"/>
	</g>
</g>
</svg>