<?xml version="1.0" encoding="utf-8"?>
<svg xmlns="http://www.w3.org/2000/svg" xmlns:xlink="http://www.w3.org/1999/xlink" width="39.594" height="50" viewBox="0 0 39.594 50">
  <defs>
    <clipPath id="clip-path">
      <rect id="Rectangle_19390" data-name="Rectangle 19390" width="39.594" height="49.869" fill="none"/>
    </clipPath>
  </defs>
  <g id="Group_51673" data-name="Group 51673" transform="translate(-101.712 -596.244)">
    <g id="Group_51672" data-name="Group 51672" transform="translate(101.712 596.244)">
      <g id="Group_51670" data-name="Group 51670">
        <g id="Group_51669" data-name="Group 51669">
          <g id="Group_51668" data-name="Group 51668" clip-path="url(#clip-path)">
            <g id="Group_51667" data-name="Group 51667" transform="translate(-0.111 -0.131)">
              <path id="Path_23932" data-name="Path 23932" d="M115.862,646.176a2.652,2.652,0,0,1-2.711-2.711V637.3a2.836,2.836,0,0,1-2.322-2.779,2.924,2.924,0,0,1,1.481-2.451l-10.482-13.891a.775.775,0,0,1-.2-.51c0-.183-.016-.4-.034-.636-.025-.337-.052-.7-.052-1.084a19.908,19.908,0,0,1,39.815,0v1.719a.783.783,0,0,1-.211.523L130.68,632.068a2.8,2.8,0,0,1,1.479,2.455,2.838,2.838,0,0,1-2.322,2.779v6.163a2.652,2.652,0,0,1-2.712,2.711Zm-.727-2.711a.676.676,0,0,0,.727.729h11.178a.841.841,0,0,0,.64-.223.733.733,0,0,0,.174-.5v-6.154H115.136Zm-1.509-9.756a.814.814,0,0,0,0,1.629h15.649a.814.814,0,0,0,0-1.629Zm.879-1.932,2.739-.048-3.059-13.34a8.85,8.85,0,0,0-10.169-.511Zm14-.051,10.385-13.849a9.014,9.014,0,0,0-4.71-1.365,8.711,8.711,0,0,0-5.5,1.948l-3.014,13.266Zm-4.92,0,3.138-13.483a9.212,9.212,0,0,0-5.268-1.73,8.607,8.607,0,0,0-5.269,1.727l3.138,13.486Zm-14.861-17.281a10.7,10.7,0,0,1,6.368,2.116,10.626,10.626,0,0,1,12.725,0,10.6,10.6,0,0,1,11.561-.75,17.924,17.924,0,0,0-35.847,0A11.558,11.558,0,0,1,108.721,614.445Z" transform="translate(-101.544 -596.045)" fill="#040505"/>
            </g>
          </g>
        </g>
      </g>
    </g>
    <path id="Path_23933" data-name="Path 23933" d="M120.653,664.565a2.652,2.652,0,0,1-2.711-2.711V655.69a2.815,2.815,0,0,1-2.312-2.675v-.082a2.841,2.841,0,0,1,.056-.558,2.914,2.914,0,0,1,.124-.408,3.045,3.045,0,0,1,1.295-1.5,2.8,2.8,0,0,1,1.347-.355l3.671,0,.076,0h1.917v0h4.314l2.017,0v0h2.848l.831,0a2.812,2.812,0,0,1,1.566.475,3.2,3.2,0,0,1,.412.337,2.8,2.8,0,0,1-1.474,4.768v6.163a2.652,2.652,0,0,1-2.712,2.711Zm-.727-2.711a.675.675,0,0,0,.727.729h11.178a.835.835,0,0,0,.641-.224.73.73,0,0,0,.174-.494v-6.156H119.926Zm-1.509-9.757a.814.814,0,0,0,0,1.629h15.649a.814.814,0,0,0,0-1.629Z" transform="translate(-4.733 -18.321)" fill="#4b1bce"/>
  </g>
</svg>
