<?xml version="1.0" encoding="utf-8"?>
<svg xmlns="http://www.w3.org/2000/svg" width="18" height="18.001" viewBox="0 0 18 18.001">
  <path id="Path_23954" data-name="Path 23954" d="M500.094,123.631a9,9,0,1,0-6.4,15.363l.009,0h.025a9,9,0,0,0,6.365-15.365Zm-2.442,4.1-.014-.1h3.382a7.592,7.592,0,0,1,0,4.727h-3.384l.015-.1a16.073,16.073,0,0,0,.155-2.26A16.4,16.4,0,0,0,497.652,127.736Zm2.79-1.437h-3.065l-.018-.069a12.175,12.175,0,0,0-1-2.688,9.218,9.218,0,0,0-.549-.919A7.7,7.7,0,0,1,500.442,126.3Zm-6.663,11.315-.05.032-.049-.032a5.341,5.341,0,0,1-1.5-2.008,10.82,10.82,0,0,1-.685-1.8l-.034-.116H496l-.033.116a10.819,10.819,0,0,1-.685,1.8A5.334,5.334,0,0,1,493.779,137.614Zm-2.605-5.255-.012-.077a14.666,14.666,0,0,1-.176-2.286,14.919,14.919,0,0,1,.174-2.287l.012-.076h5.115l.012.076a15.145,15.145,0,0,1,0,4.574l-.013.077Zm2.508-9.99.047-.029.048.029a4.8,4.8,0,0,1,1.511,2.018,10.881,10.881,0,0,1,.678,1.8l.033.115h-4.54l.033-.115a11.05,11.05,0,0,1,.678-1.8A4.809,4.809,0,0,1,493.682,122.37Zm-2.03.253a9.2,9.2,0,0,0-.547.918,12.23,12.23,0,0,0-1.005,2.689l-.017.069h-3.065A7.7,7.7,0,0,1,491.652,122.622ZM486.063,130a7.642,7.642,0,0,1,.376-2.364h3.382l-.014.1a16.4,16.4,0,0,0-.154,2.26,16.2,16.2,0,0,0,.155,2.26l.015.1h-3.384A7.647,7.647,0,0,1,486.063,130Zm.954,3.7h3.068l.017.069a12.172,12.172,0,0,0,1.024,2.71,9.373,9.373,0,0,0,.543.9A7.694,7.694,0,0,1,487.016,133.692Zm8.775,3.681a9.454,9.454,0,0,0,.543-.9,12.238,12.238,0,0,0,1.024-2.71l.017-.069h3.067A7.7,7.7,0,0,1,495.791,137.373Z" transform="translate(-484.729 -120.995)" fill="#4b1bce"/>
</svg>
