<?xml version="1.0" encoding="utf-8"?>
<svg xmlns="http://www.w3.org/2000/svg" width="15.966" height="20" viewBox="0 0 15.966 20">
  <g id="Group_51688" data-name="Group 51688" transform="translate(-474.081 -678.296)">
    <path id="Path_23946" data-name="Path 23946" d="M479.878,698.3a1.229,1.229,0,0,1-1.256-1.255v-2.258a1.285,1.285,0,0,1-.412-2.243l-3.978-5.271a.483.483,0,0,1-.117-.318c0-.067-.006-.145-.013-.233-.01-.137-.021-.282-.021-.439a7.983,7.983,0,0,1,15.966,0v.672a.5.5,0,0,1-.14.343l-3.951,5.24a1.3,1.3,0,0,1,.493,1.009,1.315,1.315,0,0,1-.908,1.24v2.258a1.229,1.229,0,0,1-1.256,1.255Zm-.089-1.255c0,.067.021.09.089.09h4.373a.165.165,0,0,0,.108-.025l.014-2.273h-4.583ZM479,693.42a.123.123,0,1,0,0,.246h6.121a.123.123,0,1,0,0-.246Zm.439-1.149.733-.012-1.128-4.917a3.274,3.274,0,0,0-3.515-.254Zm5.282-.018,3.872-5.164a3.321,3.321,0,0,0-1.555-.4,3.226,3.226,0,0,0-1.978.675l-1.11,4.886Zm-1.981,0,1.162-4.993a3.4,3.4,0,0,0-1.841-.568,3.189,3.189,0,0,0-1.842.563l1.164,5Zm-5.667-6.76a4.394,4.394,0,0,1,2.5.783,4.345,4.345,0,0,1,4.977,0,4.384,4.384,0,0,1,2.489-.783,4.323,4.323,0,0,1,1.828.407,6.816,6.816,0,0,0-13.611,0,4.965,4.965,0,0,1,1.817-.406Z" fill="#4b1bce"/>
  </g>
</svg>
