<?xml version="1.0" encoding="utf-8"?>
<svg xmlns="http://www.w3.org/2000/svg" width="16.418" height="20.461" viewBox="0 0 16.418 20.461">
  <g id="Group_51610" data-name="Group 51610" transform="translate(-196.291 -1321.301)">
    <path id="Path_20" data-name="Path 20" d="M53.445,12.061a3.247,3.247,0,0,1-3.22-2.9H46.334a.884.884,0,0,1-.869-.686.865.865,0,0,1,.449-.957,2.874,2.874,0,0,0,.8-1.117A14.186,14.186,0,0,0,47.639.816,5.855,5.855,0,0,1,50.888-4.4V-5.529A2.472,2.472,0,0,1,53.356-8h.179A2.472,2.472,0,0,1,56-5.529V-4.4A5.858,5.858,0,0,1,59.252.79c0,.005,0,.015,0,.025A14.185,14.185,0,0,0,60.181,6.4a2.875,2.875,0,0,0,.8,1.117.865.865,0,0,1,.449.957.884.884,0,0,1-.869.686H56.665a3.247,3.247,0,0,1-3.22,2.9ZM52,9.165a1.49,1.49,0,0,0,2.9,0Zm6.736-1.75-.043-.083A14.683,14.683,0,0,1,57.5.842s0-.014,0-.024a4.059,4.059,0,1,0-8.117,0A14.715,14.715,0,0,1,48.2,7.332l-.043.083ZM53.445-5a5.841,5.841,0,0,1,.81.056v-.586a.721.721,0,0,0-.72-.721h-.179a.721.721,0,0,0-.72.721v.586A5.848,5.848,0,0,1,53.445-5Z" transform="translate(151.055 1329.501)" fill="#4b1bce" stroke="#fff" stroke-width="0.4"/>
  </g>
</svg>
