<?xml version="1.0" encoding="utf-8"?>
<svg xmlns="http://www.w3.org/2000/svg" width="18" height="19.621" viewBox="0 0 18 19.621">
  <path id="Path_23949" data-name="Path 23949" d="M397.192,119.233a2.52,2.52,0,0,1-.316-.021,2.594,2.594,0,0,1-2.293-2.528,2.544,2.544,0,0,1,2.271-2.519,2.33,2.33,0,0,1,.3-.018,2.561,2.561,0,0,1,2.444,1.879q.062.006.13.006a3.748,3.748,0,0,0,2.391-1.187h-.057a.647.647,0,0,1-.716-.723v-5.709a1.37,1.37,0,0,1,.054-.389.606.606,0,0,1,.628-.459h.264a6.308,6.308,0,0,0-.923-4.075,5.442,5.442,0,0,0-4.659-2.528c-.135,0-.272,0-.411.012a5.547,5.547,0,0,0-5.22,4.866,10.786,10.786,0,0,0-.066,1.288c0,.145,0,.29-.007.438h.258a.656.656,0,0,1,.694.606,1.857,1.857,0,0,1,.012.254v5.688a.646.646,0,0,1-.725.731l-.949,0c-.274,0-.549,0-.823-.015a2,2,0,0,1-1.917-1.938c-.023-1.012-.022-2.09,0-3.294a2.1,2.1,0,0,1,2.042-2.037l.088,0v-.48a8.494,8.494,0,0,1,.123-1.8,6.91,6.91,0,0,1,4.231-5.155,6.324,6.324,0,0,1,2-.483l.121-.031h.976c.163.027.293.046.422.065a6.287,6.287,0,0,1,.864.169,6.8,6.8,0,0,1,5.09,5.558,8.08,8.08,0,0,1,.1,1.433c0,.212,0,.421.015.631,0,.037,0,.073,0,.11a2.378,2.378,0,0,1,1.9,2.485c0,.767,0,1.532,0,2.3v.482a1.781,1.781,0,0,1-1.678,1.935.122.122,0,0,0-.112.069,5.106,5.106,0,0,1-1.839,1.843,4.987,4.987,0,0,1-2.3.653H399.6A2.6,2.6,0,0,1,397.192,119.233Zm-.075-3.764a1.212,1.212,0,0,0-1.194,1.195,1.269,1.269,0,0,0,1.232,1.227,1.191,1.191,0,0,0,.849-.358,1.154,1.154,0,0,0,.337-.824,1.207,1.207,0,0,0-1.212-1.241v-.192Zm-7.392-6.571a.782.782,0,0,0-.844.835c-.007,1.019,0,2.037,0,3.056a.689.689,0,0,0,.6.7c.168.014.339.019.509.019l.636-.009v-4.6Zm13.686,4.611c.093,0,.143,0,.193,0,.431-.041.591-.217.591-.652V110.02a1.256,1.256,0,0,0-.266-.821.709.709,0,0,0-.345-.271,3.147,3.147,0,0,0-.438-.026l-.462.009v4.6Z" transform="translate(-387.536 -99.612)" fill="#4b1bce"/>
</svg>
