<?xml version="1.0" encoding="utf-8"?>
<svg xmlns="http://www.w3.org/2000/svg" width="18" height="19.622" viewBox="0 0 18 19.622">
  <g id="Group_51702" data-name="Group 51702" transform="translate(-410.021 -99.612)">
    <path id="Path_23961" data-name="Path 23961" d="M419.678,119.234a2.534,2.534,0,0,1-.316-.021,2.6,2.6,0,0,1-2.293-2.529,2.544,2.544,0,0,1,2.271-2.519,2.333,2.333,0,0,1,.3-.018,2.562,2.562,0,0,1,2.444,1.879c.04,0,.084.006.129.006a3.744,3.744,0,0,0,2.391-1.187h-.056a.648.648,0,0,1-.717-.723l0-5.709a1.334,1.334,0,0,1,.054-.389.6.6,0,0,1,.628-.459h.264a6.308,6.308,0,0,0-.923-4.075,5.444,5.444,0,0,0-4.659-2.529c-.136,0-.272,0-.411.013a5.547,5.547,0,0,0-5.221,4.866,10.777,10.777,0,0,0-.065,1.288c0,.145,0,.29-.007.438h.257a.655.655,0,0,1,.694.606,1.717,1.717,0,0,1,.012.254v5.688a.646.646,0,0,1-.725.731l-.948,0c-.275,0-.55,0-.824-.015a2,2,0,0,1-1.917-1.938c-.022-1.012-.021-2.09,0-3.294a2.1,2.1,0,0,1,2.042-2.037l.088,0v-.48a8.371,8.371,0,0,1,.123-1.8,6.909,6.909,0,0,1,4.23-5.155,6.323,6.323,0,0,1,2-.483l.121-.031h.976c.163.027.292.046.422.065a6.347,6.347,0,0,1,.864.169A6.8,6.8,0,0,1,426,105.4a7.989,7.989,0,0,1,.1,1.433c0,.212,0,.421.015.631q0,.055,0,.11a2.377,2.377,0,0,1,1.9,2.485c0,.767,0,1.532,0,2.3v.482a1.781,1.781,0,0,1-1.677,1.935.123.123,0,0,0-.113.069,5.1,5.1,0,0,1-1.839,1.843,4.984,4.984,0,0,1-2.3.653h-.006A2.593,2.593,0,0,1,419.678,119.234Zm-.075-3.764a1.211,1.211,0,0,0-1.194,1.195,1.268,1.268,0,0,0,1.231,1.227,1.191,1.191,0,0,0,.85-.358,1.153,1.153,0,0,0,.336-.824,1.207,1.207,0,0,0-1.212-1.241v-.192ZM412.21,108.9a.782.782,0,0,0-.844.835c-.007,1.019,0,2.037,0,3.056a.689.689,0,0,0,.6.7c.169.014.339.019.509.019l.637-.009v-4.6Zm13.686,4.611c.093,0,.143,0,.193,0,.432-.041.592-.217.592-.652v-2.833a1.261,1.261,0,0,0-.265-.821.71.71,0,0,0-.346-.271,3.132,3.132,0,0,0-.437-.026l-.462.009v4.6Z" transform="translate(0 0)" fill="#4b1bce"/>
    <path id="Path_23962" data-name="Path 23962" d="M422.862,106.879a.429.429,0,0,0-.354-.189l-.168.026-1.336.949-.864-1.823a.428.428,0,0,0-.381-.221.413.413,0,0,0-.382.234l-.868,1.833-1.246-.917-.154-.082h-.094a.437.437,0,0,0-.363.2.416.416,0,0,0-.034.389l.151.383a19,19,0,0,0,.937,2.224c.311.52,1.54.577,2.053.577s1.725-.055,2.019-.529a14.636,14.636,0,0,0,.9-2.1c.1-.261.188-.466.225-.555A.426.426,0,0,0,422.862,106.879Zm-1.577,2.075c-.253.711-1.336.661-1.588.661s-1.142.043-1.464-.66l-.246-.593.458.335a.457.457,0,0,0,.255.059l.053,0a.428.428,0,0,0,.306-.232l.7-1.486.686,1.442a.375.375,0,0,0,.254.232.387.387,0,0,0,.143.027l.168-.029.535-.381Z" transform="translate(-0.251 -0.23)" fill="#4b1bce" fill-rule="evenodd"/>
  </g>
</svg>
