<?xml version="1.0" encoding="utf-8"?>
<svg xmlns="http://www.w3.org/2000/svg" width="18" height="18" viewBox="0 0 18 18">
  <g id="Group_51695" data-name="Group 51695" transform="translate(-409.222 -122.845)">
    <path id="Path_23959" data-name="Path 23959" d="M423.768,124.345a1.955,1.955,0,0,1,1.954,1.953v11.093a1.956,1.956,0,0,1-1.954,1.954H412.676a1.956,1.956,0,0,1-1.954-1.954V126.3a1.955,1.955,0,0,1,1.954-1.953h11.092m0-1.5H412.676a3.453,3.453,0,0,0-3.454,3.453v11.093a3.454,3.454,0,0,0,3.454,3.454h11.092a3.454,3.454,0,0,0,3.454-3.454V126.3a3.453,3.453,0,0,0-3.454-3.453Z" fill="#4b1bce"/>
    <path id="Path_23960" data-name="Path 23960" d="M415.766,132.962a.89.89,0,1,1-.89-.89h.89Zm.448,0a.89.89,0,1,1,1.78,0v2.229a.89.89,0,0,1-1.78,0Zm.89-3.573a.89.89,0,1,1,.89-.89v.89Zm0,.448a.89.89,0,0,1,0,1.78h-2.228a.89.89,0,1,1,0-1.78Zm3.574.89a.89.89,0,1,1,.89.89h-.89v-.89Zm-.449,0a.889.889,0,1,1-1.779,0V128.5a.889.889,0,1,1,1.779,0v2.228Zm-.889,3.574a.89.89,0,1,1-.89.89v-.89Zm0-.449a.89.89,0,0,1,0-1.78h2.228a.89.89,0,1,1,0,1.78Z" fill="#4b1bce"/>
  </g>
</svg>
