<?xml version="1.0" encoding="utf-8"?>
<svg xmlns="http://www.w3.org/2000/svg" width="10.492" height="20" viewBox="0 0 10.492 20">
  <path id="Path_23958" data-name="Path 23958" d="M485.486,117.962a5.256,5.256,0,0,1-5.246-5.246V101.709a3.747,3.747,0,1,1,7.494,0v9.762a2.248,2.248,0,0,1-4.5,0v-7.266a.742.742,0,0,1,.375-.648.758.758,0,0,1,.749,0,.742.742,0,0,1,.375.648v7.266a.742.742,0,0,0,.374.648.765.765,0,0,0,.75,0,.742.742,0,0,0,.374-.648v-9.762a2.248,2.248,0,0,0-4.5,0v11.012a3.747,3.747,0,1,0,7.494,0V101.207a.744.744,0,0,1,.374-.648.765.765,0,0,1,.75,0,.743.743,0,0,1,.375.648v11.509a5.256,5.256,0,0,1-5.246,5.246Z" transform="translate(-480.24 -97.962)" fill="#4b1bce"/>
</svg>
