<?xml version="1.0" encoding="utf-8"?>
<svg xmlns="http://www.w3.org/2000/svg" width="18.498" height="17.536" viewBox="0 0 18.498 17.536">
  <g id="Group_1643" data-name="Group 1643" transform="translate(0.249 0.25)">
    <path id="Path_12057" data-name="Path 12057" d="M-429.579,289.425q3.769,0,7.538,0a2.822,2.822,0,0,1,2.8,2.306,3.3,3.3,0,0,1,.055.639q0,5.566,0,11.132a2.844,2.844,0,0,1-2.963,2.956c-4.989,0-7.152,0-12.141,0a2.826,2.826,0,0,1-2.835-2.3,3.233,3.233,0,0,1-.057-.639q0-5.577,0-11.155a2.838,2.838,0,0,1,2.952-2.944Zm-.016,15.139h7.427a.962.962,0,0,0,1.093-1.085q0-5.533,0-11.065a.962.962,0,0,0-1.085-1.092h-12.029a.964.964,0,0,0-1.092,1.106c0,3.674.009,7.347-.009,11.021a1.041,1.041,0,0,0,1.116,1.123C-431.706,304.55-432.063,304.564-429.595,304.564Z" transform="translate(437.178 -289.424)" fill="#4b1bce" stroke="#fff" stroke-width="0.5"/>
    <path id="Path_12748" data-name="Path 12748" d="M79.569,74.495l-4.4-4.4a.566.566,0,0,1,0-.8h0l.8-.8a.566.566,0,0,1,.8,0l2.8,2.8,6.3-6.3a.566.566,0,0,1,.8,0h0l.8.8a.566.566,0,0,1,0,.8h0Z" transform="translate(-72.319 -61.142)" fill="#4b1bce" stroke="#fff" stroke-linecap="round" stroke-width="0.5"/>
  </g>
</svg>
