<?xml version="1.0" encoding="utf-8"?>
<svg xmlns="http://www.w3.org/2000/svg" width="13.435" height="18.442" viewBox="0 0 13.435 18.442">
  <g id="Group_51617" data-name="Group 51617" transform="translate(-196.95 -1522.95)">
    <g id="Group_51628" data-name="Group 51628" transform="translate(130.002 -845)">
      <g id="Group_1644" data-name="Group 1644" transform="translate(66.999 2368)">
        <g id="Group_1646" data-name="Group 1646">
          <g id="Group_1647" data-name="Group 1647">
            <path id="Path_12060" data-name="Path 12060" d="M97.495,237.382h-8a.668.668,0,1,0,0,1.335h.85l.364,1.086a1.328,1.328,0,0,0,1.264.914h3.042a1.328,1.328,0,0,0,1.264-.914l.364-1.093h.85a.668.668,0,0,0,0-1.335Zm-2.478,2H91.974l-.221-.664h3.485Z" transform="translate(-86.816 -222.375)" fill="#4b1bce" stroke="#fff" stroke-width="0.1"/>
            <path id="Path_12061" data-name="Path 12061" d="M75.756,25.374a6.663,6.663,0,0,0-6.66-6.666q-.105,0-.21,0a6.656,6.656,0,0,0-3.121,12.427v.236H65.1a.668.668,0,1,0,0,1.335h8a.668.668,0,0,0,0-1.335h-.657v-.243A6.685,6.685,0,0,0,75.756,25.374Zm-5.992,6v-2a.668.668,0,1,0-1.335,0v2H67.1v-.236a1.35,1.35,0,0,0-.678-1.157A5.315,5.315,0,1,1,71.778,30a1.35,1.35,0,0,0-.678,1.157v.236Z" transform="translate(-62.422 -18.708)" fill="#4b1bce" stroke="#fff" stroke-width="0.1"/>
          </g>
          <path id="Path_12062" data-name="Path 12062" d="M145.244,58.39a.664.664,0,0,0,.664-.664h0a4.006,4.006,0,0,0-4.007-4.006h0a.668.668,0,1,0,0,1.335,2.671,2.671,0,0,1,2.664,2.664.664.664,0,0,0,.657.671Z" transform="translate(-135.23 -51.052)" fill="#4b1bce" stroke="#fff" stroke-width="0.1"/>
        </g>
      </g>
    </g>
  </g>
</svg>
