<?xml version="1.0" encoding="utf-8"?>
<svg xmlns="http://www.w3.org/2000/svg" width="18" height="17.302" viewBox="0 0 18 17.302">
  <path id="Path_23966" data-name="Path 23966" d="M380.256,128.143a1.184,1.184,0,0,0-.339.043l-.151.035a5.27,5.27,0,0,0-3.253,2.456l-1.91,3.035-.091,0-.747-.009-6.4-.154a1.675,1.675,0,0,0-.387.039,1.816,1.816,0,0,0-1.333,1.635,1.5,1.5,0,0,0,.993,1.578l4.421,1.693c.08.038.215.094.38.162l-1.27,2.06-3.937,2.029a1.47,1.47,0,0,0-.712,1.583,1.441,1.441,0,0,0,1.72,1.086l4.853-.971a7.419,7.419,0,0,0,4.589-3.234l5.751-9.133c.823-1.309,1.185-2.068,1.01-2.838C383.313,128.65,382.239,128.283,380.256,128.143Zm-13.079,7.291c-.063-.025-.065-.043-.062-.082a.383.383,0,0,1,.223-.3s4.323.1,6.318.139l-.006.01.367,0s.87.01,1.063.015c.308.012.322.038.349.09.052.1.061.123-.5.991l-.392.616a1.506,1.506,0,0,1-.95.663,1.582,1.582,0,0,1-.4.034h-.028a1.5,1.5,0,0,1-.438-.08l-.463-.183h0l-.29-.114Zm1.224,8.189s-1.123.266-1.156.272c.277-.15.7-.362,1.107-.571l.3-.152Zm12.76-12.3-5.734,9.058a5.835,5.835,0,0,1-3.653,2.606l-1.43.211,2.571-4.088a3,3,0,0,0,.994-.049,2.96,2.96,0,0,0,1.856-1.316c.12-.193.235-.368.388-.6.636-.97,1.056-1.61.574-2.522a1.832,1.832,0,0,0-.6-.643l1.566-2.492a3.891,3.891,0,0,1,2.336-1.8l.109-.025a.7.7,0,0,1,.177-.024,11.974,11.974,0,0,1,1.61.19C381.945,129.927,381.908,130.135,381.16,131.324Z" transform="translate(-365.489 -128.141)" fill="#4b1bce"/>
</svg>
