<?xml version="1.0" encoding="utf-8"?>
<svg xmlns="http://www.w3.org/2000/svg" width="18.46" height="17.5" viewBox="0 0 18.46 17.5">
  <g id="Group_51618" data-name="Group 51618" transform="translate(-194.77 -1323.25)">
    <g id="Group_51627" data-name="Group 51627" transform="translate(632.129 1034.076)">
      <path id="Path_12057" data-name="Path 12057" d="M-429.6,289.425q3.761,0,7.522,0a2.816,2.816,0,0,1,2.8,2.3,3.294,3.294,0,0,1,.055.638q0,5.554,0,11.108a2.838,2.838,0,0,1-2.957,2.95c-4.978,0-7.137,0-12.115,0a2.82,2.82,0,0,1-2.829-2.292,3.226,3.226,0,0,1-.057-.637q0-5.565,0-11.131a2.832,2.832,0,0,1,2.945-2.938Zm-.016,15.106h7.411a.959.959,0,0,0,1.09-1.082q0-5.521,0-11.042a.959.959,0,0,0-1.083-1.09h-12a.962.962,0,0,0-1.09,1.1c0,3.666.009,7.332-.009,11a1.038,1.038,0,0,0,1.113,1.121C-431.718,304.517-432.074,304.531-429.611,304.531Z" transform="translate(0.068 0)" fill="#4b1bce" stroke="#fff" stroke-width="0.5"/>
      <path id="Path_12058" data-name="Path 12058" d="M-334.928,358.086v-.31c0-1.136,0-2.272,0-3.407a.946.946,0,0,0-1.169-.977.95.95,0,0,0-.72.986q0,3.451,0,6.9c0,.207-.006.413,0,.619a.938.938,0,0,0,1.11.887.947.947,0,0,0,.778-1.007C-334.927,360.549-334.929,359.317-334.928,358.086Zm-5.663.951c0,.952-.008,1.9,0,2.855a.929.929,0,0,0,.943.917.923.923,0,0,0,.927-.91q.013-2.866-.005-5.732a1.055,1.055,0,0,0-.2-.547.9.9,0,0,0-1.025-.321.913.913,0,0,0-.645.861C-340.6,357.119-340.591,358.078-340.592,359.037Zm-1.894.952c0-.619,0-1.238,0-1.857a.937.937,0,0,0-.94-.986.933.933,0,0,0-.949.978q-.01,1.846,0,3.692a.954.954,0,0,0,.942.993.953.953,0,0,0,.947-1.008C-342.484,361.2-342.486,360.593-342.486,359.989Z" transform="translate(-88.969 -60.161)" fill="#4b1bce" stroke="#fff" stroke-width="0.5"/>
    </g>
  </g>
</svg>
