<?xml version="1.0" encoding="utf-8"?>
<svg xmlns="http://www.w3.org/2000/svg" width="57.52" height="40.042" viewBox="0 0 57.52 40.042">
  <g id="Group_51687" data-name="Group 51687" transform="translate(-344.004 -605.711)">
    <g id="Group_51684" data-name="Group 51684" transform="translate(344.004 605.711)">
      <path id="Path_23934" data-name="Path 23934" d="M396.977,616.465c2.961-2.96,4.547-4.864,4.547-6.872a3.564,3.564,0,0,0-.528-1.8,6,6,0,0,0-3.912-2.009c-1.8-.212-6.661-.318-11.736,4.652l-8.67,8.67-18.822-4.757c-3.807-.951-6.979,4.547-3.383,6.979l11.842,7.93-6.872,6.872-13.111,3.383A3.268,3.268,0,0,0,344,642.581a3.181,3.181,0,0,0,3.172,3.171h11.736a21.312,21.312,0,0,0,14.909-6.132Zm-39.65,0,19.348,4.864c4.124,1.057,4.97.952,5.287,2.22s-.317,1.586-4.018,5.287a5.9,5.9,0,0,1-7.3.74L368.64,628.2l-13.006-8.564c-1.692-1.164.211-3.489,1.692-3.172Zm-11.208,26.116c0-1.057.211-.846,10.468-3.489l-4.547,4.546c-4.757,0-5.921.318-5.921-1.057Zm12.794,1.057H355l13.111-13.111,1.269.846a7.839,7.839,0,0,0,9.939-.952c3.489-3.489,5.392-4.652,4.653-7.4a3.812,3.812,0,0,0-2.749-2.749l-2.326-.635,7.718-7.718c4.441-4.229,8.459-4.229,10.045-4.018,1.48.211,2.326.74,2.432,1.057a1.529,1.529,0,0,1,.212.74c0,1.268-2.009,3.489-3.912,5.392l-23.051,22.944a18.879,18.879,0,0,1-13.428,5.6Z" transform="translate(-344.004 -605.711)" fill="#040505"/>
      <path id="Path_23935" data-name="Path 23935" d="M394.5,618.015l-1.692,1.585a1.022,1.022,0,0,0,0,1.48,1.023,1.023,0,0,0,1.48,0l1.585-1.586a1.021,1.021,0,0,0,0-1.48.9.9,0,0,0-1.374,0Z" transform="translate(-353.69 -608.105)" fill="#040505"/>
      <path id="Path_23936" data-name="Path 23936" d="M399.419,612.994l-1.585,1.585a1.022,1.022,0,0,0,0,1.48,1.022,1.022,0,0,0,1.48,0l1.586-1.586a1.047,1.047,0,1,0-1.48-1.48Z" transform="translate(-354.693 -607.102)" fill="#040505"/>
    </g>
    <path id="Path_23939" data-name="Path 23939" d="M394.5,618.015l-1.692,1.585a1.022,1.022,0,0,0,0,1.48,1.023,1.023,0,0,0,1.48,0l1.585-1.586a1.021,1.021,0,0,0,0-1.48.9.9,0,0,0-1.374,0Z" transform="translate(-9.686 -2.394)" fill="#040505"/>
    <path id="Path_23940" data-name="Path 23940" d="M399.419,612.994l-1.585,1.585a1.022,1.022,0,0,0,0,1.48,1.022,1.022,0,0,0,1.48,0l1.586-1.586a1.047,1.047,0,1,0-1.48-1.48Z" transform="translate(-10.689 -1.392)" fill="#040505"/>
    <path id="Path_23942" data-name="Path 23942" d="M394.5,618.015l-1.692,1.585a1.022,1.022,0,0,0,0,1.48,1.023,1.023,0,0,0,1.48,0l1.585-1.586a1.021,1.021,0,0,0,0-1.48.9.9,0,0,0-1.374,0Z" transform="translate(-9.686 -2.394)" fill="#040505"/>
    <path id="Path_23943" data-name="Path 23943" d="M399.419,612.994l-1.585,1.585a1.022,1.022,0,0,0,0,1.48,1.022,1.022,0,0,0,1.48,0l1.586-1.586a1.047,1.047,0,1,0-1.48-1.48Z" transform="translate(-10.689 -1.392)" fill="#040505"/>
    <g id="Group_51686" data-name="Group 51686" transform="translate(352.897 614.241)">
      <g id="Group_51685" data-name="Group 51685" transform="translate(0 0)">
        <path id="Path_23945" data-name="Path 23945" d="M386.192,625.149a3.812,3.812,0,0,0-2.749-2.749l-2.326-.635-2.22-.528-18.822-4.757c-3.807-.952-6.978,4.547-3.383,6.979l11.842,7.93s-.183-.122,1.8,1.268l1.268.846a7.839,7.839,0,0,0,9.939-.952C385.029,629.06,386.931,627.9,386.192,625.149Zm-13.323,6.556-2.009-1.375-13.006-8.564c-1.692-1.164.211-3.489,1.692-3.172h0l19.348,4.864c4.124,1.057,4.97.951,5.287,2.22s-.318,1.586-4.018,5.287A5.9,5.9,0,0,1,372.869,631.705Z" transform="translate(-355.117 -616.37)" fill="#4b1bce"/>
      </g>
    </g>
  </g>
</svg>
