<svg xmlns="http://www.w3.org/2000/svg" xmlns:xlink="http://www.w3.org/1999/xlink" width="40" height="40" viewBox="0 0 40 40"><defs><style>.a{fill:url(#a);}</style><linearGradient id="a" x1="0.195" y1="0.801" x2="1.364" y2="-0.425" gradientUnits="objectBoundingBox"><stop offset="0" stop-color="#4b1bce"/><stop offset="1" stop-color="#ad49e2"/></linearGradient></defs><g transform="translate(-28 -28)"><path class="a" d="M40,5.866a34.134,34.134,0,0,0-24.136,58.27A34.134,34.134,0,1,0,64.136,15.864,33.911,33.911,0,0,0,40,5.866M40,0A40,40,0,1,1,0,40,40,40,0,0,1,40,0Z" transform="translate(28 28)"/><path class="a" d="M24.842-2.007A9.217,9.217,0,0,1,24.2,1.629a10.592,10.592,0,0,1-1.65,2.689,28.052,28.052,0,0,1-2.139,2.261A25.4,25.4,0,0,0,18.273,8.87a10.794,10.794,0,0,0-1.65,2.78,9.861,9.861,0,0,0-.642,3.758H8.955A15.417,15.417,0,0,1,9.6,10.642a14.143,14.143,0,0,1,1.589-3.391,13.005,13.005,0,0,1,2.047-2.444q1.1-1.008,2.047-1.925A11.2,11.2,0,0,0,16.868.987,4.249,4.249,0,0,0,17.509-1.4a4.442,4.442,0,0,0-1.283-3.33,4.944,4.944,0,0,0-3.605-1.253A4.542,4.542,0,0,0,9.138-4.451,6.083,6.083,0,0,0,7.733-.173H.4A15.909,15.909,0,0,1,1.439-5.367,11.424,11.424,0,0,1,3.975-9.309a11.313,11.313,0,0,1,3.819-2.505,12.805,12.805,0,0,1,4.827-.886,14.91,14.91,0,0,1,5.133.825,11.885,11.885,0,0,1,3.85,2.23,9.154,9.154,0,0,1,2.414,3.391A10.959,10.959,0,0,1,24.842-2.007ZM8.649,22.435a3.81,3.81,0,0,1,1.192-2.78,3.839,3.839,0,0,1,5.561,0,3.839,3.839,0,0,1,0,5.561,3.839,3.839,0,0,1-5.561,0A3.81,3.81,0,0,1,8.649,22.435Z" transform="translate(54.975 60.254)"/></g></svg>