<svg xmlns="http://www.w3.org/2000/svg" width="13.652" height="14" viewBox="0 0 13.652 14">
  <g id="Group_416" data-name="Group 416" transform="translate(7.672 14.4)">
    <path id="Path_9929" data-name="Path 9929" d="M-2.115-.4a.96.96,0,0,1-.955-.832l-.19-1.323a5.369,5.369,0,0,1-.57-.331l-1.257.5-.006,0a1,1,0,0,1-.341.06.961.961,0,0,1-.844-.491L-7.545-5l0,0a.972.972,0,0,1,.24-1.232l1.063-.831c-.008-.119-.012-.227-.012-.331s0-.214.012-.331L-7.3-8.559A.968.968,0,0,1-7.54-9.8L-6.274-12a.954.954,0,0,1,.837-.489.959.959,0,0,1,.351.066l1.259.505a5.4,5.4,0,0,1,.568-.331l.191-1.33a.957.957,0,0,1,.954-.826H.426a.96.96,0,0,1,.955.832l.19,1.324a5.3,5.3,0,0,1,.57.331l1.256-.5.005,0a.988.988,0,0,1,.343-.061.962.962,0,0,1,.844.491L5.855-9.8l0,0a.97.97,0,0,1-.24,1.232l-1.061.83c.008.116.012.226.012.331s0,.218-.012.332l1.061.829A.97.97,0,0,1,5.86-5.012l0,.008L4.584-2.8a.954.954,0,0,1-.838.489h0A.961.961,0,0,1,3.4-2.381l-1.26-.506a5.4,5.4,0,0,1-.568.331L1.379-1.226A.957.957,0,0,1,.425-.4ZM.109-1.7.336-3.095a.651.651,0,0,1,.4-.5,4.21,4.21,0,0,0,.93-.541.657.657,0,0,1,.389-.129.644.644,0,0,1,.241.047l1.285.516,1-1.693L3.474-6.266a.652.652,0,0,1-.244-.592,4.343,4.343,0,0,0,.04-.541,4.347,4.347,0,0,0-.04-.542.652.652,0,0,1,.244-.592L4.584-9.4l-.968-1.674-1.327.5a.644.644,0,0,1-.238.046.652.652,0,0,1-.394-.134A4.013,4.013,0,0,0,.732-11.2a.653.653,0,0,1-.4-.507l-.2-1.369L-1.8-13.1-2.026-11.7a.653.653,0,0,1-.394.5,4.177,4.177,0,0,0-.931.541.647.647,0,0,1-.39.13.645.645,0,0,1-.243-.047l-1.284-.516-.989,1.668,1.1.894a.652.652,0,0,1,.24.589,4.415,4.415,0,0,0-.04.542,4.293,4.293,0,0,0,.04.541.652.652,0,0,1-.244.592l-1.11.868.968,1.675,1.327-.5a.642.642,0,0,1,.239-.045.651.651,0,0,1,.4.136,4.027,4.027,0,0,0,.923.536.653.653,0,0,1,.4.507l.2,1.368Z" fill="#8d8f99"/>
    <path id="Path_9930" data-name="Path 9930" d="M147.047,144.132a2.9,2.9,0,1,0,2.9,2.9A2.9,2.9,0,0,0,147.047,144.132Z" transform="translate(-147.892 -154.428)" fill="#8d8f99"/>
  </g>
</svg>
