<svg version="1.2" xmlns="http://www.w3.org/2000/svg" viewBox="0 0 31 31" width="31" height="31"><g id="Group 1272"><g id="Group 1269"><path id="Path 10442" class="s0" fill="#1fa15d" d="m4.3 30.6c-2.4 0-4.3-1.9-4.3-4.3v-19.5c0-2.4 1.9-4.3 4.3-4.3h10.7v2.3h-10.7c-1.1 0-2 0.9-2 2v19.5c0 1.1 0.9 2 2 2h19.6c1 0 1.9-0.9 1.9-2v-10.6h2.3v10.6c0 2.4-1.9 4.3-4.2 4.3z"/><g id="Group 1268"><path id="Path 10443" fill-rule="evenodd" class="s0" fill="#1fa15d" d="m6.9 23.7v-6l17.1-17 6 6-17.1 17zm2.3-5v2.8h2.8l11-11-2.8-2.8zm12.6-12.7l2.8 2.9 2.2-2.3-2.8-2.8z"/></g></g><path id="Path 10445" class="s0" fill="#1fa15d" d="m17 21.7h5v2h-7z"/></g></svg>