<?xml version="1.0" encoding="utf-8"?>
<svg xmlns="http://www.w3.org/2000/svg" width="49.886" height="50" viewBox="0 0 49.886 50">
  <g id="Group_51655" data-name="Group 51655" transform="translate(-255.322 -608.692)">
    <g id="Group_51644" data-name="Group 51644" transform="translate(255.322 644.409)">
      <path id="Path_23919" data-name="Path 23919" d="M255.862,669.16l-.016-.032a1.4,1.4,0,0,1-.454-1.567,49.777,49.777,0,0,1,2.732-8.992,5.867,5.867,0,0,1,4.192-3.544,5.613,5.613,0,0,1,1.279-.148,6.005,6.005,0,0,1,5.894,5.072,5.741,5.741,0,0,1-3.27,6.212,34.736,34.736,0,0,1-7.172,2.4c-.488.124-2.407.6-2.407.6Zm7.686-12.285a3.758,3.758,0,0,0-3.413,2.14,16.733,16.733,0,0,0-1,2.435c-.416,1.317-.789,2.609-1.185,3.978l-.422,1.454.46-.111c.5-.12.938-.226,1.373-.345l.084-.024a33.4,33.4,0,0,0,6-2.069,3.617,3.617,0,0,0,2.113-3.315,3.954,3.954,0,0,0-2.928-4A4.236,4.236,0,0,0,263.548,656.875Z" transform="translate(-255.324 -654.877)" fill="#4b1bce"/>
    </g>
    <g id="Group_51645" data-name="Group 51645" transform="translate(262.586 608.692)">
      <path id="Path_23920" data-name="Path 23920" d="M290.434,651.4a1.209,1.209,0,0,1-.829-.426q-2.907-2.892-5.8-5.794a2.373,2.373,0,0,1-.224-.273l-.043-.059-.061.039a3.06,3.06,0,0,1-1.658.539,2.875,2.875,0,0,1-1.738-.647l-.054-.04-.406.413c-.352.36-.7.72-1.061,1.074a4.329,4.329,0,0,1-6.459-.014q-1.136-1.129-2.264-2.266a4.32,4.32,0,0,1-.012-6.317c.368-.376.744-.743,1.119-1.109l.435-.427-.038-.053a2.75,2.75,0,0,1-.082-3.437l.032-.055-.256-.221c-.275-.238-.553-.477-.814-.735q-1.969-1.952-3.922-3.919l-1.053-1.055a1.369,1.369,0,0,1-.525-.941,1.394,1.394,0,0,1,.561-.94,10.8,10.8,0,0,1,7.475-2.965,11.051,11.051,0,0,1,5.457,1.445l.331.191.787-.987c.643-.8,1.264-1.579,1.864-2.372a28.352,28.352,0,0,1,9.48-8.181,27.311,27.311,0,0,1,12.759-3.182c.729,0,1.471.029,2.2.087,1.568.121,1.694.259,1.694,1.846l0,.814c0,.569-.008,1.138.006,1.705a24.818,24.818,0,0,1-2.669,11.468,28.04,28.04,0,0,1-8.592,10.312c-.8.606-1.588,1.234-2.38,1.868l-.991.79.036.058a10.35,10.35,0,0,1,1.448,3.848,10.83,10.83,0,0,1-2.943,9.489A1.133,1.133,0,0,1,290.434,651.4Zm-5.357-7.8,5.247,5.362.056-.065a8.8,8.8,0,0,0,.77-9.988l-.046-.074Zm-12.77-5.657c-.409.406-.824.816-1.222,1.24a2.294,2.294,0,0,0,.019,3.2c.88.915,1.766,1.8,2.632,2.632a2.271,2.271,0,0,0,3.165.032c.432-.4.844-.816,1.249-1.228l.437-.445-5.854-5.852ZM290.4,614.328a23.067,23.067,0,0,0-6.25,5.275c-2.743,3.395-5.48,6.861-8.126,10.214l-3.034,3.839c-.455.572-.443.779.074,1.3L280,641.887c.457.459.876.879,1.3,1.293a.738.738,0,0,0,.523.274.872.872,0,0,0,.49-.2c.091-.066.179-.136.267-.207l3.483-2.756q3.848-3.045,7.7-6.082l.257-.2a31.83,31.83,0,0,0,5.431-5c.61-.768,1.188-1.568,1.745-2.342.218-.3.677-.933.677-.933L290.451,614.3Zm-17.638,9.44a8.54,8.54,0,0,0-5.433,1.876l-.065.054,5.3,5.288,4.722-5.974-.075-.046A8.622,8.622,0,0,0,272.761,623.768Zm30.8-13.087a25.472,25.472,0,0,0-11.036,2.5l-.1.047,10.466,10.48.046-.1a25.6,25.6,0,0,0,2.438-12.8l0-.067-.068,0C304.724,610.7,304.138,610.682,303.558,610.682Z" transform="translate(-264.717 -608.692)"/>
    </g>
    <g id="Group_51652" data-name="Group 51652" transform="translate(284.558 620.785)">
      <path id="Path_23927" data-name="Path 23927" d="M297.425,632.968a4.316,4.316,0,0,1-3.061-1.3,4.252,4.252,0,0,1-1.235-3.042,4.318,4.318,0,1,1,4.335,4.345Zm-.036-6.645a2.327,2.327,0,0,0-1.585,3.964,2.3,2.3,0,0,0,1.646.679,2.322,2.322,0,0,0,.111-4.642l-.018-.165-.155.008Z" transform="translate(-293.129 -624.329)"/>
    </g>
    <g id="Group_51653" data-name="Group 51653" transform="translate(279.99 629.644)">
      <path id="Path_23928" data-name="Path 23928" d="M288.192,640.14a.945.945,0,0,1-.692-.315.994.994,0,0,1,.09-1.459c.736-.749,1.482-1.488,2.227-2.226a1.062,1.062,0,0,1,.73-.355.779.779,0,0,1,.421.128,2.062,2.062,0,0,1,.476.477c.068.086.129.162.2.236l.077.084-.058.1c-.06.1-.11.193-.155.28a2.021,2.021,0,0,1-.312.483c-.718.745-1.452,1.473-2.19,2.2A1.168,1.168,0,0,1,288.192,640.14Z" transform="translate(-287.221 -635.785)"/>
    </g>
    <g id="Group_51654" data-name="Group 51654" transform="translate(277.115 634.427)">
      <path id="Path_23929" data-name="Path 23929" d="M284.171,644.46c-.023-.017-.055-.036-.091-.057a1.1,1.1,0,0,1-.507-.464,1.314,1.314,0,0,1,.076-1.02,2.1,2.1,0,0,1,.81-.8,1.318,1.318,0,0,1,.61-.149.845.845,0,0,1,.38.078,1.22,1.22,0,0,1,.532.838,1.2,1.2,0,0,1-.349.831,2.107,2.107,0,0,1-1.363.777l-.054,0Z" transform="translate(-283.503 -641.969)"/>
    </g>
  </g>
</svg>
